M48
;GenerationSoftware,Autodesk,EAGLE,9.6.1*%
;CreationDate,2023-11-30T22:52:54Z*%
FMAT,2
ICI,OFF
METRIC,TZ,000.000
T6C0.610
T5C0.813
T4C0.914
T3C1.016
T2C1.200
T1C1.300
%
G90
M71
T1
X16430Y38060
X16430Y52150
X11430Y35560
X16430Y40560
X16430Y33060
X16430Y30560
X16430Y35520
X16430Y54650
X11430Y57150
X16430Y62150
X16430Y59650
X16430Y57110
T2
X8930Y52150
X8930Y62150
X11430Y62150
X11430Y30560
X11430Y52150
X8930Y40560
X11430Y40560
X8930Y30560
T3
X87630Y11430
X41910Y72390
X81280Y57150
T4
X128270Y24130
X125730Y71120
X123190Y38100
X123190Y35560
X123190Y33020
X116840Y38100
X116840Y35560
X116840Y33020
X114300Y71120
X116840Y71120
X106680Y71120
X11430Y48260
X130810Y21590
X132080Y71120
X11430Y45720
X134620Y71120
X128270Y21590
X123190Y71120
X133350Y24130
X133350Y21590
X130810Y24130
X109220Y71120
T5
X76200Y66040
X68580Y66040
X66040Y69850
X58420Y69850
X26670Y55880
X24130Y55880
X26670Y62230
X24130Y62230
X48260Y62230
X55880Y62230
X48260Y58420
X55880Y58420
X48260Y54610
X55880Y54610
X69850Y46990
X77470Y46990
X31750Y63500
X31750Y66040
X87630Y22860
X13970Y67335
X13970Y72365
X11430Y69850
X25400Y69850
X22860Y69850
X34290Y68580
X34290Y66040
X41910Y66040
X41910Y68580
X34290Y63500
X34290Y60960
X41910Y63500
X41910Y60960
X44450Y67310
X44450Y64770
X39370Y72390
X36830Y72390
X39370Y57150
X36830Y57150
X30480Y33020
X27940Y33020
X30480Y50800
X30480Y58420
X34290Y50800
X34290Y53340
X88900Y68580
X88900Y60960
X82550Y66040
X82550Y63500
X95250Y64770
X95250Y67310
X87630Y57150
X85090Y57150
X82550Y15240
X85090Y15240
X87630Y15240
X90170Y15240
X92710Y15240
X95250Y15240
X97790Y15240
X100330Y15240
X102870Y15240
X105410Y15240
X105410Y22860
X102870Y22860
X100330Y22860
X97790Y22860
X95250Y22860
X92710Y22860
X90170Y22860
X85090Y22860
X82550Y22860
X45720Y15240
X48260Y15240
X50800Y15240
X53340Y15240
X55880Y15240
X58420Y15240
X60960Y15240
X63500Y15240
X66040Y15240
X68580Y15240
X71120Y15240
X73660Y15240
X73660Y22860
X71120Y22860
X68580Y22860
X66040Y22860
X63500Y22860
X60960Y22860
X58420Y22860
X55880Y22860
X53340Y22860
X50800Y22860
X48260Y22860
X45720Y22860
X107950Y52070
X125730Y64770
X118110Y64770
X135890Y64770
X128270Y64770
X43180Y22860
X43180Y20320
X80010Y22860
X80010Y20320
X118110Y25400
X120650Y25400
X36830Y43180
X36830Y40640
X93980Y39370
X93980Y36830
X12700Y22860
X12700Y20320
X39370Y27940
X41910Y27940
X54610Y27940
X57150Y27940
X44450Y27940
X46990Y27940
X52070Y27940
X49530Y27940
X59690Y27940
X62230Y27940
X64770Y27940
X67310Y27940
X69850Y27940
X72390Y27940
X74930Y27940
X77470Y27940
X80010Y27940
X82550Y27940
X85090Y27940
X87630Y27940
X87630Y43180
X85090Y43180
X82550Y43180
X80010Y43180
X77470Y43180
X74930Y43180
X72390Y43180
X69850Y43180
X67310Y43180
X64770Y43180
X62230Y43180
X59690Y43180
X57150Y43180
X54610Y43180
X52070Y43180
X49530Y43180
X46990Y43180
X44450Y43180
X41910Y43180
X39370Y43180
X15240Y15240
X17780Y15240
X30480Y15240
X33020Y15240
X20320Y15240
X22860Y15240
X27940Y15240
X25400Y15240
X35560Y15240
X38100Y15240
X38100Y22860
X35560Y22860
X33020Y22860
X30480Y22860
X27940Y22860
X25400Y22860
X22860Y22860
X20320Y22860
X17780Y22860
X15240Y22860
X96520Y31750
X99060Y31750
X111760Y31750
X111760Y39370
X101600Y31750
X104140Y31750
X109220Y31750
X106680Y31750
X109220Y39370
X106680Y39370
X104140Y39370
X101600Y39370
X99060Y39370
X96520Y39370
X100330Y44450
X107950Y44450
X100330Y52070
X66040Y58420
X58420Y58420
X66040Y62230
X58420Y62230
X66040Y66040
X58420Y66040
X76200Y58420
X68580Y58420
X76200Y62230
X68580Y62230
T6
X39529Y9049
X43498Y15081
X43974Y8731
X46355Y8890
X49371Y18891
X48260Y8731
X52387Y19368
X54451Y8731
X55880Y17304
X91122Y34608
X48260Y24924
X92234Y17939
X77788Y16669
X120174Y8731
X100330Y9366
X102870Y9366
X76359Y13970
X79851Y18098
X114776Y39053
X105727Y69056
X78423Y21749
X64929Y20638
X72073Y40164
X71120Y19526
X117634Y8731
X60166Y56356
X82550Y35560
X123984Y8573
X116205Y22066
X96837Y11271
X89852Y8731
X93345Y12224
X120015Y20161
X93821Y10319
X75089Y18098
X103346Y35878
X61119Y61119
M30