G04 EAGLE Gerber RS-274X export*
G75*
%MOMM*%
%FSLAX34Y34*%
%LPD*%
%INTop Copper*%
%IPPOS*%
%AMOC8*
5,1,8,0,0,1.08239X$1,22.5*%
G01*
%ADD10R,1.780000X7.620000*%
%ADD11C,1.320800*%
%ADD12P,1.649562X8X22.500000*%
%ADD13C,1.422400*%
%ADD14P,1.429621X8X22.500000*%
%ADD15P,1.429621X8X112.500000*%
%ADD16R,1.778000X1.778000*%
%ADD17C,1.778000*%
%ADD18C,3.766000*%
%ADD19P,1.732040X8X22.500000*%
%ADD20C,1.600200*%
%ADD21P,1.429621X8X292.500000*%
%ADD22P,1.429621X8X202.500000*%
%ADD23C,1.650000*%
%ADD24C,1.676400*%
%ADD25P,1.539592X8X22.500000*%
%ADD26R,3.500000X0.400000*%
%ADD27R,5.080000X2.857500*%
%ADD28P,1.649562X8X292.500000*%
%ADD29R,4.495800X2.997200*%
%ADD30C,0.431800*%
%ADD31C,1.016000*%
%ADD32C,0.254000*%

G36*
X95968Y723142D02*
X95968Y723142D01*
X95988Y723140D01*
X96089Y723162D01*
X96191Y723179D01*
X96209Y723188D01*
X96228Y723192D01*
X96317Y723245D01*
X96409Y723294D01*
X96422Y723308D01*
X96439Y723318D01*
X96507Y723397D01*
X96578Y723472D01*
X96586Y723490D01*
X96599Y723505D01*
X96638Y723601D01*
X96682Y723695D01*
X96684Y723715D01*
X96691Y723733D01*
X96710Y723900D01*
X96710Y768131D01*
X112932Y784353D01*
X361731Y784353D01*
X363095Y782988D01*
X363169Y782935D01*
X363238Y782876D01*
X363269Y782863D01*
X363295Y782845D01*
X363382Y782818D01*
X363467Y782784D01*
X363508Y782779D01*
X363530Y782772D01*
X363562Y782773D01*
X363633Y782765D01*
X410251Y782765D01*
X410321Y782777D01*
X410393Y782779D01*
X410442Y782797D01*
X410493Y782805D01*
X410557Y782839D01*
X410624Y782863D01*
X410665Y782896D01*
X410711Y782920D01*
X410760Y782972D01*
X410816Y783017D01*
X410844Y783061D01*
X410880Y783098D01*
X410910Y783163D01*
X410949Y783224D01*
X410962Y783274D01*
X410984Y783321D01*
X410992Y783393D01*
X411009Y783462D01*
X411005Y783514D01*
X411011Y783566D01*
X410996Y783636D01*
X410990Y783707D01*
X410970Y783755D01*
X410959Y783806D01*
X410922Y783868D01*
X410894Y783934D01*
X410849Y783990D01*
X410832Y784017D01*
X410815Y784033D01*
X410789Y784065D01*
X409895Y784958D01*
X408812Y787573D01*
X408812Y790402D01*
X409895Y793017D01*
X411896Y795017D01*
X414510Y796100D01*
X417340Y796100D01*
X417596Y795994D01*
X417709Y795968D01*
X417823Y795939D01*
X417830Y795939D01*
X417836Y795938D01*
X417952Y795949D01*
X418069Y795958D01*
X418074Y795960D01*
X418081Y795961D01*
X418188Y796009D01*
X418295Y796054D01*
X418301Y796059D01*
X418305Y796061D01*
X418319Y796074D01*
X418426Y796159D01*
X421924Y799658D01*
X424082Y801815D01*
X437238Y801815D01*
X437309Y801827D01*
X437380Y801829D01*
X437429Y801847D01*
X437481Y801855D01*
X437544Y801889D01*
X437611Y801913D01*
X437652Y801946D01*
X437698Y801970D01*
X437748Y802022D01*
X437804Y802067D01*
X437832Y802111D01*
X437868Y802148D01*
X437898Y802213D01*
X437937Y802274D01*
X437949Y802324D01*
X437971Y802371D01*
X437979Y802443D01*
X437997Y802512D01*
X437993Y802564D01*
X437998Y802616D01*
X437983Y802686D01*
X437977Y802757D01*
X437957Y802805D01*
X437946Y802856D01*
X437909Y802918D01*
X437881Y802984D01*
X437836Y803040D01*
X437820Y803067D01*
X437802Y803083D01*
X437776Y803115D01*
X436883Y804008D01*
X435800Y806623D01*
X435800Y809452D01*
X436883Y812067D01*
X438883Y814067D01*
X441498Y815150D01*
X444327Y815150D01*
X446942Y814067D01*
X448942Y812067D01*
X449049Y811810D01*
X449110Y811711D01*
X449170Y811611D01*
X449175Y811606D01*
X449178Y811601D01*
X449268Y811527D01*
X449357Y811451D01*
X449363Y811448D01*
X449368Y811444D01*
X449475Y811403D01*
X449585Y811359D01*
X449593Y811358D01*
X449597Y811356D01*
X449616Y811355D01*
X449752Y811340D01*
X654749Y811340D01*
X654768Y811343D01*
X654788Y811341D01*
X654889Y811363D01*
X654991Y811380D01*
X655009Y811389D01*
X655028Y811394D01*
X655117Y811447D01*
X655209Y811495D01*
X655222Y811509D01*
X655239Y811520D01*
X655307Y811598D01*
X655378Y811673D01*
X655386Y811691D01*
X655399Y811707D01*
X655438Y811803D01*
X655482Y811896D01*
X655484Y811916D01*
X655491Y811935D01*
X655510Y812101D01*
X655510Y831958D01*
X655498Y832029D01*
X655496Y832100D01*
X655478Y832149D01*
X655470Y832201D01*
X655436Y832264D01*
X655412Y832331D01*
X655379Y832372D01*
X655355Y832418D01*
X655303Y832467D01*
X655258Y832523D01*
X655214Y832551D01*
X655177Y832587D01*
X655112Y832617D01*
X655051Y832656D01*
X655001Y832669D01*
X654954Y832691D01*
X654882Y832699D01*
X654813Y832716D01*
X654761Y832712D01*
X654709Y832718D01*
X654639Y832703D01*
X654568Y832697D01*
X654520Y832677D01*
X654469Y832666D01*
X654407Y832629D01*
X654341Y832601D01*
X654285Y832556D01*
X654258Y832540D01*
X654242Y832522D01*
X654210Y832496D01*
X651277Y829563D01*
X644123Y829563D01*
X639063Y834623D01*
X639063Y840517D01*
X639052Y840588D01*
X639050Y840660D01*
X639032Y840709D01*
X639024Y840760D01*
X638990Y840823D01*
X638965Y840891D01*
X638933Y840931D01*
X638908Y840977D01*
X638856Y841027D01*
X638812Y841083D01*
X638768Y841111D01*
X638730Y841147D01*
X638665Y841177D01*
X638605Y841216D01*
X638554Y841228D01*
X638507Y841250D01*
X638436Y841258D01*
X638366Y841276D01*
X638314Y841272D01*
X638263Y841277D01*
X638192Y841262D01*
X638121Y841257D01*
X638073Y841236D01*
X638022Y841225D01*
X637961Y841188D01*
X637895Y841160D01*
X637839Y841116D01*
X637811Y841099D01*
X637796Y841081D01*
X637764Y841055D01*
X622651Y825942D01*
X620493Y823785D01*
X440227Y823785D01*
X440112Y823766D01*
X439996Y823749D01*
X439990Y823746D01*
X439984Y823745D01*
X439881Y823691D01*
X439777Y823637D01*
X439772Y823633D01*
X439767Y823630D01*
X439686Y823545D01*
X439604Y823462D01*
X439601Y823455D01*
X439597Y823452D01*
X439589Y823435D01*
X439524Y823315D01*
X439417Y823058D01*
X437417Y821058D01*
X434802Y819975D01*
X431973Y819975D01*
X429358Y821058D01*
X427358Y823058D01*
X426275Y825673D01*
X426275Y828502D01*
X427358Y831117D01*
X429358Y833117D01*
X431973Y834200D01*
X434802Y834200D01*
X437417Y833117D01*
X439417Y831117D01*
X439524Y830860D01*
X439585Y830761D01*
X439645Y830661D01*
X439650Y830656D01*
X439653Y830651D01*
X439743Y830577D01*
X439832Y830501D01*
X439838Y830498D01*
X439843Y830494D01*
X439950Y830453D01*
X440060Y830409D01*
X440068Y830408D01*
X440072Y830406D01*
X440091Y830405D01*
X440227Y830390D01*
X514458Y830390D01*
X514529Y830402D01*
X514600Y830404D01*
X514649Y830422D01*
X514701Y830430D01*
X514764Y830464D01*
X514831Y830488D01*
X514872Y830521D01*
X514918Y830545D01*
X514967Y830597D01*
X515023Y830642D01*
X515051Y830686D01*
X515087Y830723D01*
X515117Y830788D01*
X515156Y830849D01*
X515169Y830899D01*
X515191Y830946D01*
X515199Y831018D01*
X515216Y831087D01*
X515212Y831139D01*
X515218Y831191D01*
X515203Y831261D01*
X515197Y831332D01*
X515177Y831380D01*
X515166Y831431D01*
X515129Y831493D01*
X515101Y831559D01*
X515056Y831615D01*
X515040Y831642D01*
X515022Y831658D01*
X514996Y831690D01*
X512063Y834623D01*
X512063Y842074D01*
X512060Y842093D01*
X512062Y842113D01*
X512040Y842214D01*
X512024Y842316D01*
X512014Y842334D01*
X512010Y842353D01*
X511957Y842442D01*
X511908Y842534D01*
X511894Y842547D01*
X511884Y842564D01*
X511805Y842632D01*
X511730Y842703D01*
X511712Y842711D01*
X511697Y842724D01*
X511601Y842763D01*
X511507Y842807D01*
X511487Y842809D01*
X511469Y842816D01*
X511302Y842835D01*
X487064Y842835D01*
X486974Y842820D01*
X486883Y842813D01*
X486853Y842800D01*
X486821Y842795D01*
X486741Y842752D01*
X486657Y842717D01*
X486625Y842691D01*
X486604Y842680D01*
X486582Y842657D01*
X486526Y842612D01*
X486177Y842263D01*
X479023Y842263D01*
X473963Y847323D01*
X473963Y853186D01*
X473960Y853206D01*
X473962Y853225D01*
X473940Y853327D01*
X473924Y853429D01*
X473914Y853446D01*
X473910Y853466D01*
X473857Y853555D01*
X473808Y853646D01*
X473794Y853660D01*
X473784Y853677D01*
X473705Y853744D01*
X473630Y853816D01*
X473612Y853824D01*
X473597Y853837D01*
X473501Y853876D01*
X473407Y853919D01*
X473387Y853921D01*
X473369Y853929D01*
X473202Y853947D01*
X373158Y853947D01*
X373068Y853933D01*
X372977Y853925D01*
X372948Y853913D01*
X372916Y853908D01*
X372835Y853865D01*
X372751Y853829D01*
X372719Y853803D01*
X372698Y853792D01*
X372676Y853769D01*
X372620Y853724D01*
X351758Y832862D01*
X351716Y832804D01*
X351667Y832752D01*
X351645Y832705D01*
X351614Y832663D01*
X351593Y832594D01*
X351563Y832529D01*
X351557Y832477D01*
X351542Y832427D01*
X351544Y832356D01*
X351536Y832285D01*
X351547Y832234D01*
X351548Y832182D01*
X351573Y832114D01*
X351588Y832044D01*
X351615Y831999D01*
X351633Y831951D01*
X351678Y831895D01*
X351715Y831833D01*
X351754Y831799D01*
X351787Y831759D01*
X351847Y831720D01*
X351901Y831673D01*
X351950Y831654D01*
X351994Y831626D01*
X352063Y831608D01*
X352130Y831581D01*
X352201Y831573D01*
X352232Y831565D01*
X352255Y831567D01*
X352296Y831563D01*
X360450Y831563D01*
X368118Y828387D01*
X373987Y822518D01*
X377163Y814850D01*
X377163Y806550D01*
X373987Y798882D01*
X368118Y793013D01*
X360450Y789837D01*
X352150Y789837D01*
X344482Y793013D01*
X338613Y798882D01*
X335437Y806550D01*
X335437Y814704D01*
X335426Y814774D01*
X335424Y814846D01*
X335406Y814895D01*
X335398Y814946D01*
X335364Y815010D01*
X335339Y815077D01*
X335307Y815118D01*
X335282Y815164D01*
X335231Y815213D01*
X335186Y815269D01*
X335142Y815297D01*
X335104Y815333D01*
X335039Y815363D01*
X334979Y815402D01*
X334928Y815415D01*
X334881Y815437D01*
X334810Y815445D01*
X334740Y815462D01*
X334688Y815458D01*
X334637Y815464D01*
X334566Y815449D01*
X334495Y815443D01*
X334447Y815423D01*
X334396Y815412D01*
X334335Y815375D01*
X334269Y815347D01*
X334213Y815302D01*
X334185Y815285D01*
X334170Y815268D01*
X334138Y815242D01*
X315147Y796251D01*
X315078Y796156D01*
X315009Y796062D01*
X315007Y796056D01*
X315003Y796051D01*
X314969Y795940D01*
X314932Y795828D01*
X314932Y795822D01*
X314931Y795816D01*
X314934Y795699D01*
X314935Y795582D01*
X314937Y795575D01*
X314937Y795570D01*
X314943Y795552D01*
X314982Y795421D01*
X315088Y795165D01*
X315088Y792335D01*
X314005Y789721D01*
X312004Y787720D01*
X309390Y786637D01*
X306560Y786637D01*
X303946Y787720D01*
X301945Y789721D01*
X300862Y792335D01*
X300862Y795165D01*
X301945Y797779D01*
X303946Y799780D01*
X306560Y800863D01*
X309390Y800863D01*
X309646Y800757D01*
X309759Y800730D01*
X309873Y800701D01*
X309880Y800702D01*
X309886Y800700D01*
X310002Y800711D01*
X310119Y800720D01*
X310124Y800723D01*
X310131Y800723D01*
X310238Y800771D01*
X310345Y800817D01*
X310351Y800821D01*
X310355Y800823D01*
X310369Y800836D01*
X310476Y800922D01*
X366964Y857410D01*
X367006Y857468D01*
X367056Y857520D01*
X367078Y857568D01*
X367108Y857610D01*
X367129Y857678D01*
X367159Y857744D01*
X367165Y857795D01*
X367180Y857845D01*
X367179Y857917D01*
X367186Y857988D01*
X367175Y858039D01*
X367174Y858091D01*
X367149Y858158D01*
X367134Y858228D01*
X367107Y858273D01*
X367090Y858322D01*
X367045Y858378D01*
X367008Y858439D01*
X366968Y858473D01*
X366936Y858514D01*
X366876Y858553D01*
X366821Y858599D01*
X366773Y858619D01*
X366729Y858647D01*
X366659Y858664D01*
X366593Y858691D01*
X366522Y858699D01*
X366490Y858707D01*
X366467Y858705D01*
X366426Y858710D01*
X325927Y858710D01*
X325812Y858691D01*
X325696Y858674D01*
X325690Y858671D01*
X325684Y858670D01*
X325581Y858616D01*
X325477Y858562D01*
X325472Y858558D01*
X325467Y858555D01*
X325386Y858470D01*
X325304Y858387D01*
X325301Y858380D01*
X325297Y858377D01*
X325289Y858360D01*
X325224Y858240D01*
X325117Y857983D01*
X323117Y855983D01*
X320502Y854900D01*
X317673Y854900D01*
X315058Y855983D01*
X313058Y857983D01*
X311975Y860598D01*
X311975Y863427D01*
X313058Y866042D01*
X313951Y866935D01*
X313993Y866993D01*
X314043Y867045D01*
X314064Y867093D01*
X314095Y867135D01*
X314116Y867203D01*
X314146Y867269D01*
X314152Y867320D01*
X314167Y867370D01*
X314165Y867442D01*
X314173Y867513D01*
X314162Y867564D01*
X314161Y867616D01*
X314136Y867683D01*
X314121Y867753D01*
X314094Y867798D01*
X314076Y867847D01*
X314032Y867903D01*
X313995Y867964D01*
X313955Y867998D01*
X313923Y868039D01*
X313862Y868078D01*
X313808Y868124D01*
X313760Y868144D01*
X313716Y868172D01*
X313646Y868189D01*
X313580Y868216D01*
X313508Y868224D01*
X313477Y868232D01*
X313454Y868230D01*
X313413Y868235D01*
X152619Y868235D01*
X125285Y895569D01*
X125285Y897196D01*
X125273Y897267D01*
X125271Y897338D01*
X125253Y897387D01*
X125245Y897439D01*
X125211Y897502D01*
X125187Y897569D01*
X125154Y897610D01*
X125130Y897656D01*
X125078Y897705D01*
X125033Y897761D01*
X124989Y897790D01*
X124952Y897825D01*
X124887Y897856D01*
X124826Y897894D01*
X124776Y897907D01*
X124729Y897929D01*
X124657Y897937D01*
X124588Y897954D01*
X124536Y897950D01*
X124484Y897956D01*
X124414Y897941D01*
X124343Y897935D01*
X124295Y897915D01*
X124244Y897904D01*
X124182Y897867D01*
X124116Y897839D01*
X124060Y897794D01*
X124033Y897778D01*
X124017Y897760D01*
X123985Y897734D01*
X118298Y892047D01*
X110302Y892047D01*
X104647Y897702D01*
X104647Y905698D01*
X110302Y911353D01*
X118298Y911353D01*
X123985Y905666D01*
X124043Y905624D01*
X124095Y905575D01*
X124143Y905553D01*
X124185Y905522D01*
X124253Y905501D01*
X124319Y905471D01*
X124370Y905465D01*
X124420Y905450D01*
X124492Y905452D01*
X124563Y905444D01*
X124614Y905455D01*
X124666Y905456D01*
X124733Y905481D01*
X124803Y905496D01*
X124848Y905523D01*
X124897Y905541D01*
X124953Y905586D01*
X125014Y905622D01*
X125048Y905662D01*
X125089Y905694D01*
X125128Y905755D01*
X125174Y905809D01*
X125194Y905858D01*
X125222Y905901D01*
X125239Y905971D01*
X125266Y906037D01*
X125274Y906109D01*
X125282Y906140D01*
X125280Y906163D01*
X125285Y906204D01*
X125285Y922596D01*
X125282Y922612D01*
X125284Y922626D01*
X125273Y922675D01*
X125271Y922738D01*
X125253Y922787D01*
X125245Y922839D01*
X125232Y922863D01*
X125231Y922866D01*
X125223Y922880D01*
X125211Y922902D01*
X125187Y922969D01*
X125154Y923010D01*
X125130Y923056D01*
X125078Y923105D01*
X125033Y923161D01*
X124989Y923190D01*
X124952Y923225D01*
X124887Y923256D01*
X124826Y923294D01*
X124776Y923307D01*
X124729Y923329D01*
X124657Y923337D01*
X124588Y923354D01*
X124536Y923350D01*
X124484Y923356D01*
X124414Y923341D01*
X124343Y923335D01*
X124295Y923315D01*
X124244Y923304D01*
X124182Y923267D01*
X124116Y923239D01*
X124067Y923200D01*
X124054Y923193D01*
X124049Y923187D01*
X124033Y923178D01*
X124017Y923160D01*
X123985Y923134D01*
X118298Y917447D01*
X110302Y917447D01*
X104647Y923102D01*
X104647Y931098D01*
X110302Y936753D01*
X118310Y936753D01*
X118367Y936716D01*
X118452Y936656D01*
X118471Y936650D01*
X118487Y936639D01*
X118588Y936614D01*
X118687Y936583D01*
X118707Y936584D01*
X118726Y936579D01*
X118829Y936587D01*
X118932Y936590D01*
X118951Y936596D01*
X118971Y936598D01*
X119066Y936638D01*
X119163Y936674D01*
X119179Y936687D01*
X119197Y936694D01*
X119328Y936799D01*
X124044Y941515D01*
X205463Y941515D01*
X205534Y941527D01*
X205605Y941529D01*
X205654Y941547D01*
X205706Y941555D01*
X205769Y941589D01*
X205836Y941613D01*
X205877Y941646D01*
X205923Y941670D01*
X205973Y941722D01*
X206029Y941767D01*
X206057Y941811D01*
X206093Y941848D01*
X206123Y941913D01*
X206162Y941974D01*
X206174Y942024D01*
X206196Y942071D01*
X206204Y942143D01*
X206222Y942212D01*
X206218Y942264D01*
X206223Y942316D01*
X206208Y942386D01*
X206202Y942457D01*
X206182Y942505D01*
X206171Y942556D01*
X206134Y942618D01*
X206106Y942684D01*
X206061Y942740D01*
X206045Y942767D01*
X206027Y942783D01*
X206001Y942815D01*
X205108Y943708D01*
X204025Y946323D01*
X204025Y949152D01*
X205108Y951767D01*
X207108Y953767D01*
X209723Y954850D01*
X212552Y954850D01*
X215167Y953767D01*
X217167Y951767D01*
X217274Y951510D01*
X217335Y951411D01*
X217395Y951311D01*
X217400Y951306D01*
X217403Y951301D01*
X217493Y951227D01*
X217582Y951151D01*
X217588Y951148D01*
X217593Y951144D01*
X217700Y951103D01*
X217810Y951059D01*
X217818Y951058D01*
X217822Y951056D01*
X217841Y951055D01*
X217977Y951040D01*
X323631Y951040D01*
X338231Y936440D01*
X338247Y936428D01*
X338260Y936412D01*
X338347Y936357D01*
X338431Y936296D01*
X338450Y936291D01*
X338467Y936280D01*
X338567Y936254D01*
X338666Y936224D01*
X338686Y936225D01*
X338705Y936220D01*
X338808Y936228D01*
X338912Y936230D01*
X338931Y936237D01*
X338951Y936239D01*
X338964Y936245D01*
X346688Y936245D01*
X352045Y930888D01*
X352045Y923312D01*
X349322Y920590D01*
X349280Y920532D01*
X349231Y920480D01*
X349209Y920432D01*
X349179Y920390D01*
X349158Y920322D01*
X349127Y920256D01*
X349122Y920205D01*
X349106Y920155D01*
X349108Y920083D01*
X349100Y920012D01*
X349111Y919961D01*
X349113Y919909D01*
X349137Y919842D01*
X349153Y919772D01*
X349179Y919727D01*
X349197Y919678D01*
X349242Y919622D01*
X349279Y919561D01*
X349318Y919527D01*
X349351Y919486D01*
X349411Y919447D01*
X349466Y919401D01*
X349514Y919381D01*
X349558Y919353D01*
X349627Y919336D01*
X349694Y919309D01*
X349765Y919301D01*
X349796Y919293D01*
X349820Y919295D01*
X349861Y919290D01*
X361339Y919290D01*
X361410Y919302D01*
X361482Y919304D01*
X361531Y919322D01*
X361582Y919330D01*
X361645Y919364D01*
X361713Y919388D01*
X361753Y919421D01*
X361800Y919445D01*
X361849Y919497D01*
X361905Y919542D01*
X361933Y919586D01*
X361969Y919623D01*
X361999Y919688D01*
X362038Y919749D01*
X362051Y919799D01*
X362073Y919846D01*
X362080Y919918D01*
X362098Y919987D01*
X362094Y920039D01*
X362100Y920091D01*
X362084Y920161D01*
X362079Y920232D01*
X362058Y920280D01*
X362047Y920331D01*
X362011Y920393D01*
X361982Y920459D01*
X361938Y920515D01*
X361921Y920542D01*
X361903Y920558D01*
X361878Y920590D01*
X359155Y923312D01*
X359155Y930888D01*
X364512Y936245D01*
X372260Y936245D01*
X372327Y936224D01*
X372347Y936225D01*
X372367Y936220D01*
X372470Y936228D01*
X372573Y936230D01*
X372592Y936237D01*
X372612Y936239D01*
X372707Y936279D01*
X372804Y936315D01*
X372820Y936327D01*
X372838Y936335D01*
X372969Y936440D01*
X378044Y941515D01*
X422056Y941515D01*
X427131Y936440D01*
X427147Y936428D01*
X427160Y936412D01*
X427247Y936357D01*
X427331Y936296D01*
X427350Y936291D01*
X427367Y936280D01*
X427467Y936254D01*
X427566Y936224D01*
X427586Y936225D01*
X427605Y936220D01*
X427708Y936228D01*
X427812Y936230D01*
X427831Y936237D01*
X427851Y936239D01*
X427864Y936245D01*
X435588Y936245D01*
X440945Y930888D01*
X440945Y923312D01*
X435588Y917955D01*
X428012Y917955D01*
X422655Y923312D01*
X422655Y931060D01*
X422676Y931127D01*
X422675Y931147D01*
X422680Y931167D01*
X422672Y931270D01*
X422670Y931373D01*
X422663Y931392D01*
X422661Y931412D01*
X422621Y931507D01*
X422585Y931604D01*
X422573Y931620D01*
X422565Y931638D01*
X422460Y931769D01*
X419542Y934687D01*
X419468Y934740D01*
X419399Y934799D01*
X419369Y934812D01*
X419343Y934830D01*
X419256Y934857D01*
X419171Y934891D01*
X419130Y934896D01*
X419108Y934903D01*
X419075Y934902D01*
X419004Y934910D01*
X413361Y934910D01*
X413290Y934898D01*
X413218Y934896D01*
X413169Y934878D01*
X413118Y934870D01*
X413055Y934836D01*
X412987Y934812D01*
X412947Y934779D01*
X412900Y934755D01*
X412851Y934703D01*
X412795Y934658D01*
X412767Y934614D01*
X412731Y934577D01*
X412701Y934512D01*
X412662Y934451D01*
X412649Y934401D01*
X412627Y934354D01*
X412620Y934282D01*
X412602Y934213D01*
X412606Y934161D01*
X412600Y934109D01*
X412616Y934039D01*
X412621Y933968D01*
X412642Y933920D01*
X412653Y933869D01*
X412689Y933807D01*
X412718Y933741D01*
X412762Y933685D01*
X412779Y933658D01*
X412797Y933642D01*
X412822Y933610D01*
X415545Y930888D01*
X415545Y923312D01*
X410188Y917955D01*
X402440Y917955D01*
X402373Y917976D01*
X402353Y917975D01*
X402333Y917980D01*
X402230Y917972D01*
X402127Y917970D01*
X402108Y917963D01*
X402088Y917961D01*
X401993Y917921D01*
X401896Y917885D01*
X401880Y917873D01*
X401862Y917865D01*
X401731Y917760D01*
X401386Y917415D01*
X401344Y917357D01*
X401294Y917305D01*
X401272Y917257D01*
X401242Y917215D01*
X401221Y917147D01*
X401191Y917081D01*
X401185Y917030D01*
X401170Y916980D01*
X401171Y916908D01*
X401164Y916837D01*
X401175Y916786D01*
X401176Y916734D01*
X401201Y916667D01*
X401216Y916597D01*
X401243Y916552D01*
X401260Y916503D01*
X401305Y916447D01*
X401342Y916386D01*
X401382Y916352D01*
X401414Y916311D01*
X401474Y916272D01*
X401529Y916226D01*
X401577Y916206D01*
X401621Y916178D01*
X401690Y916161D01*
X401757Y916134D01*
X401828Y916126D01*
X401860Y916118D01*
X401883Y916120D01*
X401924Y916115D01*
X412531Y916115D01*
X420815Y907831D01*
X420815Y897224D01*
X420827Y897153D01*
X420829Y897081D01*
X420847Y897032D01*
X420855Y896981D01*
X420888Y896918D01*
X420913Y896850D01*
X420946Y896810D01*
X420970Y896764D01*
X421022Y896714D01*
X421067Y896658D01*
X421111Y896630D01*
X421148Y896594D01*
X421213Y896564D01*
X421274Y896525D01*
X421324Y896513D01*
X421371Y896491D01*
X421443Y896483D01*
X421512Y896465D01*
X421564Y896469D01*
X421616Y896464D01*
X421686Y896479D01*
X421758Y896484D01*
X421805Y896505D01*
X421856Y896516D01*
X421918Y896553D01*
X421984Y896581D01*
X422040Y896625D01*
X422067Y896642D01*
X422083Y896660D01*
X422115Y896686D01*
X422460Y897031D01*
X422472Y897047D01*
X422488Y897060D01*
X422543Y897147D01*
X422604Y897231D01*
X422610Y897250D01*
X422620Y897267D01*
X422646Y897367D01*
X422676Y897466D01*
X422675Y897486D01*
X422680Y897505D01*
X422672Y897608D01*
X422670Y897712D01*
X422663Y897731D01*
X422661Y897751D01*
X422655Y897764D01*
X422655Y905488D01*
X428012Y910845D01*
X435588Y910845D01*
X440945Y905488D01*
X440945Y901478D01*
X440956Y901408D01*
X440958Y901336D01*
X440976Y901287D01*
X440984Y901236D01*
X441018Y901172D01*
X441043Y901105D01*
X441075Y901064D01*
X441100Y901018D01*
X441152Y900969D01*
X441196Y900913D01*
X441240Y900885D01*
X441278Y900849D01*
X441343Y900819D01*
X441403Y900780D01*
X441454Y900767D01*
X441501Y900745D01*
X441572Y900737D01*
X441642Y900720D01*
X441694Y900724D01*
X441745Y900718D01*
X441816Y900733D01*
X441887Y900739D01*
X441935Y900759D01*
X441986Y900770D01*
X442047Y900807D01*
X442113Y900835D01*
X442169Y900880D01*
X442197Y900897D01*
X442212Y900914D01*
X442244Y900940D01*
X444719Y903415D01*
X517429Y903415D01*
X517519Y903430D01*
X517610Y903437D01*
X517640Y903450D01*
X517672Y903455D01*
X517752Y903498D01*
X517836Y903533D01*
X517869Y903559D01*
X517889Y903570D01*
X517911Y903593D01*
X517967Y903638D01*
X521466Y907137D01*
X521534Y907232D01*
X521604Y907325D01*
X521606Y907331D01*
X521609Y907336D01*
X521644Y907448D01*
X521680Y907559D01*
X521680Y907566D01*
X521682Y907572D01*
X521679Y907688D01*
X521678Y907805D01*
X521676Y907812D01*
X521675Y907817D01*
X521669Y907835D01*
X521631Y907966D01*
X521525Y908223D01*
X521525Y911052D01*
X522608Y913667D01*
X524608Y915667D01*
X527223Y916750D01*
X530052Y916750D01*
X532667Y915667D01*
X534667Y913667D01*
X535750Y911052D01*
X535750Y908223D01*
X534667Y905608D01*
X532667Y903608D01*
X530052Y902525D01*
X527223Y902525D01*
X526966Y902631D01*
X526853Y902657D01*
X526739Y902686D01*
X526733Y902686D01*
X526727Y902687D01*
X526610Y902676D01*
X526494Y902667D01*
X526488Y902665D01*
X526482Y902664D01*
X526374Y902616D01*
X526268Y902571D01*
X526262Y902566D01*
X526257Y902564D01*
X526243Y902551D01*
X526137Y902466D01*
X522925Y899254D01*
X522883Y899196D01*
X522833Y899144D01*
X522811Y899096D01*
X522781Y899054D01*
X522760Y898986D01*
X522730Y898920D01*
X522724Y898869D01*
X522709Y898819D01*
X522710Y898747D01*
X522703Y898676D01*
X522714Y898625D01*
X522715Y898573D01*
X522740Y898506D01*
X522755Y898436D01*
X522782Y898391D01*
X522799Y898342D01*
X522844Y898286D01*
X522881Y898225D01*
X522921Y898191D01*
X522953Y898150D01*
X523013Y898111D01*
X523068Y898065D01*
X523116Y898045D01*
X523160Y898017D01*
X523230Y898000D01*
X523296Y897973D01*
X523367Y897965D01*
X523399Y897957D01*
X523422Y897959D01*
X523463Y897954D01*
X737723Y897954D01*
X737813Y897969D01*
X737904Y897976D01*
X737934Y897989D01*
X737966Y897994D01*
X738047Y898037D01*
X738131Y898072D01*
X738163Y898098D01*
X738184Y898109D01*
X738206Y898132D01*
X738262Y898177D01*
X762328Y922244D01*
X762370Y922302D01*
X762419Y922354D01*
X762441Y922401D01*
X762472Y922443D01*
X762493Y922512D01*
X762523Y922577D01*
X762529Y922629D01*
X762544Y922679D01*
X762542Y922750D01*
X762550Y922821D01*
X762539Y922872D01*
X762538Y922924D01*
X762513Y922992D01*
X762498Y923062D01*
X762471Y923107D01*
X762453Y923155D01*
X762408Y923211D01*
X762372Y923273D01*
X762332Y923307D01*
X762300Y923347D01*
X762239Y923386D01*
X762185Y923433D01*
X762136Y923452D01*
X762093Y923480D01*
X762023Y923498D01*
X761957Y923525D01*
X761885Y923533D01*
X761854Y923541D01*
X761831Y923539D01*
X761790Y923543D01*
X760181Y923543D01*
X756820Y924935D01*
X754247Y927508D01*
X752855Y930869D01*
X752855Y948731D01*
X754247Y952092D01*
X756820Y954665D01*
X760181Y956057D01*
X763819Y956057D01*
X767180Y954665D01*
X769753Y952092D01*
X771145Y948731D01*
X771145Y932898D01*
X771156Y932827D01*
X771158Y932756D01*
X771176Y932707D01*
X771184Y932655D01*
X771218Y932592D01*
X771243Y932525D01*
X771275Y932484D01*
X771300Y932438D01*
X771352Y932389D01*
X771396Y932333D01*
X771440Y932304D01*
X771478Y932269D01*
X771543Y932238D01*
X771603Y932200D01*
X771654Y932187D01*
X771701Y932165D01*
X771772Y932157D01*
X771842Y932140D01*
X771894Y932144D01*
X771945Y932138D01*
X772016Y932153D01*
X772087Y932159D01*
X772135Y932179D01*
X772186Y932190D01*
X772247Y932227D01*
X772313Y932255D01*
X772369Y932300D01*
X772397Y932316D01*
X772412Y932334D01*
X772444Y932360D01*
X778032Y937948D01*
X778085Y938022D01*
X778145Y938091D01*
X778157Y938121D01*
X778176Y938148D01*
X778203Y938235D01*
X778237Y938319D01*
X778241Y938360D01*
X778248Y938383D01*
X778247Y938415D01*
X778255Y938486D01*
X778255Y948731D01*
X779647Y952092D01*
X782220Y954665D01*
X785581Y956057D01*
X789219Y956057D01*
X792580Y954665D01*
X795153Y952092D01*
X796545Y948731D01*
X796545Y936899D01*
X796559Y936808D01*
X796567Y936718D01*
X796579Y936688D01*
X796584Y936656D01*
X796627Y936575D01*
X796663Y936491D01*
X796689Y936459D01*
X796700Y936438D01*
X796723Y936416D01*
X796768Y936360D01*
X802356Y930772D01*
X802414Y930730D01*
X802466Y930681D01*
X802513Y930659D01*
X802555Y930629D01*
X802624Y930608D01*
X802689Y930577D01*
X802741Y930572D01*
X802791Y930556D01*
X802862Y930558D01*
X802933Y930550D01*
X802984Y930561D01*
X803036Y930563D01*
X803104Y930587D01*
X803174Y930603D01*
X803218Y930629D01*
X803267Y930647D01*
X803323Y930692D01*
X803385Y930729D01*
X803419Y930768D01*
X803459Y930801D01*
X803498Y930861D01*
X803545Y930916D01*
X803564Y930964D01*
X803592Y931008D01*
X803610Y931077D01*
X803637Y931144D01*
X803645Y931215D01*
X803653Y931246D01*
X803651Y931270D01*
X803655Y931311D01*
X803655Y948731D01*
X805047Y952092D01*
X807620Y954665D01*
X810981Y956057D01*
X814619Y956057D01*
X817980Y954665D01*
X820553Y952092D01*
X821945Y948731D01*
X821945Y930869D01*
X820553Y927508D01*
X817980Y924935D01*
X814619Y923543D01*
X811423Y923543D01*
X811352Y923532D01*
X811280Y923530D01*
X811231Y923512D01*
X811180Y923504D01*
X811116Y923470D01*
X811049Y923445D01*
X811008Y923413D01*
X810962Y923388D01*
X810913Y923336D01*
X810857Y923292D01*
X810829Y923248D01*
X810793Y923210D01*
X810763Y923145D01*
X810724Y923085D01*
X810711Y923034D01*
X810689Y922987D01*
X810682Y922916D01*
X810664Y922846D01*
X810668Y922794D01*
X810662Y922743D01*
X810678Y922672D01*
X810683Y922601D01*
X810703Y922553D01*
X810715Y922502D01*
X810751Y922441D01*
X810779Y922375D01*
X810824Y922319D01*
X810841Y922291D01*
X810859Y922276D01*
X810884Y922244D01*
X841301Y891827D01*
X841375Y891774D01*
X841444Y891715D01*
X841474Y891702D01*
X841501Y891684D01*
X841588Y891657D01*
X841672Y891623D01*
X841713Y891618D01*
X841736Y891611D01*
X841768Y891612D01*
X841839Y891604D01*
X901849Y891604D01*
X904464Y888989D01*
X904522Y888947D01*
X904574Y888898D01*
X904621Y888876D01*
X904663Y888846D01*
X904732Y888825D01*
X904797Y888794D01*
X904849Y888789D01*
X904899Y888773D01*
X904970Y888775D01*
X905041Y888767D01*
X905092Y888778D01*
X905144Y888780D01*
X905212Y888804D01*
X905282Y888820D01*
X905327Y888846D01*
X905375Y888864D01*
X905431Y888909D01*
X905493Y888946D01*
X905527Y888985D01*
X905567Y889018D01*
X905606Y889078D01*
X905653Y889133D01*
X905672Y889181D01*
X905700Y889225D01*
X905718Y889294D01*
X905745Y889361D01*
X905753Y889432D01*
X905761Y889463D01*
X905759Y889487D01*
X905763Y889528D01*
X905763Y892239D01*
X905760Y892258D01*
X905762Y892278D01*
X905740Y892379D01*
X905724Y892481D01*
X905714Y892499D01*
X905710Y892518D01*
X905657Y892607D01*
X905608Y892699D01*
X905594Y892712D01*
X905584Y892729D01*
X905505Y892797D01*
X905430Y892868D01*
X905412Y892876D01*
X905397Y892889D01*
X905301Y892928D01*
X905207Y892972D01*
X905187Y892974D01*
X905169Y892981D01*
X905002Y893000D01*
X903460Y893000D01*
X900846Y894083D01*
X898845Y896083D01*
X897762Y898698D01*
X897762Y901527D01*
X898845Y904142D01*
X900846Y906142D01*
X903460Y907225D01*
X906290Y907225D01*
X908904Y906142D01*
X910519Y904527D01*
X910593Y904474D01*
X910663Y904415D01*
X910693Y904402D01*
X910719Y904384D01*
X910806Y904357D01*
X910891Y904323D01*
X910932Y904318D01*
X910954Y904311D01*
X910986Y904312D01*
X911058Y904304D01*
X979636Y904304D01*
X986125Y897816D01*
X986141Y897804D01*
X986154Y897788D01*
X986241Y897732D01*
X986325Y897672D01*
X986344Y897666D01*
X986361Y897655D01*
X986461Y897630D01*
X986560Y897600D01*
X986580Y897600D01*
X986599Y897595D01*
X986702Y897603D01*
X986806Y897606D01*
X986824Y897613D01*
X986844Y897615D01*
X986897Y897637D01*
X994177Y897637D01*
X999237Y892577D01*
X999237Y886607D01*
X999251Y886516D01*
X999259Y886426D01*
X999271Y886396D01*
X999276Y886364D01*
X999319Y886283D01*
X999355Y886199D01*
X999381Y886167D01*
X999392Y886146D01*
X999415Y886124D01*
X999460Y886068D01*
X1013068Y872460D01*
X1013142Y872407D01*
X1013212Y872347D01*
X1013242Y872335D01*
X1013268Y872316D01*
X1013355Y872289D01*
X1013440Y872255D01*
X1013481Y872251D01*
X1013503Y872244D01*
X1013535Y872245D01*
X1013607Y872237D01*
X1019577Y872237D01*
X1023799Y868015D01*
X1023873Y867962D01*
X1023943Y867902D01*
X1023973Y867890D01*
X1023999Y867871D01*
X1024086Y867844D01*
X1024171Y867810D01*
X1024212Y867806D01*
X1024234Y867799D01*
X1024266Y867800D01*
X1024338Y867792D01*
X1152312Y867792D01*
X1152382Y867803D01*
X1152454Y867805D01*
X1152503Y867823D01*
X1152554Y867831D01*
X1152618Y867865D01*
X1152685Y867890D01*
X1152726Y867922D01*
X1152772Y867947D01*
X1152821Y867999D01*
X1152877Y868043D01*
X1152905Y868087D01*
X1152941Y868125D01*
X1152971Y868190D01*
X1153010Y868250D01*
X1153023Y868301D01*
X1153045Y868348D01*
X1153053Y868419D01*
X1153070Y868489D01*
X1153066Y868541D01*
X1153072Y868592D01*
X1153057Y868663D01*
X1153051Y868734D01*
X1153031Y868782D01*
X1153020Y868833D01*
X1152983Y868894D01*
X1152955Y868960D01*
X1152910Y869016D01*
X1152893Y869044D01*
X1152876Y869059D01*
X1152850Y869091D01*
X1152845Y869096D01*
X1151762Y871710D01*
X1151762Y874540D01*
X1152845Y877154D01*
X1154846Y879155D01*
X1157460Y880238D01*
X1160290Y880238D01*
X1162904Y879155D01*
X1164206Y877853D01*
X1164222Y877841D01*
X1164234Y877826D01*
X1164322Y877770D01*
X1164406Y877710D01*
X1164425Y877704D01*
X1164441Y877693D01*
X1164542Y877668D01*
X1164641Y877637D01*
X1164661Y877638D01*
X1164680Y877633D01*
X1164783Y877641D01*
X1164886Y877644D01*
X1164905Y877650D01*
X1164925Y877652D01*
X1165020Y877692D01*
X1165118Y877728D01*
X1165133Y877741D01*
X1165151Y877748D01*
X1165282Y877853D01*
X1207800Y920371D01*
X1207853Y920445D01*
X1207913Y920514D01*
X1207925Y920545D01*
X1207944Y920571D01*
X1207971Y920658D01*
X1208005Y920743D01*
X1208009Y920784D01*
X1208016Y920806D01*
X1208015Y920838D01*
X1208023Y920909D01*
X1208023Y938277D01*
X1217291Y938277D01*
X1217291Y931699D01*
X1217292Y931688D01*
X1217292Y931682D01*
X1217299Y931648D01*
X1217302Y931629D01*
X1217304Y931557D01*
X1217322Y931508D01*
X1217330Y931457D01*
X1217364Y931393D01*
X1217389Y931326D01*
X1217421Y931285D01*
X1217446Y931239D01*
X1217497Y931190D01*
X1217542Y931134D01*
X1217586Y931106D01*
X1217624Y931070D01*
X1217689Y931040D01*
X1217749Y931001D01*
X1217800Y930988D01*
X1217847Y930966D01*
X1217918Y930958D01*
X1217988Y930941D01*
X1218040Y930945D01*
X1218091Y930939D01*
X1218162Y930954D01*
X1218233Y930960D01*
X1218281Y930980D01*
X1218332Y930991D01*
X1218393Y931028D01*
X1218459Y931056D01*
X1218515Y931101D01*
X1218543Y931118D01*
X1218558Y931135D01*
X1218590Y931161D01*
X1221394Y933965D01*
X1221447Y934039D01*
X1221507Y934108D01*
X1221519Y934139D01*
X1221538Y934165D01*
X1221565Y934252D01*
X1221599Y934337D01*
X1221603Y934378D01*
X1221610Y934400D01*
X1221609Y934432D01*
X1221617Y934503D01*
X1221617Y950095D01*
X1223183Y953875D01*
X1226075Y956767D01*
X1229855Y958333D01*
X1233945Y958333D01*
X1237725Y956767D01*
X1240617Y953875D01*
X1242183Y950095D01*
X1242183Y929505D01*
X1240617Y925725D01*
X1237725Y922833D01*
X1233945Y921267D01*
X1229855Y921267D01*
X1226075Y922833D01*
X1223378Y925530D01*
X1223362Y925542D01*
X1223349Y925558D01*
X1223262Y925614D01*
X1223178Y925674D01*
X1223159Y925680D01*
X1223142Y925691D01*
X1223042Y925716D01*
X1222943Y925746D01*
X1222923Y925746D01*
X1222904Y925751D01*
X1222801Y925743D01*
X1222697Y925740D01*
X1222678Y925733D01*
X1222658Y925731D01*
X1222564Y925691D01*
X1222466Y925655D01*
X1222450Y925643D01*
X1222432Y925635D01*
X1222301Y925530D01*
X1168751Y871980D01*
X1166593Y869822D01*
X1165714Y869822D01*
X1165600Y869804D01*
X1165483Y869786D01*
X1165478Y869784D01*
X1165472Y869783D01*
X1165369Y869728D01*
X1165264Y869675D01*
X1165260Y869670D01*
X1165254Y869667D01*
X1165174Y869583D01*
X1165092Y869499D01*
X1165088Y869493D01*
X1165085Y869489D01*
X1165077Y869472D01*
X1165011Y869352D01*
X1164905Y869096D01*
X1164900Y869091D01*
X1164858Y869033D01*
X1164809Y868981D01*
X1164787Y868934D01*
X1164757Y868892D01*
X1164736Y868823D01*
X1164705Y868758D01*
X1164700Y868706D01*
X1164684Y868657D01*
X1164686Y868585D01*
X1164678Y868514D01*
X1164689Y868463D01*
X1164691Y868411D01*
X1164715Y868343D01*
X1164730Y868273D01*
X1164757Y868228D01*
X1164775Y868180D01*
X1164820Y868124D01*
X1164857Y868062D01*
X1164896Y868028D01*
X1164929Y867988D01*
X1164989Y867949D01*
X1165044Y867902D01*
X1165092Y867883D01*
X1165136Y867855D01*
X1165205Y867837D01*
X1165272Y867810D01*
X1165343Y867802D01*
X1165374Y867794D01*
X1165397Y867796D01*
X1165438Y867792D01*
X1280648Y867792D01*
X1280738Y867806D01*
X1280829Y867814D01*
X1280859Y867826D01*
X1280891Y867831D01*
X1280972Y867874D01*
X1281056Y867910D01*
X1281088Y867936D01*
X1281109Y867947D01*
X1281131Y867970D01*
X1281187Y868015D01*
X1299240Y886068D01*
X1299293Y886142D01*
X1299353Y886212D01*
X1299365Y886242D01*
X1299384Y886268D01*
X1299411Y886355D01*
X1299445Y886440D01*
X1299449Y886481D01*
X1299456Y886503D01*
X1299455Y886535D01*
X1299463Y886607D01*
X1299463Y892577D01*
X1304523Y897637D01*
X1311677Y897637D01*
X1316737Y892577D01*
X1316737Y885423D01*
X1311677Y880363D01*
X1305707Y880363D01*
X1305617Y880349D01*
X1305526Y880341D01*
X1305496Y880329D01*
X1305464Y880324D01*
X1305383Y880281D01*
X1305299Y880245D01*
X1305267Y880219D01*
X1305246Y880208D01*
X1305224Y880185D01*
X1305168Y880140D01*
X1284436Y859408D01*
X1024338Y859408D01*
X1024248Y859394D01*
X1024157Y859386D01*
X1024127Y859374D01*
X1024095Y859369D01*
X1024014Y859326D01*
X1023930Y859290D01*
X1023898Y859264D01*
X1023878Y859253D01*
X1023872Y859248D01*
X1023854Y859229D01*
X1023799Y859185D01*
X1019577Y854963D01*
X1012423Y854963D01*
X1007363Y860023D01*
X1007363Y865993D01*
X1007349Y866083D01*
X1007341Y866174D01*
X1007329Y866204D01*
X1007324Y866236D01*
X1007281Y866317D01*
X1007245Y866401D01*
X1007219Y866433D01*
X1007208Y866454D01*
X1007185Y866476D01*
X1007140Y866532D01*
X993532Y880140D01*
X993458Y880193D01*
X993388Y880253D01*
X993358Y880265D01*
X993332Y880284D01*
X993245Y880311D01*
X993160Y880345D01*
X993119Y880349D01*
X993097Y880356D01*
X993065Y880355D01*
X992993Y880363D01*
X987023Y880363D01*
X981963Y885423D01*
X981963Y889806D01*
X981949Y889896D01*
X981941Y889987D01*
X981929Y890017D01*
X981924Y890049D01*
X981881Y890129D01*
X981845Y890213D01*
X981819Y890245D01*
X981808Y890266D01*
X981785Y890288D01*
X981740Y890344D01*
X976387Y895698D01*
X976313Y895751D01*
X976243Y895810D01*
X976213Y895823D01*
X976187Y895841D01*
X976100Y895868D01*
X976015Y895902D01*
X975974Y895907D01*
X975952Y895914D01*
X975920Y895913D01*
X975848Y895921D01*
X921531Y895921D01*
X921460Y895909D01*
X921389Y895907D01*
X921340Y895889D01*
X921288Y895881D01*
X921225Y895847D01*
X921158Y895823D01*
X921117Y895790D01*
X921071Y895766D01*
X921022Y895714D01*
X920966Y895669D01*
X920938Y895625D01*
X920902Y895588D01*
X920872Y895523D01*
X920833Y895462D01*
X920820Y895412D01*
X920798Y895365D01*
X920790Y895293D01*
X920773Y895224D01*
X920777Y895172D01*
X920771Y895120D01*
X920786Y895050D01*
X920792Y894979D01*
X920812Y894931D01*
X920823Y894880D01*
X920860Y894818D01*
X920888Y894752D01*
X920933Y894696D01*
X920949Y894669D01*
X920967Y894653D01*
X920993Y894621D01*
X923037Y892577D01*
X923037Y885423D01*
X917977Y880363D01*
X914928Y880363D01*
X914857Y880352D01*
X914785Y880350D01*
X914736Y880332D01*
X914685Y880324D01*
X914622Y880290D01*
X914554Y880265D01*
X914513Y880233D01*
X914467Y880208D01*
X914418Y880157D01*
X914362Y880112D01*
X914334Y880068D01*
X914298Y880030D01*
X914268Y879965D01*
X914229Y879905D01*
X914216Y879854D01*
X914194Y879807D01*
X914187Y879736D01*
X914169Y879666D01*
X914173Y879614D01*
X914167Y879563D01*
X914183Y879492D01*
X914188Y879421D01*
X914208Y879373D01*
X914220Y879322D01*
X914256Y879261D01*
X914284Y879195D01*
X914329Y879139D01*
X914346Y879111D01*
X914364Y879096D01*
X914389Y879064D01*
X929864Y863589D01*
X929922Y863547D01*
X929974Y863498D01*
X930021Y863476D01*
X930063Y863446D01*
X930132Y863425D01*
X930197Y863394D01*
X930249Y863389D01*
X930299Y863373D01*
X930370Y863375D01*
X930441Y863367D01*
X930492Y863378D01*
X930544Y863380D01*
X930612Y863404D01*
X930682Y863420D01*
X930726Y863446D01*
X930775Y863464D01*
X930831Y863509D01*
X930893Y863546D01*
X930927Y863585D01*
X930967Y863618D01*
X931006Y863678D01*
X931053Y863733D01*
X931072Y863781D01*
X931100Y863825D01*
X931118Y863894D01*
X931145Y863961D01*
X931153Y864032D01*
X931161Y864063D01*
X931159Y864087D01*
X931163Y864128D01*
X931163Y867177D01*
X936223Y872237D01*
X943377Y872237D01*
X948437Y867177D01*
X948437Y860023D01*
X943377Y854963D01*
X940328Y854963D01*
X940257Y854952D01*
X940185Y854950D01*
X940136Y854932D01*
X940085Y854924D01*
X940021Y854890D01*
X939954Y854865D01*
X939913Y854833D01*
X939867Y854808D01*
X939818Y854756D01*
X939762Y854712D01*
X939734Y854668D01*
X939698Y854630D01*
X939668Y854565D01*
X939629Y854505D01*
X939616Y854454D01*
X939594Y854407D01*
X939587Y854336D01*
X939569Y854266D01*
X939573Y854214D01*
X939567Y854163D01*
X939583Y854092D01*
X939588Y854021D01*
X939608Y853973D01*
X939620Y853922D01*
X939656Y853861D01*
X939684Y853795D01*
X939729Y853739D01*
X939746Y853711D01*
X939764Y853696D01*
X939789Y853664D01*
X957188Y836265D01*
X957262Y836212D01*
X957332Y836152D01*
X957362Y836140D01*
X957388Y836121D01*
X957475Y836094D01*
X957560Y836060D01*
X957601Y836056D01*
X957623Y836049D01*
X957655Y836050D01*
X957727Y836042D01*
X1266974Y836042D01*
X1299604Y803411D01*
X1299605Y803379D01*
X1299623Y803330D01*
X1299631Y803279D01*
X1299665Y803215D01*
X1299690Y803148D01*
X1299722Y803107D01*
X1299747Y803061D01*
X1299799Y803012D01*
X1299843Y802956D01*
X1299887Y802928D01*
X1299925Y802892D01*
X1299990Y802862D01*
X1300050Y802823D01*
X1300101Y802810D01*
X1300148Y802788D01*
X1300219Y802780D01*
X1300289Y802763D01*
X1300341Y802767D01*
X1300392Y802761D01*
X1300463Y802777D01*
X1300534Y802782D01*
X1300582Y802802D01*
X1300633Y802814D01*
X1300694Y802850D01*
X1300760Y802878D01*
X1300816Y802923D01*
X1300844Y802940D01*
X1300859Y802958D01*
X1300891Y802983D01*
X1302275Y804367D01*
X1306055Y805933D01*
X1310145Y805933D01*
X1313925Y804367D01*
X1316817Y801475D01*
X1318383Y797695D01*
X1318383Y777105D01*
X1316817Y773325D01*
X1313925Y770433D01*
X1310145Y768867D01*
X1306055Y768867D01*
X1302275Y770433D01*
X1300891Y771817D01*
X1300833Y771859D01*
X1300781Y771908D01*
X1300734Y771930D01*
X1300692Y771960D01*
X1300623Y771981D01*
X1300558Y772012D01*
X1300506Y772017D01*
X1300456Y772033D01*
X1300385Y772031D01*
X1300314Y772039D01*
X1300263Y772028D01*
X1300211Y772026D01*
X1300143Y772002D01*
X1300073Y771986D01*
X1300028Y771960D01*
X1299980Y771942D01*
X1299924Y771897D01*
X1299862Y771860D01*
X1299828Y771821D01*
X1299788Y771788D01*
X1299749Y771728D01*
X1299702Y771673D01*
X1299683Y771625D01*
X1299655Y771581D01*
X1299637Y771512D01*
X1299610Y771445D01*
X1299602Y771374D01*
X1299594Y771343D01*
X1299596Y771319D01*
X1299592Y771278D01*
X1299592Y765365D01*
X1299595Y765346D01*
X1299593Y765326D01*
X1299615Y765225D01*
X1299631Y765123D01*
X1299641Y765105D01*
X1299645Y765086D01*
X1299698Y764997D01*
X1299747Y764905D01*
X1299761Y764892D01*
X1299771Y764875D01*
X1299850Y764807D01*
X1299925Y764736D01*
X1299943Y764728D01*
X1299958Y764715D01*
X1300054Y764676D01*
X1300148Y764632D01*
X1300168Y764630D01*
X1300186Y764623D01*
X1300353Y764604D01*
X1301899Y764604D01*
X1343141Y723362D01*
X1343215Y723309D01*
X1343285Y723249D01*
X1343315Y723237D01*
X1343341Y723218D01*
X1343428Y723191D01*
X1343513Y723157D01*
X1343554Y723153D01*
X1343576Y723146D01*
X1343608Y723147D01*
X1343680Y723139D01*
X1556258Y723139D01*
X1556278Y723142D01*
X1556297Y723140D01*
X1556399Y723162D01*
X1556501Y723179D01*
X1556518Y723188D01*
X1556538Y723192D01*
X1556627Y723245D01*
X1556718Y723294D01*
X1556732Y723308D01*
X1556749Y723318D01*
X1556816Y723397D01*
X1556888Y723472D01*
X1556896Y723490D01*
X1556909Y723505D01*
X1556948Y723601D01*
X1556991Y723695D01*
X1556993Y723715D01*
X1557001Y723733D01*
X1557019Y723900D01*
X1557019Y959358D01*
X1557016Y959378D01*
X1557018Y959397D01*
X1556996Y959499D01*
X1556980Y959601D01*
X1556970Y959618D01*
X1556966Y959638D01*
X1556913Y959727D01*
X1556864Y959818D01*
X1556850Y959832D01*
X1556840Y959849D01*
X1556761Y959916D01*
X1556686Y959988D01*
X1556668Y959996D01*
X1556653Y960009D01*
X1556557Y960048D01*
X1556463Y960091D01*
X1556443Y960093D01*
X1556425Y960101D01*
X1556258Y960119D01*
X1208949Y960119D01*
X1208886Y960109D01*
X1208822Y960109D01*
X1208766Y960089D01*
X1208707Y960080D01*
X1208650Y960050D01*
X1208590Y960029D01*
X1208542Y959992D01*
X1208489Y959964D01*
X1208445Y959918D01*
X1208395Y959879D01*
X1208361Y959829D01*
X1208320Y959786D01*
X1208293Y959728D01*
X1208257Y959675D01*
X1208241Y959617D01*
X1208216Y959563D01*
X1208209Y959500D01*
X1208192Y959438D01*
X1208196Y959378D01*
X1208189Y959319D01*
X1208203Y959256D01*
X1208206Y959192D01*
X1208229Y959137D01*
X1208241Y959078D01*
X1208274Y959023D01*
X1208298Y958964D01*
X1208337Y958918D01*
X1208368Y958867D01*
X1208416Y958826D01*
X1208458Y958777D01*
X1208509Y958746D01*
X1208555Y958707D01*
X1208614Y958683D01*
X1208669Y958650D01*
X1208752Y958628D01*
X1208783Y958615D01*
X1208807Y958613D01*
X1208830Y958606D01*
X1209027Y958575D01*
X1210642Y958050D01*
X1212155Y957279D01*
X1213530Y956281D01*
X1214731Y955080D01*
X1215729Y953705D01*
X1216500Y952192D01*
X1217025Y950577D01*
X1217291Y948899D01*
X1217291Y941323D01*
X1207262Y941323D01*
X1207242Y941320D01*
X1207223Y941322D01*
X1207121Y941300D01*
X1207019Y941283D01*
X1207002Y941274D01*
X1206982Y941270D01*
X1206893Y941217D01*
X1206802Y941168D01*
X1206788Y941154D01*
X1206771Y941144D01*
X1206704Y941065D01*
X1206633Y940990D01*
X1206624Y940972D01*
X1206611Y940957D01*
X1206573Y940861D01*
X1206529Y940767D01*
X1206527Y940747D01*
X1206519Y940729D01*
X1206501Y940562D01*
X1206501Y939799D01*
X1206499Y939799D01*
X1206499Y940562D01*
X1206496Y940582D01*
X1206498Y940601D01*
X1206476Y940703D01*
X1206459Y940805D01*
X1206450Y940822D01*
X1206446Y940842D01*
X1206393Y940931D01*
X1206344Y941022D01*
X1206330Y941036D01*
X1206320Y941053D01*
X1206241Y941120D01*
X1206166Y941191D01*
X1206148Y941200D01*
X1206133Y941213D01*
X1206037Y941252D01*
X1205943Y941295D01*
X1205923Y941297D01*
X1205905Y941305D01*
X1205738Y941323D01*
X1195709Y941323D01*
X1195709Y948899D01*
X1195975Y950577D01*
X1196500Y952192D01*
X1197271Y953705D01*
X1198269Y955080D01*
X1199470Y956281D01*
X1200845Y957279D01*
X1202358Y958050D01*
X1203973Y958575D01*
X1204170Y958606D01*
X1204230Y958626D01*
X1204293Y958637D01*
X1204346Y958665D01*
X1204403Y958683D01*
X1204454Y958722D01*
X1204511Y958752D01*
X1204552Y958795D01*
X1204600Y958831D01*
X1204636Y958884D01*
X1204680Y958930D01*
X1204705Y958984D01*
X1204739Y959034D01*
X1204757Y959095D01*
X1204784Y959153D01*
X1204790Y959213D01*
X1204807Y959270D01*
X1204804Y959334D01*
X1204811Y959397D01*
X1204798Y959456D01*
X1204795Y959516D01*
X1204772Y959575D01*
X1204759Y959638D01*
X1204728Y959689D01*
X1204706Y959745D01*
X1204665Y959794D01*
X1204632Y959849D01*
X1204587Y959888D01*
X1204548Y959934D01*
X1204494Y959967D01*
X1204445Y960009D01*
X1204390Y960031D01*
X1204339Y960063D01*
X1204277Y960077D01*
X1204217Y960101D01*
X1204131Y960110D01*
X1204099Y960118D01*
X1204075Y960117D01*
X1204051Y960119D01*
X77165Y960119D01*
X77145Y960116D01*
X77126Y960118D01*
X77024Y960096D01*
X76922Y960080D01*
X76905Y960070D01*
X76885Y960066D01*
X76796Y960013D01*
X76705Y959964D01*
X76691Y959950D01*
X76674Y959940D01*
X76607Y959861D01*
X76536Y959786D01*
X76527Y959768D01*
X76514Y959753D01*
X76476Y959657D01*
X76432Y959563D01*
X76430Y959543D01*
X76422Y959525D01*
X76404Y959358D01*
X76404Y723900D01*
X76407Y723880D01*
X76405Y723861D01*
X76427Y723759D01*
X76444Y723657D01*
X76453Y723640D01*
X76457Y723620D01*
X76510Y723531D01*
X76559Y723440D01*
X76573Y723426D01*
X76583Y723409D01*
X76662Y723342D01*
X76737Y723271D01*
X76755Y723262D01*
X76770Y723249D01*
X76867Y723210D01*
X76960Y723167D01*
X76980Y723165D01*
X76998Y723157D01*
X77165Y723139D01*
X95949Y723139D01*
X95968Y723142D01*
G37*
G36*
X1100856Y723142D02*
X1100856Y723142D01*
X1100875Y723140D01*
X1100977Y723162D01*
X1101079Y723179D01*
X1101096Y723188D01*
X1101116Y723192D01*
X1101205Y723245D01*
X1101296Y723294D01*
X1101310Y723308D01*
X1101327Y723318D01*
X1101394Y723397D01*
X1101466Y723472D01*
X1101474Y723490D01*
X1101487Y723505D01*
X1101526Y723601D01*
X1101569Y723695D01*
X1101571Y723715D01*
X1101579Y723733D01*
X1101597Y723900D01*
X1101597Y768879D01*
X1101579Y768994D01*
X1101561Y769110D01*
X1101559Y769116D01*
X1101558Y769122D01*
X1101503Y769225D01*
X1101450Y769330D01*
X1101445Y769334D01*
X1101442Y769340D01*
X1101358Y769419D01*
X1101274Y769502D01*
X1101268Y769506D01*
X1101264Y769509D01*
X1101247Y769517D01*
X1101127Y769583D01*
X1099075Y770433D01*
X1096183Y773325D01*
X1094617Y777105D01*
X1094617Y797695D01*
X1096183Y801475D01*
X1099075Y804367D01*
X1102855Y805933D01*
X1106945Y805933D01*
X1110725Y804367D01*
X1113617Y801475D01*
X1115183Y797695D01*
X1115183Y777105D01*
X1113617Y773325D01*
X1110725Y770433D01*
X1108673Y769583D01*
X1108573Y769521D01*
X1108473Y769461D01*
X1108469Y769457D01*
X1108464Y769453D01*
X1108389Y769363D01*
X1108313Y769274D01*
X1108311Y769268D01*
X1108307Y769264D01*
X1108265Y769155D01*
X1108221Y769046D01*
X1108220Y769039D01*
X1108219Y769034D01*
X1108218Y769016D01*
X1108203Y768879D01*
X1108203Y723900D01*
X1108206Y723880D01*
X1108204Y723861D01*
X1108226Y723759D01*
X1108242Y723657D01*
X1108252Y723640D01*
X1108256Y723620D01*
X1108309Y723531D01*
X1108358Y723440D01*
X1108372Y723426D01*
X1108382Y723409D01*
X1108461Y723342D01*
X1108536Y723271D01*
X1108554Y723262D01*
X1108569Y723249D01*
X1108665Y723210D01*
X1108759Y723167D01*
X1108779Y723165D01*
X1108797Y723157D01*
X1108964Y723139D01*
X1161065Y723139D01*
X1161155Y723154D01*
X1161246Y723161D01*
X1161276Y723173D01*
X1161308Y723179D01*
X1161389Y723221D01*
X1161472Y723257D01*
X1161505Y723283D01*
X1161525Y723294D01*
X1161547Y723317D01*
X1161603Y723362D01*
X1205415Y767173D01*
X1205422Y767183D01*
X1205431Y767190D01*
X1205494Y767283D01*
X1205558Y767373D01*
X1205562Y767384D01*
X1205568Y767394D01*
X1205598Y767501D01*
X1205631Y767608D01*
X1205630Y767620D01*
X1205633Y767631D01*
X1205627Y767742D01*
X1205624Y767854D01*
X1205620Y767865D01*
X1205619Y767877D01*
X1205578Y767980D01*
X1205540Y768085D01*
X1205532Y768094D01*
X1205528Y768105D01*
X1205456Y768190D01*
X1205386Y768277D01*
X1205376Y768283D01*
X1205368Y768292D01*
X1205273Y768349D01*
X1205179Y768410D01*
X1205167Y768413D01*
X1205157Y768419D01*
X1204995Y768463D01*
X1203973Y768625D01*
X1202358Y769150D01*
X1200845Y769921D01*
X1199470Y770919D01*
X1198269Y772120D01*
X1197271Y773495D01*
X1196500Y775008D01*
X1195975Y776623D01*
X1195709Y778301D01*
X1195709Y785877D01*
X1205738Y785877D01*
X1205758Y785880D01*
X1205777Y785878D01*
X1205879Y785900D01*
X1205981Y785917D01*
X1205998Y785926D01*
X1206018Y785930D01*
X1206107Y785983D01*
X1206198Y786032D01*
X1206212Y786046D01*
X1206229Y786056D01*
X1206296Y786135D01*
X1206367Y786210D01*
X1206376Y786228D01*
X1206389Y786243D01*
X1206427Y786339D01*
X1206471Y786433D01*
X1206473Y786453D01*
X1206481Y786471D01*
X1206499Y786638D01*
X1206499Y787401D01*
X1206501Y787401D01*
X1206501Y786638D01*
X1206504Y786618D01*
X1206502Y786599D01*
X1206524Y786497D01*
X1206541Y786395D01*
X1206550Y786378D01*
X1206554Y786358D01*
X1206607Y786269D01*
X1206656Y786178D01*
X1206670Y786164D01*
X1206680Y786147D01*
X1206759Y786080D01*
X1206834Y786009D01*
X1206852Y786000D01*
X1206867Y785987D01*
X1206963Y785948D01*
X1207057Y785905D01*
X1207077Y785903D01*
X1207095Y785895D01*
X1207262Y785877D01*
X1217291Y785877D01*
X1217291Y779299D01*
X1217302Y779229D01*
X1217304Y779157D01*
X1217322Y779108D01*
X1217330Y779057D01*
X1217364Y778993D01*
X1217389Y778926D01*
X1217421Y778885D01*
X1217446Y778839D01*
X1217498Y778790D01*
X1217542Y778734D01*
X1217586Y778706D01*
X1217624Y778670D01*
X1217689Y778640D01*
X1217749Y778601D01*
X1217800Y778588D01*
X1217847Y778566D01*
X1217918Y778558D01*
X1217988Y778541D01*
X1218040Y778545D01*
X1218091Y778539D01*
X1218162Y778554D01*
X1218233Y778560D01*
X1218281Y778580D01*
X1218332Y778591D01*
X1218393Y778628D01*
X1218459Y778656D01*
X1218515Y778701D01*
X1218543Y778718D01*
X1218558Y778735D01*
X1218590Y778761D01*
X1221394Y781565D01*
X1221447Y781639D01*
X1221507Y781708D01*
X1221519Y781739D01*
X1221538Y781765D01*
X1221565Y781852D01*
X1221599Y781937D01*
X1221603Y781978D01*
X1221610Y782000D01*
X1221609Y782032D01*
X1221617Y782103D01*
X1221617Y797695D01*
X1223183Y801475D01*
X1226075Y804367D01*
X1229855Y805933D01*
X1233945Y805933D01*
X1237725Y804367D01*
X1240617Y801475D01*
X1242183Y797695D01*
X1242183Y777105D01*
X1240617Y773325D01*
X1237725Y770433D01*
X1233945Y768867D01*
X1229855Y768867D01*
X1226075Y770433D01*
X1223378Y773130D01*
X1223362Y773142D01*
X1223349Y773158D01*
X1223262Y773214D01*
X1223178Y773274D01*
X1223159Y773280D01*
X1223142Y773291D01*
X1223042Y773316D01*
X1222943Y773346D01*
X1222923Y773346D01*
X1222904Y773351D01*
X1222801Y773343D01*
X1222697Y773340D01*
X1222678Y773333D01*
X1222658Y773331D01*
X1222564Y773291D01*
X1222466Y773255D01*
X1222450Y773243D01*
X1222432Y773235D01*
X1222301Y773130D01*
X1212631Y763460D01*
X1211358Y763460D01*
X1211268Y763445D01*
X1211177Y763438D01*
X1211148Y763425D01*
X1211116Y763420D01*
X1211035Y763377D01*
X1210951Y763342D01*
X1210919Y763316D01*
X1210898Y763305D01*
X1210876Y763282D01*
X1210820Y763237D01*
X1207328Y759744D01*
X1207286Y759686D01*
X1207236Y759634D01*
X1207214Y759587D01*
X1207184Y759545D01*
X1207163Y759476D01*
X1207133Y759411D01*
X1207127Y759359D01*
X1207112Y759309D01*
X1207113Y759238D01*
X1207106Y759167D01*
X1207117Y759116D01*
X1207118Y759064D01*
X1207143Y758996D01*
X1207158Y758926D01*
X1207185Y758881D01*
X1207202Y758833D01*
X1207247Y758777D01*
X1207284Y758715D01*
X1207324Y758681D01*
X1207356Y758641D01*
X1207416Y758602D01*
X1207471Y758555D01*
X1207519Y758536D01*
X1207563Y758508D01*
X1207633Y758490D01*
X1207699Y758463D01*
X1207770Y758455D01*
X1207802Y758447D01*
X1207825Y758449D01*
X1207866Y758445D01*
X1210288Y758445D01*
X1215645Y753088D01*
X1215645Y750823D01*
X1207262Y750823D01*
X1207242Y750820D01*
X1207223Y750822D01*
X1207121Y750800D01*
X1207019Y750783D01*
X1207002Y750774D01*
X1206982Y750770D01*
X1206893Y750717D01*
X1206802Y750668D01*
X1206788Y750654D01*
X1206771Y750644D01*
X1206704Y750565D01*
X1206633Y750490D01*
X1206624Y750472D01*
X1206611Y750457D01*
X1206573Y750361D01*
X1206529Y750267D01*
X1206527Y750247D01*
X1206519Y750229D01*
X1206501Y750062D01*
X1206501Y749299D01*
X1205738Y749299D01*
X1205718Y749296D01*
X1205699Y749298D01*
X1205597Y749276D01*
X1205495Y749259D01*
X1205478Y749250D01*
X1205458Y749246D01*
X1205369Y749193D01*
X1205278Y749144D01*
X1205264Y749130D01*
X1205247Y749120D01*
X1205180Y749041D01*
X1205109Y748966D01*
X1205100Y748948D01*
X1205087Y748933D01*
X1205048Y748837D01*
X1205005Y748743D01*
X1205003Y748723D01*
X1204995Y748705D01*
X1204977Y748538D01*
X1204977Y740155D01*
X1202712Y740155D01*
X1197355Y745512D01*
X1197355Y747934D01*
X1197344Y748005D01*
X1197342Y748077D01*
X1197324Y748126D01*
X1197316Y748177D01*
X1197282Y748240D01*
X1197257Y748308D01*
X1197225Y748348D01*
X1197200Y748394D01*
X1197149Y748444D01*
X1197104Y748500D01*
X1197060Y748528D01*
X1197022Y748564D01*
X1196957Y748594D01*
X1196897Y748633D01*
X1196846Y748645D01*
X1196799Y748667D01*
X1196728Y748675D01*
X1196658Y748693D01*
X1196606Y748689D01*
X1196555Y748694D01*
X1196484Y748679D01*
X1196413Y748674D01*
X1196365Y748653D01*
X1196314Y748642D01*
X1196253Y748605D01*
X1196187Y748577D01*
X1196131Y748533D01*
X1196103Y748516D01*
X1196088Y748498D01*
X1196056Y748472D01*
X1172022Y724438D01*
X1171980Y724380D01*
X1171930Y724328D01*
X1171908Y724281D01*
X1171878Y724239D01*
X1171857Y724170D01*
X1171827Y724105D01*
X1171821Y724053D01*
X1171806Y724003D01*
X1171808Y723932D01*
X1171800Y723861D01*
X1171811Y723810D01*
X1171812Y723758D01*
X1171837Y723690D01*
X1171852Y723620D01*
X1171879Y723576D01*
X1171896Y723527D01*
X1171941Y723471D01*
X1171978Y723409D01*
X1172018Y723375D01*
X1172050Y723335D01*
X1172110Y723296D01*
X1172165Y723249D01*
X1172213Y723230D01*
X1172257Y723202D01*
X1172327Y723184D01*
X1172393Y723157D01*
X1172464Y723149D01*
X1172496Y723141D01*
X1172519Y723143D01*
X1172560Y723139D01*
X1178528Y723139D01*
X1178618Y723154D01*
X1178709Y723161D01*
X1178738Y723173D01*
X1178770Y723179D01*
X1178851Y723221D01*
X1178935Y723257D01*
X1178967Y723283D01*
X1178988Y723294D01*
X1179010Y723317D01*
X1179066Y723362D01*
X1186628Y730924D01*
X1186697Y731020D01*
X1186766Y731113D01*
X1186768Y731119D01*
X1186772Y731124D01*
X1186806Y731236D01*
X1186843Y731347D01*
X1186843Y731353D01*
X1186844Y731359D01*
X1186841Y731476D01*
X1186840Y731593D01*
X1186838Y731600D01*
X1186838Y731605D01*
X1186832Y731622D01*
X1186793Y731754D01*
X1186687Y732010D01*
X1186687Y734840D01*
X1187770Y737454D01*
X1189771Y739455D01*
X1192385Y740538D01*
X1195215Y740538D01*
X1197829Y739455D01*
X1199830Y737454D01*
X1200913Y734840D01*
X1200913Y732010D01*
X1199830Y729396D01*
X1197829Y727395D01*
X1195215Y726312D01*
X1192385Y726312D01*
X1192129Y726418D01*
X1192016Y726445D01*
X1191902Y726474D01*
X1191895Y726473D01*
X1191889Y726475D01*
X1191773Y726464D01*
X1191656Y726455D01*
X1191651Y726452D01*
X1191644Y726452D01*
X1191537Y726404D01*
X1191430Y726358D01*
X1191424Y726354D01*
X1191420Y726352D01*
X1191406Y726339D01*
X1191299Y726253D01*
X1189484Y724438D01*
X1189442Y724380D01*
X1189393Y724328D01*
X1189371Y724281D01*
X1189341Y724239D01*
X1189319Y724170D01*
X1189289Y724105D01*
X1189283Y724053D01*
X1189268Y724003D01*
X1189270Y723932D01*
X1189262Y723861D01*
X1189273Y723810D01*
X1189275Y723758D01*
X1189299Y723690D01*
X1189314Y723620D01*
X1189341Y723576D01*
X1189359Y723527D01*
X1189404Y723471D01*
X1189441Y723409D01*
X1189480Y723375D01*
X1189513Y723335D01*
X1189573Y723296D01*
X1189627Y723249D01*
X1189676Y723230D01*
X1189720Y723202D01*
X1189789Y723184D01*
X1189856Y723157D01*
X1189927Y723149D01*
X1189958Y723141D01*
X1189981Y723143D01*
X1190022Y723139D01*
X1329670Y723139D01*
X1329741Y723150D01*
X1329813Y723152D01*
X1329862Y723170D01*
X1329913Y723179D01*
X1329976Y723212D01*
X1330044Y723237D01*
X1330085Y723269D01*
X1330131Y723294D01*
X1330180Y723345D01*
X1330236Y723390D01*
X1330264Y723434D01*
X1330300Y723472D01*
X1330330Y723537D01*
X1330369Y723597D01*
X1330382Y723648D01*
X1330404Y723695D01*
X1330411Y723766D01*
X1330429Y723836D01*
X1330425Y723888D01*
X1330431Y723939D01*
X1330415Y724010D01*
X1330410Y724081D01*
X1330389Y724129D01*
X1330378Y724180D01*
X1330342Y724241D01*
X1330314Y724307D01*
X1330269Y724363D01*
X1330252Y724391D01*
X1330234Y724406D01*
X1330209Y724438D01*
X1305336Y749311D01*
X1305278Y749353D01*
X1305226Y749402D01*
X1305179Y749424D01*
X1305137Y749454D01*
X1305068Y749475D01*
X1305003Y749506D01*
X1304951Y749511D01*
X1304901Y749527D01*
X1304830Y749525D01*
X1304759Y749533D01*
X1304708Y749522D01*
X1304656Y749520D01*
X1304588Y749496D01*
X1304518Y749480D01*
X1304474Y749454D01*
X1304425Y749436D01*
X1304369Y749391D01*
X1304307Y749354D01*
X1304273Y749315D01*
X1304233Y749282D01*
X1304194Y749222D01*
X1304147Y749167D01*
X1304128Y749119D01*
X1304100Y749075D01*
X1304082Y749006D01*
X1304055Y748939D01*
X1304047Y748868D01*
X1304039Y748837D01*
X1304041Y748813D01*
X1304037Y748772D01*
X1304037Y745723D01*
X1298977Y740663D01*
X1291823Y740663D01*
X1286712Y745774D01*
X1286638Y745827D01*
X1286568Y745887D01*
X1286538Y745899D01*
X1286512Y745918D01*
X1286425Y745945D01*
X1286340Y745979D01*
X1286299Y745983D01*
X1286277Y745990D01*
X1286245Y745989D01*
X1286173Y745997D01*
X1241127Y745997D01*
X1241037Y745983D01*
X1240946Y745975D01*
X1240916Y745963D01*
X1240884Y745958D01*
X1240803Y745915D01*
X1240719Y745879D01*
X1240687Y745853D01*
X1240667Y745842D01*
X1240648Y745823D01*
X1240646Y745821D01*
X1240640Y745816D01*
X1240588Y745774D01*
X1235477Y740663D01*
X1228323Y740663D01*
X1223263Y745723D01*
X1223263Y752877D01*
X1228323Y757937D01*
X1235477Y757937D01*
X1240588Y752826D01*
X1240662Y752773D01*
X1240732Y752713D01*
X1240762Y752701D01*
X1240788Y752682D01*
X1240875Y752655D01*
X1240960Y752621D01*
X1241001Y752617D01*
X1241023Y752610D01*
X1241055Y752611D01*
X1241127Y752603D01*
X1286173Y752603D01*
X1286263Y752617D01*
X1286354Y752625D01*
X1286384Y752637D01*
X1286416Y752642D01*
X1286497Y752685D01*
X1286581Y752721D01*
X1286613Y752747D01*
X1286633Y752758D01*
X1286656Y752781D01*
X1286712Y752826D01*
X1291347Y757461D01*
X1291359Y757477D01*
X1291374Y757490D01*
X1291430Y757577D01*
X1291490Y757661D01*
X1291496Y757680D01*
X1291507Y757697D01*
X1291532Y757797D01*
X1291563Y757896D01*
X1291562Y757916D01*
X1291567Y757935D01*
X1291559Y758038D01*
X1291556Y758142D01*
X1291550Y758160D01*
X1291548Y758180D01*
X1291508Y758275D01*
X1291472Y758373D01*
X1291459Y758388D01*
X1291452Y758407D01*
X1291347Y758538D01*
X1291208Y758676D01*
X1291208Y771278D01*
X1291197Y771349D01*
X1291195Y771421D01*
X1291177Y771470D01*
X1291169Y771521D01*
X1291135Y771585D01*
X1291110Y771652D01*
X1291078Y771693D01*
X1291053Y771739D01*
X1291001Y771788D01*
X1290957Y771844D01*
X1290913Y771872D01*
X1290875Y771908D01*
X1290810Y771938D01*
X1290750Y771977D01*
X1290699Y771990D01*
X1290652Y772012D01*
X1290581Y772020D01*
X1290511Y772037D01*
X1290459Y772033D01*
X1290408Y772039D01*
X1290337Y772023D01*
X1290266Y772018D01*
X1290218Y771998D01*
X1290167Y771986D01*
X1290106Y771950D01*
X1290040Y771922D01*
X1289984Y771877D01*
X1289956Y771860D01*
X1289941Y771842D01*
X1289909Y771817D01*
X1288525Y770433D01*
X1284745Y768867D01*
X1280655Y768867D01*
X1276875Y770433D01*
X1273983Y773325D01*
X1272417Y777105D01*
X1272417Y797695D01*
X1273983Y801475D01*
X1276875Y804367D01*
X1280655Y805933D01*
X1283389Y805933D01*
X1283460Y805944D01*
X1283531Y805946D01*
X1283580Y805964D01*
X1283632Y805972D01*
X1283695Y806006D01*
X1283762Y806031D01*
X1283803Y806063D01*
X1283849Y806088D01*
X1283898Y806140D01*
X1283954Y806184D01*
X1283983Y806228D01*
X1284018Y806266D01*
X1284049Y806331D01*
X1284087Y806391D01*
X1284100Y806442D01*
X1284122Y806489D01*
X1284130Y806560D01*
X1284147Y806630D01*
X1284143Y806682D01*
X1284149Y806733D01*
X1284134Y806804D01*
X1284128Y806875D01*
X1284108Y806923D01*
X1284097Y806974D01*
X1284060Y807035D01*
X1284032Y807101D01*
X1283987Y807157D01*
X1283971Y807185D01*
X1283953Y807200D01*
X1283927Y807232D01*
X1263724Y827435D01*
X1263650Y827488D01*
X1263581Y827548D01*
X1263551Y827560D01*
X1263524Y827579D01*
X1263437Y827606D01*
X1263353Y827640D01*
X1263312Y827644D01*
X1263289Y827651D01*
X1263257Y827650D01*
X1263186Y827658D01*
X1101938Y827658D01*
X1101868Y827647D01*
X1101796Y827645D01*
X1101747Y827627D01*
X1101696Y827619D01*
X1101632Y827585D01*
X1101565Y827560D01*
X1101524Y827528D01*
X1101478Y827503D01*
X1101429Y827451D01*
X1101373Y827407D01*
X1101345Y827363D01*
X1101309Y827325D01*
X1101279Y827260D01*
X1101240Y827200D01*
X1101227Y827149D01*
X1101205Y827102D01*
X1101197Y827031D01*
X1101180Y826961D01*
X1101184Y826909D01*
X1101178Y826858D01*
X1101193Y826787D01*
X1101199Y826716D01*
X1101219Y826668D01*
X1101230Y826617D01*
X1101267Y826556D01*
X1101295Y826490D01*
X1101340Y826434D01*
X1101357Y826406D01*
X1101374Y826391D01*
X1101400Y826359D01*
X1101405Y826354D01*
X1102488Y823740D01*
X1102488Y820910D01*
X1101405Y818296D01*
X1099404Y816295D01*
X1096790Y815212D01*
X1093960Y815212D01*
X1091346Y816295D01*
X1089345Y818296D01*
X1089239Y818552D01*
X1089178Y818651D01*
X1089117Y818752D01*
X1089113Y818756D01*
X1089109Y818761D01*
X1089020Y818835D01*
X1088931Y818912D01*
X1088925Y818914D01*
X1088920Y818918D01*
X1088812Y818960D01*
X1088702Y819004D01*
X1088695Y819005D01*
X1088690Y819006D01*
X1088672Y819007D01*
X1088536Y819022D01*
X955894Y819022D01*
X897380Y877537D01*
X897306Y877590D01*
X897237Y877649D01*
X897206Y877662D01*
X897180Y877680D01*
X897093Y877707D01*
X897008Y877741D01*
X896967Y877746D01*
X896945Y877753D01*
X896913Y877752D01*
X896842Y877760D01*
X692296Y877760D01*
X692226Y877748D01*
X692154Y877746D01*
X692105Y877728D01*
X692053Y877720D01*
X691990Y877686D01*
X691923Y877662D01*
X691882Y877629D01*
X691836Y877605D01*
X691787Y877553D01*
X691731Y877508D01*
X691703Y877464D01*
X691667Y877427D01*
X691637Y877362D01*
X691598Y877301D01*
X691585Y877251D01*
X691563Y877204D01*
X691555Y877132D01*
X691538Y877063D01*
X691542Y877011D01*
X691536Y876959D01*
X691551Y876889D01*
X691557Y876818D01*
X691577Y876770D01*
X691588Y876719D01*
X691625Y876657D01*
X691653Y876591D01*
X691698Y876535D01*
X691714Y876508D01*
X691732Y876492D01*
X691758Y876460D01*
X693122Y875096D01*
X694437Y871922D01*
X694437Y855278D01*
X693122Y852104D01*
X690692Y849674D01*
X687518Y848359D01*
X684082Y848359D01*
X680908Y849674D01*
X679265Y851317D01*
X679248Y851329D01*
X679236Y851344D01*
X679149Y851401D01*
X679065Y851461D01*
X679046Y851467D01*
X679029Y851477D01*
X678928Y851503D01*
X678830Y851533D01*
X678810Y851533D01*
X678790Y851537D01*
X678688Y851529D01*
X678584Y851527D01*
X678565Y851520D01*
X678545Y851518D01*
X678451Y851478D01*
X678353Y851442D01*
X678337Y851430D01*
X678319Y851422D01*
X678188Y851317D01*
X675515Y848644D01*
X675473Y848586D01*
X675424Y848534D01*
X675402Y848487D01*
X675371Y848445D01*
X675350Y848376D01*
X675320Y848311D01*
X675314Y848259D01*
X675299Y848209D01*
X675301Y848138D01*
X675293Y848067D01*
X675304Y848016D01*
X675305Y847964D01*
X675330Y847896D01*
X675345Y847826D01*
X675372Y847782D01*
X675390Y847733D01*
X675435Y847677D01*
X675472Y847615D01*
X675511Y847581D01*
X675544Y847541D01*
X675604Y847502D01*
X675658Y847455D01*
X675707Y847436D01*
X675751Y847408D01*
X675820Y847390D01*
X675887Y847363D01*
X675958Y847355D01*
X675989Y847347D01*
X676012Y847349D01*
X676053Y847345D01*
X676888Y847345D01*
X682245Y841988D01*
X682245Y839723D01*
X673862Y839723D01*
X673842Y839720D01*
X673823Y839722D01*
X673721Y839700D01*
X673619Y839683D01*
X673602Y839674D01*
X673582Y839670D01*
X673493Y839617D01*
X673402Y839568D01*
X673388Y839554D01*
X673371Y839544D01*
X673304Y839465D01*
X673233Y839390D01*
X673224Y839372D01*
X673211Y839357D01*
X673173Y839261D01*
X673129Y839167D01*
X673127Y839147D01*
X673119Y839129D01*
X673101Y838962D01*
X673101Y838199D01*
X672338Y838199D01*
X672318Y838196D01*
X672299Y838198D01*
X672197Y838176D01*
X672095Y838159D01*
X672078Y838150D01*
X672058Y838146D01*
X671969Y838093D01*
X671878Y838044D01*
X671864Y838030D01*
X671847Y838020D01*
X671780Y837941D01*
X671709Y837866D01*
X671700Y837848D01*
X671687Y837833D01*
X671648Y837737D01*
X671605Y837643D01*
X671603Y837623D01*
X671595Y837605D01*
X671577Y837438D01*
X671577Y829055D01*
X669312Y829055D01*
X663955Y834412D01*
X663955Y836834D01*
X663944Y836905D01*
X663942Y836977D01*
X663924Y837026D01*
X663916Y837077D01*
X663882Y837140D01*
X663857Y837208D01*
X663825Y837248D01*
X663800Y837294D01*
X663749Y837344D01*
X663704Y837400D01*
X663660Y837428D01*
X663622Y837464D01*
X663557Y837494D01*
X663497Y837533D01*
X663446Y837545D01*
X663399Y837567D01*
X663328Y837575D01*
X663258Y837593D01*
X663206Y837589D01*
X663155Y837594D01*
X663084Y837579D01*
X663013Y837574D01*
X662965Y837553D01*
X662914Y837542D01*
X662853Y837505D01*
X662787Y837477D01*
X662731Y837433D01*
X662703Y837416D01*
X662688Y837398D01*
X662656Y837372D01*
X662338Y837055D01*
X662285Y836981D01*
X662226Y836912D01*
X662213Y836881D01*
X662195Y836855D01*
X662168Y836768D01*
X662134Y836683D01*
X662129Y836642D01*
X662122Y836620D01*
X662123Y836588D01*
X662115Y836517D01*
X662115Y809911D01*
X662118Y809896D01*
X662116Y809882D01*
X662127Y809832D01*
X662129Y809769D01*
X662147Y809720D01*
X662155Y809669D01*
X662168Y809644D01*
X662169Y809641D01*
X662176Y809630D01*
X662189Y809605D01*
X662213Y809538D01*
X662246Y809497D01*
X662270Y809451D01*
X662322Y809402D01*
X662367Y809346D01*
X662411Y809318D01*
X662448Y809282D01*
X662513Y809252D01*
X662574Y809213D01*
X662624Y809200D01*
X662671Y809178D01*
X662743Y809170D01*
X662812Y809153D01*
X662864Y809157D01*
X662916Y809151D01*
X662986Y809166D01*
X663057Y809172D01*
X663105Y809192D01*
X663156Y809203D01*
X663218Y809240D01*
X663284Y809268D01*
X663333Y809308D01*
X663347Y809315D01*
X663351Y809320D01*
X663367Y809330D01*
X663383Y809347D01*
X663415Y809373D01*
X664812Y810770D01*
X666969Y812928D01*
X961806Y812928D01*
X970637Y804097D01*
X970732Y804028D01*
X970825Y803959D01*
X970831Y803957D01*
X970836Y803953D01*
X970948Y803919D01*
X971059Y803882D01*
X971066Y803882D01*
X971072Y803881D01*
X971188Y803884D01*
X971305Y803885D01*
X971312Y803887D01*
X971317Y803887D01*
X971335Y803893D01*
X971466Y803932D01*
X971723Y804038D01*
X974552Y804038D01*
X977167Y802955D01*
X979167Y800954D01*
X980250Y798340D01*
X980250Y795510D01*
X979167Y792896D01*
X977167Y790895D01*
X974552Y789812D01*
X971723Y789812D01*
X969108Y790895D01*
X967108Y792896D01*
X966025Y795510D01*
X966025Y798340D01*
X966131Y798596D01*
X966157Y798709D01*
X966186Y798823D01*
X966186Y798830D01*
X966187Y798836D01*
X966176Y798952D01*
X966167Y799069D01*
X966165Y799074D01*
X966164Y799081D01*
X966116Y799188D01*
X966071Y799295D01*
X966066Y799301D01*
X966064Y799305D01*
X966051Y799319D01*
X965966Y799426D01*
X959292Y806099D01*
X959218Y806152D01*
X959149Y806212D01*
X959119Y806224D01*
X959093Y806243D01*
X959006Y806270D01*
X958921Y806304D01*
X958880Y806308D01*
X958858Y806315D01*
X958825Y806314D01*
X958754Y806322D01*
X914686Y806322D01*
X914616Y806311D01*
X914544Y806309D01*
X914495Y806291D01*
X914444Y806283D01*
X914380Y806249D01*
X914313Y806224D01*
X914272Y806192D01*
X914226Y806167D01*
X914177Y806116D01*
X914121Y806071D01*
X914093Y806027D01*
X914057Y805989D01*
X914027Y805924D01*
X913988Y805864D01*
X913975Y805813D01*
X913953Y805766D01*
X913945Y805695D01*
X913928Y805625D01*
X913932Y805573D01*
X913926Y805522D01*
X913941Y805451D01*
X913947Y805380D01*
X913967Y805332D01*
X913978Y805281D01*
X914015Y805220D01*
X914043Y805154D01*
X914088Y805098D01*
X914105Y805070D01*
X914122Y805055D01*
X914148Y805023D01*
X919488Y799683D01*
X919504Y799671D01*
X919517Y799656D01*
X919604Y799599D01*
X919688Y799539D01*
X919707Y799533D01*
X919724Y799523D01*
X919824Y799497D01*
X919923Y799467D01*
X919943Y799467D01*
X919962Y799463D01*
X920065Y799471D01*
X920169Y799473D01*
X920187Y799480D01*
X920207Y799482D01*
X920302Y799522D01*
X920400Y799558D01*
X920415Y799570D01*
X920434Y799578D01*
X920565Y799683D01*
X922208Y801326D01*
X925382Y802641D01*
X928818Y802641D01*
X931992Y801326D01*
X934422Y798896D01*
X935737Y795722D01*
X935737Y779078D01*
X934422Y775904D01*
X931992Y773474D01*
X928818Y772159D01*
X925382Y772159D01*
X922208Y773474D01*
X919778Y775904D01*
X918463Y779078D01*
X918463Y791051D01*
X918449Y791141D01*
X918441Y791232D01*
X918429Y791261D01*
X918424Y791293D01*
X918381Y791374D01*
X918345Y791458D01*
X918319Y791490D01*
X918308Y791511D01*
X918285Y791533D01*
X918240Y791589D01*
X910377Y799453D01*
X910298Y799509D01*
X910223Y799571D01*
X910198Y799581D01*
X910177Y799596D01*
X910084Y799625D01*
X909993Y799660D01*
X909967Y799661D01*
X909942Y799668D01*
X909844Y799666D01*
X909747Y799670D01*
X909722Y799663D01*
X909696Y799662D01*
X909604Y799629D01*
X909511Y799602D01*
X909490Y799587D01*
X909465Y799578D01*
X909389Y799517D01*
X909309Y799461D01*
X909293Y799440D01*
X909273Y799424D01*
X909220Y799342D01*
X909162Y799264D01*
X909154Y799239D01*
X909140Y799217D01*
X909116Y799123D01*
X909086Y799030D01*
X909086Y799004D01*
X909080Y798979D01*
X909087Y798882D01*
X909088Y798784D01*
X909097Y798753D01*
X909099Y798733D01*
X909112Y798703D01*
X909135Y798623D01*
X910337Y795722D01*
X910337Y779078D01*
X909022Y775904D01*
X906592Y773474D01*
X903418Y772159D01*
X899982Y772159D01*
X896808Y773474D01*
X895165Y775117D01*
X895148Y775129D01*
X895136Y775144D01*
X895049Y775201D01*
X894965Y775261D01*
X894946Y775267D01*
X894929Y775277D01*
X894828Y775303D01*
X894730Y775333D01*
X894710Y775333D01*
X894690Y775337D01*
X894588Y775329D01*
X894484Y775327D01*
X894465Y775320D01*
X894445Y775318D01*
X894351Y775278D01*
X894253Y775242D01*
X894237Y775230D01*
X894219Y775222D01*
X894088Y775117D01*
X887763Y768792D01*
X885606Y766635D01*
X651787Y766635D01*
X651716Y766623D01*
X651645Y766621D01*
X651596Y766603D01*
X651544Y766595D01*
X651481Y766561D01*
X651414Y766537D01*
X651373Y766504D01*
X651327Y766480D01*
X651277Y766428D01*
X651221Y766383D01*
X651193Y766339D01*
X651157Y766302D01*
X651127Y766237D01*
X651088Y766176D01*
X651076Y766126D01*
X651054Y766079D01*
X651046Y766007D01*
X651028Y765938D01*
X651032Y765886D01*
X651027Y765834D01*
X651042Y765764D01*
X651048Y765693D01*
X651068Y765645D01*
X651079Y765594D01*
X651116Y765532D01*
X651144Y765466D01*
X651189Y765410D01*
X651205Y765383D01*
X651223Y765367D01*
X651249Y765335D01*
X652142Y764442D01*
X653225Y761827D01*
X653225Y758998D01*
X652142Y756383D01*
X650142Y754383D01*
X647527Y753300D01*
X644698Y753300D01*
X644441Y753406D01*
X644328Y753432D01*
X644214Y753461D01*
X644208Y753461D01*
X644202Y753462D01*
X644085Y753451D01*
X643969Y753442D01*
X643963Y753440D01*
X643957Y753439D01*
X643849Y753391D01*
X643743Y753346D01*
X643737Y753341D01*
X643732Y753339D01*
X643718Y753326D01*
X643612Y753241D01*
X628398Y738027D01*
X628356Y737969D01*
X628307Y737917D01*
X628285Y737870D01*
X628254Y737828D01*
X628233Y737759D01*
X628203Y737694D01*
X628197Y737642D01*
X628182Y737592D01*
X628184Y737521D01*
X628176Y737450D01*
X628187Y737399D01*
X628188Y737347D01*
X628213Y737279D01*
X628228Y737209D01*
X628255Y737165D01*
X628273Y737116D01*
X628318Y737060D01*
X628355Y736998D01*
X628394Y736964D01*
X628427Y736924D01*
X628487Y736885D01*
X628541Y736838D01*
X628590Y736819D01*
X628634Y736791D01*
X628703Y736773D01*
X628770Y736746D01*
X628841Y736738D01*
X628872Y736730D01*
X628895Y736732D01*
X628936Y736728D01*
X690485Y736728D01*
X690530Y736735D01*
X690576Y736733D01*
X690651Y736755D01*
X690727Y736767D01*
X690768Y736789D01*
X690812Y736802D01*
X690876Y736846D01*
X690945Y736883D01*
X690976Y736916D01*
X691014Y736942D01*
X691060Y737005D01*
X691114Y737061D01*
X691133Y737103D01*
X691161Y737139D01*
X691185Y737213D01*
X691218Y737284D01*
X691223Y737330D01*
X691237Y737373D01*
X691236Y737451D01*
X691245Y737528D01*
X691235Y737573D01*
X691235Y737619D01*
X691196Y737751D01*
X691192Y737769D01*
X691190Y737773D01*
X691188Y737780D01*
X689863Y740978D01*
X689863Y757622D01*
X691178Y760796D01*
X693608Y763226D01*
X696782Y764541D01*
X700218Y764541D01*
X703392Y763226D01*
X705822Y760796D01*
X707137Y757622D01*
X707137Y740978D01*
X705822Y737804D01*
X704458Y736440D01*
X704416Y736382D01*
X704367Y736330D01*
X704345Y736282D01*
X704314Y736240D01*
X704293Y736172D01*
X704263Y736106D01*
X704257Y736055D01*
X704242Y736005D01*
X704244Y735933D01*
X704236Y735862D01*
X704247Y735811D01*
X704248Y735759D01*
X704273Y735692D01*
X704288Y735622D01*
X704315Y735577D01*
X704333Y735528D01*
X704378Y735472D01*
X704414Y735411D01*
X704454Y735377D01*
X704487Y735336D01*
X704547Y735297D01*
X704601Y735251D01*
X704650Y735231D01*
X704693Y735203D01*
X704763Y735186D01*
X704830Y735159D01*
X704901Y735151D01*
X704932Y735143D01*
X704955Y735145D01*
X704996Y735140D01*
X717404Y735140D01*
X717474Y735152D01*
X717546Y735154D01*
X717595Y735172D01*
X717647Y735180D01*
X717710Y735214D01*
X717777Y735238D01*
X717818Y735271D01*
X717864Y735295D01*
X717913Y735347D01*
X717969Y735392D01*
X717997Y735436D01*
X718033Y735473D01*
X718063Y735538D01*
X718102Y735599D01*
X718115Y735649D01*
X718137Y735696D01*
X718145Y735768D01*
X718162Y735837D01*
X718158Y735889D01*
X718164Y735941D01*
X718149Y736011D01*
X718143Y736082D01*
X718123Y736130D01*
X718112Y736181D01*
X718075Y736243D01*
X718047Y736309D01*
X718002Y736365D01*
X717986Y736392D01*
X717968Y736408D01*
X717942Y736440D01*
X716578Y737804D01*
X715263Y740978D01*
X715263Y757622D01*
X716578Y760796D01*
X719008Y763226D01*
X722182Y764541D01*
X725618Y764541D01*
X728792Y763226D01*
X731222Y760796D01*
X732537Y757622D01*
X732537Y740978D01*
X731222Y737804D01*
X729858Y736440D01*
X729816Y736382D01*
X729767Y736330D01*
X729745Y736282D01*
X729714Y736240D01*
X729693Y736172D01*
X729663Y736106D01*
X729657Y736055D01*
X729642Y736005D01*
X729644Y735933D01*
X729636Y735862D01*
X729647Y735811D01*
X729648Y735759D01*
X729673Y735692D01*
X729688Y735622D01*
X729715Y735577D01*
X729733Y735528D01*
X729778Y735472D01*
X729814Y735411D01*
X729854Y735377D01*
X729887Y735336D01*
X729947Y735297D01*
X730001Y735251D01*
X730050Y735231D01*
X730093Y735203D01*
X730163Y735186D01*
X730230Y735159D01*
X730301Y735151D01*
X730332Y735143D01*
X730355Y735145D01*
X730396Y735140D01*
X742804Y735140D01*
X742874Y735152D01*
X742946Y735154D01*
X742995Y735172D01*
X743047Y735180D01*
X743110Y735214D01*
X743177Y735238D01*
X743218Y735271D01*
X743264Y735295D01*
X743313Y735347D01*
X743369Y735392D01*
X743397Y735436D01*
X743433Y735473D01*
X743463Y735538D01*
X743502Y735599D01*
X743515Y735649D01*
X743537Y735696D01*
X743545Y735768D01*
X743562Y735837D01*
X743558Y735889D01*
X743564Y735941D01*
X743549Y736011D01*
X743543Y736082D01*
X743523Y736130D01*
X743512Y736181D01*
X743475Y736243D01*
X743447Y736309D01*
X743402Y736365D01*
X743386Y736392D01*
X743368Y736408D01*
X743342Y736440D01*
X741978Y737804D01*
X740663Y740978D01*
X740663Y757622D01*
X741978Y760796D01*
X744408Y763226D01*
X747582Y764541D01*
X751018Y764541D01*
X754192Y763226D01*
X756622Y760796D01*
X757937Y757622D01*
X757937Y740978D01*
X756622Y737804D01*
X755258Y736440D01*
X755216Y736382D01*
X755167Y736330D01*
X755145Y736282D01*
X755114Y736240D01*
X755093Y736172D01*
X755063Y736106D01*
X755057Y736055D01*
X755042Y736005D01*
X755044Y735933D01*
X755036Y735862D01*
X755047Y735811D01*
X755048Y735759D01*
X755073Y735692D01*
X755088Y735622D01*
X755115Y735577D01*
X755133Y735528D01*
X755178Y735472D01*
X755214Y735411D01*
X755254Y735377D01*
X755287Y735336D01*
X755347Y735297D01*
X755401Y735251D01*
X755450Y735231D01*
X755493Y735203D01*
X755563Y735186D01*
X755630Y735159D01*
X755701Y735151D01*
X755732Y735143D01*
X755755Y735145D01*
X755796Y735140D01*
X768204Y735140D01*
X768274Y735152D01*
X768346Y735154D01*
X768395Y735172D01*
X768447Y735180D01*
X768510Y735214D01*
X768577Y735238D01*
X768618Y735271D01*
X768664Y735295D01*
X768713Y735347D01*
X768769Y735392D01*
X768797Y735436D01*
X768833Y735473D01*
X768863Y735538D01*
X768902Y735599D01*
X768915Y735649D01*
X768937Y735696D01*
X768945Y735768D01*
X768962Y735837D01*
X768958Y735889D01*
X768964Y735941D01*
X768949Y736011D01*
X768943Y736082D01*
X768923Y736130D01*
X768912Y736181D01*
X768875Y736243D01*
X768847Y736309D01*
X768802Y736365D01*
X768786Y736392D01*
X768768Y736408D01*
X768742Y736440D01*
X767378Y737804D01*
X766063Y740978D01*
X766063Y757622D01*
X767378Y760796D01*
X769808Y763226D01*
X772982Y764541D01*
X776418Y764541D01*
X779592Y763226D01*
X782022Y760796D01*
X783337Y757622D01*
X783337Y740978D01*
X782022Y737804D01*
X780658Y736440D01*
X780616Y736382D01*
X780567Y736330D01*
X780545Y736282D01*
X780514Y736240D01*
X780493Y736172D01*
X780463Y736106D01*
X780457Y736055D01*
X780442Y736005D01*
X780444Y735933D01*
X780436Y735862D01*
X780447Y735811D01*
X780448Y735759D01*
X780473Y735692D01*
X780488Y735622D01*
X780515Y735577D01*
X780533Y735528D01*
X780578Y735472D01*
X780614Y735411D01*
X780654Y735377D01*
X780687Y735336D01*
X780747Y735297D01*
X780801Y735251D01*
X780850Y735231D01*
X780893Y735203D01*
X780963Y735186D01*
X781030Y735159D01*
X781101Y735151D01*
X781132Y735143D01*
X781155Y735145D01*
X781196Y735140D01*
X793604Y735140D01*
X793674Y735152D01*
X793746Y735154D01*
X793795Y735172D01*
X793847Y735180D01*
X793910Y735214D01*
X793977Y735238D01*
X794018Y735271D01*
X794064Y735295D01*
X794113Y735347D01*
X794169Y735392D01*
X794197Y735436D01*
X794233Y735473D01*
X794263Y735538D01*
X794302Y735599D01*
X794315Y735649D01*
X794337Y735696D01*
X794345Y735768D01*
X794362Y735837D01*
X794358Y735889D01*
X794364Y735941D01*
X794349Y736011D01*
X794343Y736082D01*
X794323Y736130D01*
X794312Y736181D01*
X794275Y736243D01*
X794247Y736309D01*
X794202Y736365D01*
X794186Y736392D01*
X794168Y736408D01*
X794142Y736440D01*
X792778Y737804D01*
X791463Y740978D01*
X791463Y757622D01*
X792778Y760796D01*
X795208Y763226D01*
X798382Y764541D01*
X801818Y764541D01*
X804992Y763226D01*
X807422Y760796D01*
X808737Y757622D01*
X808737Y740978D01*
X807422Y737804D01*
X806058Y736440D01*
X806016Y736382D01*
X805967Y736330D01*
X805945Y736282D01*
X805914Y736240D01*
X805893Y736172D01*
X805863Y736106D01*
X805857Y736055D01*
X805842Y736005D01*
X805844Y735933D01*
X805836Y735862D01*
X805847Y735811D01*
X805848Y735759D01*
X805873Y735692D01*
X805888Y735622D01*
X805915Y735577D01*
X805933Y735528D01*
X805978Y735472D01*
X806014Y735411D01*
X806054Y735377D01*
X806087Y735336D01*
X806147Y735297D01*
X806201Y735251D01*
X806250Y735231D01*
X806293Y735203D01*
X806363Y735186D01*
X806430Y735159D01*
X806501Y735151D01*
X806532Y735143D01*
X806555Y735145D01*
X806596Y735140D01*
X819004Y735140D01*
X819074Y735152D01*
X819146Y735154D01*
X819195Y735172D01*
X819247Y735180D01*
X819310Y735214D01*
X819377Y735238D01*
X819418Y735271D01*
X819464Y735295D01*
X819513Y735347D01*
X819569Y735392D01*
X819597Y735436D01*
X819633Y735473D01*
X819663Y735538D01*
X819702Y735599D01*
X819715Y735649D01*
X819737Y735696D01*
X819745Y735768D01*
X819762Y735837D01*
X819758Y735889D01*
X819764Y735941D01*
X819749Y736011D01*
X819743Y736082D01*
X819723Y736130D01*
X819712Y736181D01*
X819675Y736243D01*
X819647Y736309D01*
X819602Y736365D01*
X819586Y736392D01*
X819568Y736408D01*
X819542Y736440D01*
X818178Y737804D01*
X816863Y740978D01*
X816863Y757622D01*
X818178Y760796D01*
X820608Y763226D01*
X823782Y764541D01*
X827218Y764541D01*
X830392Y763226D01*
X832822Y760796D01*
X834137Y757622D01*
X834137Y740978D01*
X832935Y738077D01*
X832913Y737982D01*
X832884Y737889D01*
X832885Y737863D01*
X832879Y737838D01*
X832888Y737741D01*
X832891Y737643D01*
X832900Y737619D01*
X832902Y737593D01*
X832942Y737504D01*
X832975Y737412D01*
X832991Y737392D01*
X833002Y737368D01*
X833068Y737296D01*
X833129Y737220D01*
X833151Y737206D01*
X833168Y737187D01*
X833254Y737140D01*
X833336Y737087D01*
X833361Y737081D01*
X833384Y737068D01*
X833480Y737051D01*
X833574Y737027D01*
X833600Y737029D01*
X833626Y737025D01*
X833723Y737039D01*
X833819Y737046D01*
X833843Y737057D01*
X833869Y737060D01*
X833956Y737105D01*
X834046Y737143D01*
X834071Y737163D01*
X834089Y737172D01*
X834112Y737196D01*
X834177Y737247D01*
X842040Y745111D01*
X842093Y745185D01*
X842153Y745254D01*
X842165Y745285D01*
X842184Y745311D01*
X842211Y745398D01*
X842245Y745483D01*
X842249Y745524D01*
X842256Y745546D01*
X842255Y745578D01*
X842263Y745649D01*
X842263Y757622D01*
X843578Y760796D01*
X846008Y763226D01*
X849182Y764541D01*
X852618Y764541D01*
X855792Y763226D01*
X858222Y760796D01*
X859537Y757622D01*
X859537Y740978D01*
X858222Y737804D01*
X855792Y735374D01*
X852618Y734059D01*
X849182Y734059D01*
X846008Y735374D01*
X844365Y737017D01*
X844348Y737029D01*
X844336Y737044D01*
X844249Y737101D01*
X844165Y737161D01*
X844146Y737167D01*
X844129Y737177D01*
X844028Y737203D01*
X843930Y737233D01*
X843910Y737233D01*
X843890Y737237D01*
X843788Y737229D01*
X843684Y737227D01*
X843665Y737220D01*
X843645Y737218D01*
X843551Y737178D01*
X843453Y737142D01*
X843437Y737130D01*
X843419Y737122D01*
X843288Y737017D01*
X834773Y728502D01*
X834731Y728444D01*
X834682Y728392D01*
X834660Y728345D01*
X834629Y728303D01*
X834608Y728234D01*
X834578Y728169D01*
X834572Y728117D01*
X834557Y728067D01*
X834559Y727996D01*
X834551Y727925D01*
X834562Y727874D01*
X834563Y727822D01*
X834588Y727754D01*
X834603Y727684D01*
X834630Y727640D01*
X834648Y727591D01*
X834693Y727535D01*
X834730Y727473D01*
X834769Y727439D01*
X834802Y727399D01*
X834862Y727360D01*
X834916Y727313D01*
X834965Y727294D01*
X835009Y727266D01*
X835078Y727248D01*
X835145Y727221D01*
X835216Y727213D01*
X835247Y727205D01*
X835270Y727207D01*
X835311Y727203D01*
X1075436Y727203D01*
X1075456Y727206D01*
X1075475Y727204D01*
X1075577Y727226D01*
X1075679Y727242D01*
X1075696Y727252D01*
X1075716Y727256D01*
X1075805Y727309D01*
X1075896Y727358D01*
X1075910Y727372D01*
X1075927Y727382D01*
X1075994Y727461D01*
X1076066Y727536D01*
X1076074Y727554D01*
X1076087Y727569D01*
X1076126Y727665D01*
X1076169Y727759D01*
X1076171Y727779D01*
X1076179Y727797D01*
X1076197Y727964D01*
X1076197Y768879D01*
X1076179Y768994D01*
X1076161Y769110D01*
X1076159Y769116D01*
X1076158Y769122D01*
X1076103Y769225D01*
X1076050Y769330D01*
X1076045Y769334D01*
X1076042Y769340D01*
X1075958Y769419D01*
X1075874Y769502D01*
X1075868Y769506D01*
X1075864Y769509D01*
X1075847Y769517D01*
X1075727Y769583D01*
X1073675Y770433D01*
X1070783Y773325D01*
X1069217Y777105D01*
X1069217Y797695D01*
X1070783Y801475D01*
X1073675Y804367D01*
X1077455Y805933D01*
X1081545Y805933D01*
X1085325Y804367D01*
X1088217Y801475D01*
X1089783Y797695D01*
X1089783Y777105D01*
X1088217Y773325D01*
X1085325Y770433D01*
X1083273Y769583D01*
X1083173Y769521D01*
X1083073Y769461D01*
X1083069Y769457D01*
X1083064Y769453D01*
X1082989Y769363D01*
X1082913Y769274D01*
X1082911Y769268D01*
X1082907Y769264D01*
X1082865Y769155D01*
X1082821Y769046D01*
X1082820Y769039D01*
X1082819Y769034D01*
X1082818Y769016D01*
X1082803Y768879D01*
X1082803Y723900D01*
X1082806Y723880D01*
X1082804Y723861D01*
X1082826Y723759D01*
X1082842Y723657D01*
X1082852Y723640D01*
X1082856Y723620D01*
X1082909Y723531D01*
X1082958Y723440D01*
X1082972Y723426D01*
X1082982Y723409D01*
X1083061Y723342D01*
X1083136Y723271D01*
X1083154Y723262D01*
X1083169Y723249D01*
X1083265Y723210D01*
X1083359Y723167D01*
X1083379Y723165D01*
X1083397Y723157D01*
X1083564Y723139D01*
X1100836Y723139D01*
X1100856Y723142D01*
G37*
G36*
X467938Y741509D02*
X467938Y741509D01*
X468054Y741526D01*
X468060Y741529D01*
X468066Y741530D01*
X468169Y741584D01*
X468273Y741638D01*
X468278Y741642D01*
X468283Y741645D01*
X468364Y741730D01*
X468446Y741813D01*
X468449Y741820D01*
X468453Y741823D01*
X468461Y741840D01*
X468526Y741960D01*
X468633Y742217D01*
X470633Y744217D01*
X473248Y745300D01*
X476093Y745300D01*
X476109Y745293D01*
X476186Y745285D01*
X476262Y745267D01*
X476307Y745271D01*
X476353Y745266D01*
X476429Y745283D01*
X476506Y745290D01*
X476548Y745309D01*
X476593Y745318D01*
X476660Y745358D01*
X476731Y745390D01*
X476765Y745421D01*
X476804Y745445D01*
X476855Y745504D01*
X476912Y745556D01*
X476934Y745597D01*
X476964Y745631D01*
X476993Y745704D01*
X477031Y745772D01*
X477039Y745817D01*
X477056Y745860D01*
X477071Y745995D01*
X477075Y746014D01*
X477074Y746019D01*
X477075Y746026D01*
X477075Y747540D01*
X477181Y747796D01*
X477207Y747909D01*
X477236Y748023D01*
X477236Y748030D01*
X477237Y748036D01*
X477226Y748152D01*
X477217Y748269D01*
X477215Y748274D01*
X477214Y748281D01*
X477166Y748388D01*
X477121Y748495D01*
X477116Y748501D01*
X477114Y748505D01*
X477101Y748519D01*
X477016Y748626D01*
X468755Y756887D01*
X468681Y756940D01*
X468612Y756999D01*
X468581Y757012D01*
X468555Y757030D01*
X468468Y757057D01*
X468383Y757091D01*
X468342Y757096D01*
X468320Y757103D01*
X468288Y757102D01*
X468217Y757110D01*
X379782Y757110D01*
X379692Y757095D01*
X379601Y757088D01*
X379571Y757075D01*
X379539Y757070D01*
X379459Y757027D01*
X379375Y756992D01*
X379343Y756966D01*
X379322Y756955D01*
X379300Y756932D01*
X379244Y756887D01*
X376247Y753890D01*
X372233Y752227D01*
X367887Y752227D01*
X363873Y753890D01*
X360800Y756963D01*
X359137Y760977D01*
X359137Y765323D01*
X360215Y767925D01*
X360242Y768038D01*
X360270Y768152D01*
X360270Y768158D01*
X360271Y768164D01*
X360260Y768281D01*
X360251Y768397D01*
X360249Y768403D01*
X360248Y768409D01*
X360200Y768517D01*
X360155Y768623D01*
X360150Y768629D01*
X360148Y768634D01*
X360135Y768647D01*
X360050Y768754D01*
X356042Y772762D01*
X355968Y772815D01*
X355899Y772874D01*
X355869Y772886D01*
X355843Y772905D01*
X355756Y772932D01*
X355671Y772966D01*
X355630Y772971D01*
X355608Y772978D01*
X355575Y772977D01*
X355504Y772985D01*
X352829Y772985D01*
X352758Y772973D01*
X352686Y772971D01*
X352637Y772953D01*
X352586Y772945D01*
X352522Y772911D01*
X352455Y772887D01*
X352414Y772854D01*
X352368Y772830D01*
X352319Y772778D01*
X352263Y772733D01*
X352235Y772689D01*
X352199Y772652D01*
X352169Y772587D01*
X352130Y772526D01*
X352117Y772476D01*
X352095Y772429D01*
X352087Y772357D01*
X352070Y772288D01*
X352074Y772236D01*
X352068Y772184D01*
X352084Y772114D01*
X352089Y772043D01*
X352109Y771995D01*
X352121Y771944D01*
X352157Y771882D01*
X352185Y771816D01*
X352230Y771760D01*
X352247Y771733D01*
X352265Y771717D01*
X352290Y771685D01*
X353379Y770597D01*
X354436Y769141D01*
X355253Y767538D01*
X355809Y765827D01*
X355992Y764673D01*
X345422Y764673D01*
X345402Y764670D01*
X345383Y764672D01*
X345281Y764650D01*
X345179Y764633D01*
X345162Y764624D01*
X345142Y764620D01*
X345053Y764567D01*
X344962Y764518D01*
X344948Y764504D01*
X344931Y764494D01*
X344864Y764415D01*
X344793Y764340D01*
X344784Y764322D01*
X344771Y764307D01*
X344733Y764211D01*
X344689Y764117D01*
X344687Y764097D01*
X344679Y764079D01*
X344661Y763912D01*
X344661Y763149D01*
X344659Y763149D01*
X344659Y763912D01*
X344656Y763932D01*
X344658Y763951D01*
X344636Y764053D01*
X344619Y764155D01*
X344610Y764172D01*
X344606Y764192D01*
X344553Y764281D01*
X344504Y764372D01*
X344490Y764386D01*
X344480Y764403D01*
X344401Y764470D01*
X344326Y764541D01*
X344308Y764550D01*
X344293Y764563D01*
X344197Y764602D01*
X344103Y764645D01*
X344083Y764647D01*
X344065Y764655D01*
X343898Y764673D01*
X333328Y764673D01*
X333511Y765827D01*
X334067Y767538D01*
X334884Y769141D01*
X335941Y770597D01*
X337030Y771685D01*
X337072Y771743D01*
X337121Y771795D01*
X337143Y771843D01*
X337173Y771885D01*
X337194Y771953D01*
X337225Y772019D01*
X337230Y772070D01*
X337246Y772120D01*
X337244Y772192D01*
X337252Y772263D01*
X337241Y772314D01*
X337239Y772366D01*
X337215Y772433D01*
X337199Y772503D01*
X337173Y772548D01*
X337155Y772597D01*
X337110Y772653D01*
X337073Y772714D01*
X337034Y772748D01*
X337001Y772789D01*
X336941Y772828D01*
X336886Y772874D01*
X336838Y772894D01*
X336794Y772922D01*
X336725Y772939D01*
X336658Y772966D01*
X336587Y772974D01*
X336556Y772982D01*
X336532Y772980D01*
X336491Y772985D01*
X145671Y772985D01*
X145663Y772983D01*
X145655Y772985D01*
X145541Y772964D01*
X145428Y772945D01*
X145421Y772941D01*
X145413Y772940D01*
X145312Y772884D01*
X145211Y772830D01*
X145205Y772824D01*
X145198Y772820D01*
X145120Y772735D01*
X145041Y772652D01*
X145038Y772644D01*
X145032Y772638D01*
X144986Y772533D01*
X144938Y772429D01*
X144937Y772421D01*
X144934Y772413D01*
X144923Y772298D01*
X144911Y772184D01*
X144912Y772176D01*
X144911Y772168D01*
X144938Y772056D01*
X144963Y771944D01*
X144967Y771937D01*
X144969Y771929D01*
X145030Y771831D01*
X145089Y771733D01*
X145095Y771727D01*
X145099Y771721D01*
X145223Y771608D01*
X146447Y770719D01*
X147719Y769447D01*
X148776Y767991D01*
X149593Y766388D01*
X150149Y764677D01*
X150332Y763523D01*
X139762Y763523D01*
X139742Y763520D01*
X139723Y763522D01*
X139621Y763500D01*
X139519Y763483D01*
X139502Y763474D01*
X139482Y763470D01*
X139393Y763417D01*
X139302Y763368D01*
X139288Y763354D01*
X139271Y763344D01*
X139204Y763265D01*
X139133Y763190D01*
X139124Y763172D01*
X139111Y763157D01*
X139073Y763061D01*
X139029Y762967D01*
X139027Y762947D01*
X139019Y762929D01*
X139001Y762762D01*
X139001Y761238D01*
X139004Y761218D01*
X139002Y761199D01*
X139024Y761097D01*
X139041Y760995D01*
X139050Y760978D01*
X139054Y760958D01*
X139107Y760869D01*
X139156Y760778D01*
X139170Y760764D01*
X139180Y760747D01*
X139259Y760680D01*
X139334Y760609D01*
X139352Y760600D01*
X139367Y760587D01*
X139463Y760548D01*
X139557Y760505D01*
X139577Y760503D01*
X139595Y760495D01*
X139762Y760477D01*
X150332Y760477D01*
X150149Y759323D01*
X149593Y757612D01*
X148776Y756009D01*
X147719Y754553D01*
X147068Y753902D01*
X147026Y753844D01*
X146977Y753792D01*
X146955Y753745D01*
X146924Y753703D01*
X146903Y753634D01*
X146873Y753569D01*
X146867Y753517D01*
X146852Y753467D01*
X146854Y753396D01*
X146846Y753325D01*
X146857Y753274D01*
X146858Y753222D01*
X146883Y753154D01*
X146898Y753084D01*
X146925Y753039D01*
X146943Y752991D01*
X146988Y752935D01*
X147024Y752873D01*
X147064Y752839D01*
X147096Y752799D01*
X147157Y752760D01*
X147211Y752713D01*
X147259Y752694D01*
X147303Y752666D01*
X147373Y752648D01*
X147439Y752621D01*
X147511Y752613D01*
X147542Y752605D01*
X147565Y752607D01*
X147606Y752603D01*
X336454Y752603D01*
X336544Y752617D01*
X336635Y752625D01*
X336665Y752637D01*
X336697Y752642D01*
X336778Y752685D01*
X336861Y752721D01*
X336894Y752747D01*
X336914Y752758D01*
X336936Y752781D01*
X336992Y752826D01*
X337385Y753218D01*
X337431Y753283D01*
X337485Y753342D01*
X337503Y753382D01*
X337529Y753418D01*
X337552Y753494D01*
X337584Y753567D01*
X337588Y753611D01*
X337601Y753653D01*
X337599Y753733D01*
X337606Y753812D01*
X337596Y753855D01*
X337595Y753899D01*
X337567Y753974D01*
X337549Y754051D01*
X337525Y754088D01*
X337510Y754130D01*
X337460Y754192D01*
X337418Y754260D01*
X337375Y754299D01*
X337356Y754322D01*
X337333Y754337D01*
X337294Y754372D01*
X337213Y754431D01*
X335941Y755703D01*
X334884Y757159D01*
X334067Y758762D01*
X333511Y760473D01*
X333328Y761627D01*
X343137Y761627D01*
X343137Y754951D01*
X343140Y754932D01*
X343138Y754912D01*
X343160Y754811D01*
X343177Y754709D01*
X343186Y754691D01*
X343190Y754672D01*
X343243Y754583D01*
X343292Y754491D01*
X343306Y754478D01*
X343316Y754461D01*
X343395Y754393D01*
X343470Y754322D01*
X343488Y754314D01*
X343503Y754301D01*
X343599Y754262D01*
X343693Y754218D01*
X343713Y754216D01*
X343731Y754209D01*
X343898Y754190D01*
X345422Y754190D01*
X345442Y754193D01*
X345461Y754191D01*
X345563Y754213D01*
X345665Y754230D01*
X345682Y754239D01*
X345702Y754244D01*
X345791Y754297D01*
X345882Y754345D01*
X345896Y754359D01*
X345913Y754370D01*
X345980Y754448D01*
X346051Y754523D01*
X346060Y754541D01*
X346073Y754557D01*
X346112Y754653D01*
X346155Y754746D01*
X346157Y754766D01*
X346165Y754785D01*
X346183Y754951D01*
X346183Y761627D01*
X355992Y761627D01*
X355809Y760473D01*
X355253Y758762D01*
X354436Y757159D01*
X353379Y755703D01*
X353165Y755490D01*
X353123Y755432D01*
X353074Y755380D01*
X353052Y755332D01*
X353022Y755290D01*
X353001Y755221D01*
X352970Y755156D01*
X352965Y755105D01*
X352949Y755055D01*
X352951Y754983D01*
X352943Y754912D01*
X352954Y754861D01*
X352956Y754809D01*
X352980Y754742D01*
X352996Y754672D01*
X353022Y754627D01*
X353040Y754578D01*
X353085Y754522D01*
X353122Y754461D01*
X353161Y754427D01*
X353194Y754386D01*
X353254Y754347D01*
X353309Y754301D01*
X353357Y754281D01*
X353401Y754253D01*
X353470Y754236D01*
X353537Y754209D01*
X353608Y754201D01*
X353639Y754193D01*
X353663Y754195D01*
X353704Y754190D01*
X358556Y754190D01*
X364831Y747915D01*
X364926Y747847D01*
X365019Y747777D01*
X365025Y747775D01*
X365030Y747772D01*
X365142Y747737D01*
X365253Y747701D01*
X365259Y747701D01*
X365265Y747699D01*
X365382Y747702D01*
X365499Y747703D01*
X365506Y747706D01*
X365511Y747706D01*
X365529Y747712D01*
X365660Y747750D01*
X367887Y748673D01*
X372233Y748673D01*
X376247Y747010D01*
X379320Y743937D01*
X380139Y741960D01*
X380200Y741861D01*
X380260Y741761D01*
X380265Y741756D01*
X380268Y741751D01*
X380358Y741677D01*
X380447Y741601D01*
X380453Y741598D01*
X380458Y741594D01*
X380566Y741553D01*
X380675Y741509D01*
X380683Y741508D01*
X380687Y741506D01*
X380706Y741505D01*
X380842Y741490D01*
X467823Y741490D01*
X467938Y741509D01*
G37*
G36*
X473069Y860567D02*
X473069Y860567D01*
X473160Y860575D01*
X473190Y860587D01*
X473222Y860592D01*
X473303Y860635D01*
X473386Y860671D01*
X473419Y860697D01*
X473439Y860708D01*
X473461Y860731D01*
X473517Y860776D01*
X478816Y866075D01*
X478828Y866091D01*
X478843Y866103D01*
X478900Y866190D01*
X478960Y866274D01*
X478966Y866293D01*
X478976Y866310D01*
X479002Y866411D01*
X479032Y866509D01*
X479032Y866529D01*
X479037Y866549D01*
X479029Y866652D01*
X479026Y866755D01*
X479019Y866774D01*
X479017Y866794D01*
X478977Y866889D01*
X478941Y866986D01*
X478929Y867002D01*
X478921Y867020D01*
X478816Y867151D01*
X473455Y872512D01*
X473455Y874777D01*
X481838Y874777D01*
X481858Y874780D01*
X481877Y874778D01*
X481979Y874800D01*
X482081Y874817D01*
X482098Y874826D01*
X482118Y874830D01*
X482207Y874883D01*
X482298Y874932D01*
X482312Y874946D01*
X482329Y874956D01*
X482396Y875035D01*
X482467Y875110D01*
X482476Y875128D01*
X482489Y875143D01*
X482527Y875239D01*
X482571Y875333D01*
X482573Y875353D01*
X482581Y875371D01*
X482599Y875538D01*
X482599Y876301D01*
X482601Y876301D01*
X482601Y875538D01*
X482604Y875518D01*
X482602Y875499D01*
X482624Y875397D01*
X482641Y875295D01*
X482650Y875278D01*
X482654Y875258D01*
X482707Y875169D01*
X482756Y875078D01*
X482770Y875064D01*
X482780Y875047D01*
X482859Y874980D01*
X482934Y874909D01*
X482952Y874900D01*
X482967Y874887D01*
X483063Y874848D01*
X483157Y874805D01*
X483177Y874803D01*
X483195Y874795D01*
X483362Y874777D01*
X491745Y874777D01*
X491745Y874491D01*
X491756Y874420D01*
X491758Y874348D01*
X491776Y874299D01*
X491784Y874248D01*
X491818Y874185D01*
X491843Y874117D01*
X491875Y874077D01*
X491900Y874031D01*
X491952Y873981D01*
X491996Y873925D01*
X492040Y873897D01*
X492078Y873861D01*
X492143Y873831D01*
X492203Y873792D01*
X492254Y873780D01*
X492301Y873758D01*
X492372Y873750D01*
X492442Y873732D01*
X492494Y873736D01*
X492545Y873731D01*
X492616Y873746D01*
X492687Y873751D01*
X492735Y873772D01*
X492786Y873783D01*
X492847Y873820D01*
X492913Y873848D01*
X492969Y873892D01*
X492997Y873909D01*
X493012Y873927D01*
X493044Y873953D01*
X501299Y882208D01*
X503457Y884365D01*
X835069Y884365D01*
X835140Y884377D01*
X835211Y884379D01*
X835260Y884397D01*
X835312Y884405D01*
X835375Y884438D01*
X835442Y884463D01*
X835483Y884496D01*
X835529Y884520D01*
X835578Y884572D01*
X835634Y884617D01*
X835663Y884661D01*
X835698Y884698D01*
X835729Y884764D01*
X835767Y884824D01*
X835780Y884874D01*
X835802Y884921D01*
X835810Y884993D01*
X835827Y885062D01*
X835823Y885114D01*
X835829Y885166D01*
X835814Y885236D01*
X835808Y885308D01*
X835788Y885355D01*
X835777Y885406D01*
X835740Y885468D01*
X835712Y885534D01*
X835667Y885590D01*
X835651Y885617D01*
X835633Y885633D01*
X835607Y885665D01*
X835373Y885899D01*
X794997Y926275D01*
X794980Y926287D01*
X794968Y926303D01*
X794881Y926359D01*
X794797Y926419D01*
X794778Y926425D01*
X794761Y926436D01*
X794661Y926461D01*
X794562Y926491D01*
X794542Y926491D01*
X794523Y926496D01*
X794420Y926488D01*
X794316Y926485D01*
X794297Y926478D01*
X794277Y926477D01*
X794182Y926436D01*
X794085Y926401D01*
X794069Y926388D01*
X794051Y926380D01*
X793920Y926275D01*
X792580Y924935D01*
X789219Y923543D01*
X785581Y923543D01*
X782220Y924935D01*
X780086Y927069D01*
X780070Y927081D01*
X780058Y927096D01*
X779970Y927152D01*
X779887Y927213D01*
X779868Y927219D01*
X779851Y927229D01*
X779750Y927255D01*
X779651Y927285D01*
X779631Y927285D01*
X779612Y927289D01*
X779509Y927281D01*
X779406Y927279D01*
X779387Y927272D01*
X779367Y927270D01*
X779272Y927230D01*
X779175Y927194D01*
X779159Y927182D01*
X779141Y927174D01*
X779010Y927069D01*
X741511Y889571D01*
X481477Y889571D01*
X481387Y889556D01*
X481296Y889549D01*
X481266Y889536D01*
X481234Y889531D01*
X481153Y889488D01*
X481069Y889453D01*
X481037Y889427D01*
X481016Y889416D01*
X480994Y889393D01*
X480938Y889348D01*
X478335Y886744D01*
X478293Y886686D01*
X478244Y886634D01*
X478222Y886587D01*
X478191Y886545D01*
X478170Y886476D01*
X478140Y886411D01*
X478134Y886359D01*
X478119Y886309D01*
X478121Y886238D01*
X478113Y886167D01*
X478124Y886116D01*
X478125Y886064D01*
X478150Y885996D01*
X478165Y885926D01*
X478192Y885881D01*
X478210Y885833D01*
X478255Y885777D01*
X478291Y885715D01*
X478331Y885681D01*
X478363Y885641D01*
X478424Y885602D01*
X478478Y885555D01*
X478527Y885536D01*
X478570Y885508D01*
X478640Y885490D01*
X478706Y885463D01*
X478778Y885455D01*
X478809Y885447D01*
X478832Y885449D01*
X478873Y885445D01*
X481077Y885445D01*
X481077Y877823D01*
X473455Y877823D01*
X473455Y880027D01*
X473444Y880098D01*
X473442Y880169D01*
X473424Y880218D01*
X473416Y880270D01*
X473382Y880333D01*
X473357Y880400D01*
X473325Y880441D01*
X473300Y880487D01*
X473248Y880536D01*
X473204Y880592D01*
X473160Y880621D01*
X473122Y880656D01*
X473057Y880687D01*
X472997Y880725D01*
X472946Y880738D01*
X472899Y880760D01*
X472828Y880768D01*
X472758Y880785D01*
X472706Y880781D01*
X472655Y880787D01*
X472584Y880772D01*
X472513Y880766D01*
X472465Y880746D01*
X472414Y880735D01*
X472353Y880698D01*
X472287Y880670D01*
X472231Y880625D01*
X472203Y880609D01*
X472188Y880591D01*
X472156Y880565D01*
X459773Y868183D01*
X459720Y868109D01*
X459661Y868039D01*
X459648Y868009D01*
X459630Y867983D01*
X459603Y867896D01*
X459569Y867811D01*
X459564Y867770D01*
X459557Y867748D01*
X459558Y867716D01*
X459550Y867644D01*
X459550Y865360D01*
X458467Y862746D01*
X457574Y861852D01*
X457532Y861794D01*
X457482Y861742D01*
X457461Y861695D01*
X457430Y861653D01*
X457409Y861584D01*
X457379Y861519D01*
X457373Y861467D01*
X457358Y861417D01*
X457360Y861346D01*
X457352Y861275D01*
X457363Y861224D01*
X457364Y861172D01*
X457389Y861104D01*
X457404Y861034D01*
X457431Y860989D01*
X457449Y860941D01*
X457493Y860885D01*
X457530Y860823D01*
X457570Y860789D01*
X457602Y860749D01*
X457663Y860710D01*
X457717Y860663D01*
X457765Y860644D01*
X457809Y860616D01*
X457879Y860598D01*
X457945Y860571D01*
X458017Y860563D01*
X458048Y860555D01*
X458071Y860557D01*
X458112Y860553D01*
X472979Y860553D01*
X473069Y860567D01*
G37*
%LPC*%
G36*
X1043160Y880300D02*
X1043160Y880300D01*
X1040546Y881383D01*
X1038545Y883383D01*
X1037462Y885998D01*
X1037462Y888827D01*
X1038545Y891442D01*
X1040546Y893442D01*
X1043160Y894525D01*
X1045990Y894525D01*
X1048604Y893442D01*
X1050605Y891442D01*
X1050711Y891185D01*
X1050772Y891086D01*
X1050833Y890986D01*
X1050837Y890981D01*
X1050841Y890976D01*
X1050930Y890902D01*
X1051019Y890826D01*
X1051025Y890823D01*
X1051030Y890819D01*
X1051138Y890778D01*
X1051248Y890734D01*
X1051255Y890733D01*
X1051260Y890731D01*
X1051278Y890730D01*
X1051414Y890715D01*
X1101629Y890715D01*
X1101719Y890730D01*
X1101810Y890737D01*
X1101840Y890750D01*
X1101872Y890755D01*
X1101953Y890798D01*
X1102036Y890833D01*
X1102069Y890859D01*
X1102089Y890870D01*
X1102111Y890893D01*
X1102167Y890938D01*
X1131197Y919968D01*
X1131239Y920026D01*
X1131288Y920078D01*
X1131310Y920125D01*
X1131341Y920167D01*
X1131362Y920236D01*
X1131392Y920301D01*
X1131398Y920353D01*
X1131413Y920403D01*
X1131411Y920474D01*
X1131419Y920545D01*
X1131408Y920596D01*
X1131407Y920648D01*
X1131382Y920716D01*
X1131367Y920786D01*
X1131340Y920831D01*
X1131322Y920879D01*
X1131277Y920935D01*
X1131240Y920997D01*
X1131201Y921031D01*
X1131168Y921071D01*
X1131108Y921110D01*
X1131054Y921157D01*
X1131005Y921176D01*
X1130961Y921204D01*
X1130892Y921222D01*
X1130825Y921249D01*
X1130754Y921257D01*
X1130723Y921265D01*
X1130700Y921263D01*
X1130659Y921267D01*
X1128255Y921267D01*
X1124475Y922833D01*
X1121778Y925530D01*
X1121762Y925542D01*
X1121749Y925558D01*
X1121662Y925614D01*
X1121578Y925674D01*
X1121559Y925680D01*
X1121542Y925691D01*
X1121442Y925716D01*
X1121343Y925746D01*
X1121323Y925746D01*
X1121304Y925751D01*
X1121201Y925743D01*
X1121097Y925740D01*
X1121078Y925733D01*
X1121058Y925731D01*
X1120964Y925691D01*
X1120866Y925655D01*
X1120850Y925643D01*
X1120832Y925635D01*
X1120701Y925530D01*
X1108426Y913255D01*
X1106268Y911097D01*
X1076814Y911097D01*
X1076700Y911079D01*
X1076583Y911061D01*
X1076578Y911059D01*
X1076572Y911058D01*
X1076469Y911003D01*
X1076364Y910950D01*
X1076360Y910945D01*
X1076354Y910942D01*
X1076274Y910858D01*
X1076192Y910774D01*
X1076188Y910768D01*
X1076185Y910764D01*
X1076177Y910747D01*
X1076111Y910627D01*
X1076005Y910371D01*
X1074004Y908370D01*
X1071390Y907287D01*
X1068560Y907287D01*
X1065946Y908370D01*
X1063945Y910371D01*
X1062862Y912985D01*
X1062862Y915815D01*
X1063945Y918429D01*
X1065946Y920430D01*
X1068560Y921513D01*
X1071390Y921513D01*
X1074004Y920430D01*
X1076005Y918429D01*
X1076111Y918173D01*
X1076172Y918074D01*
X1076233Y917973D01*
X1076237Y917969D01*
X1076241Y917964D01*
X1076330Y917890D01*
X1076419Y917813D01*
X1076425Y917811D01*
X1076430Y917807D01*
X1076538Y917765D01*
X1076648Y917721D01*
X1076655Y917720D01*
X1076660Y917719D01*
X1076678Y917718D01*
X1076814Y917703D01*
X1103217Y917703D01*
X1103307Y917717D01*
X1103398Y917725D01*
X1103427Y917737D01*
X1103459Y917742D01*
X1103540Y917785D01*
X1103624Y917821D01*
X1103656Y917847D01*
X1103677Y917858D01*
X1103699Y917881D01*
X1103755Y917926D01*
X1105797Y919968D01*
X1105839Y920026D01*
X1105888Y920078D01*
X1105910Y920125D01*
X1105941Y920167D01*
X1105962Y920236D01*
X1105992Y920301D01*
X1105998Y920353D01*
X1106013Y920403D01*
X1106011Y920474D01*
X1106019Y920545D01*
X1106008Y920596D01*
X1106007Y920648D01*
X1105982Y920716D01*
X1105967Y920786D01*
X1105940Y920830D01*
X1105922Y920879D01*
X1105877Y920935D01*
X1105840Y920997D01*
X1105801Y921031D01*
X1105768Y921071D01*
X1105708Y921110D01*
X1105654Y921157D01*
X1105605Y921176D01*
X1105561Y921204D01*
X1105492Y921222D01*
X1105425Y921249D01*
X1105354Y921257D01*
X1105323Y921265D01*
X1105300Y921263D01*
X1105259Y921267D01*
X1102855Y921267D01*
X1099075Y922833D01*
X1096183Y925725D01*
X1094617Y929505D01*
X1094617Y950095D01*
X1096183Y953875D01*
X1099075Y956767D01*
X1102855Y958333D01*
X1106945Y958333D01*
X1110725Y956767D01*
X1113617Y953875D01*
X1115183Y950095D01*
X1115183Y931191D01*
X1115194Y931121D01*
X1115196Y931049D01*
X1115214Y931000D01*
X1115222Y930949D01*
X1115256Y930885D01*
X1115281Y930818D01*
X1115313Y930777D01*
X1115338Y930731D01*
X1115389Y930682D01*
X1115434Y930626D01*
X1115478Y930598D01*
X1115516Y930562D01*
X1115581Y930532D01*
X1115641Y930493D01*
X1115692Y930480D01*
X1115739Y930458D01*
X1115810Y930450D01*
X1115880Y930433D01*
X1115932Y930437D01*
X1115983Y930431D01*
X1116054Y930446D01*
X1116125Y930452D01*
X1116173Y930472D01*
X1116224Y930483D01*
X1116285Y930520D01*
X1116351Y930548D01*
X1116407Y930593D01*
X1116435Y930610D01*
X1116450Y930627D01*
X1116482Y930653D01*
X1119794Y933965D01*
X1119847Y934039D01*
X1119907Y934108D01*
X1119919Y934139D01*
X1119938Y934165D01*
X1119965Y934252D01*
X1119999Y934337D01*
X1120003Y934378D01*
X1120010Y934400D01*
X1120009Y934432D01*
X1120017Y934503D01*
X1120017Y950095D01*
X1121583Y953875D01*
X1124475Y956767D01*
X1128255Y958333D01*
X1132345Y958333D01*
X1136125Y956767D01*
X1139017Y953875D01*
X1140583Y950095D01*
X1140583Y931191D01*
X1140594Y931121D01*
X1140596Y931049D01*
X1140614Y931000D01*
X1140622Y930949D01*
X1140656Y930885D01*
X1140681Y930818D01*
X1140713Y930777D01*
X1140738Y930731D01*
X1140790Y930682D01*
X1140834Y930626D01*
X1140878Y930598D01*
X1140916Y930562D01*
X1140981Y930532D01*
X1141041Y930493D01*
X1141092Y930480D01*
X1141139Y930458D01*
X1141210Y930450D01*
X1141280Y930433D01*
X1141332Y930437D01*
X1141383Y930431D01*
X1141454Y930446D01*
X1141525Y930452D01*
X1141573Y930472D01*
X1141624Y930483D01*
X1141685Y930520D01*
X1141751Y930548D01*
X1141807Y930593D01*
X1141835Y930610D01*
X1141850Y930627D01*
X1141882Y930653D01*
X1145194Y933965D01*
X1145247Y934039D01*
X1145307Y934108D01*
X1145319Y934139D01*
X1145338Y934165D01*
X1145365Y934252D01*
X1145399Y934337D01*
X1145403Y934378D01*
X1145410Y934400D01*
X1145409Y934432D01*
X1145417Y934503D01*
X1145417Y950095D01*
X1146983Y953875D01*
X1149875Y956767D01*
X1153655Y958333D01*
X1157745Y958333D01*
X1161525Y956767D01*
X1164417Y953875D01*
X1165983Y950095D01*
X1165983Y929505D01*
X1164417Y925725D01*
X1161525Y922833D01*
X1157745Y921267D01*
X1153655Y921267D01*
X1149875Y922833D01*
X1147178Y925530D01*
X1147162Y925542D01*
X1147149Y925558D01*
X1147062Y925614D01*
X1146978Y925674D01*
X1146959Y925680D01*
X1146942Y925691D01*
X1146842Y925716D01*
X1146743Y925746D01*
X1146723Y925746D01*
X1146704Y925751D01*
X1146601Y925743D01*
X1146497Y925740D01*
X1146478Y925733D01*
X1146458Y925731D01*
X1146364Y925691D01*
X1146266Y925655D01*
X1146250Y925643D01*
X1146232Y925635D01*
X1146101Y925530D01*
X1106838Y886267D01*
X1104681Y884110D01*
X1051414Y884110D01*
X1051300Y884091D01*
X1051183Y884074D01*
X1051178Y884071D01*
X1051172Y884070D01*
X1051069Y884016D01*
X1050964Y883962D01*
X1050960Y883958D01*
X1050954Y883955D01*
X1050874Y883870D01*
X1050792Y883787D01*
X1050788Y883780D01*
X1050785Y883777D01*
X1050777Y883760D01*
X1050711Y883640D01*
X1050605Y883383D01*
X1048604Y881383D01*
X1045990Y880300D01*
X1043160Y880300D01*
G37*
%LPD*%
%LPC*%
G36*
X1130473Y756475D02*
X1130473Y756475D01*
X1127858Y757558D01*
X1125858Y759558D01*
X1124775Y762173D01*
X1124775Y765002D01*
X1125858Y767617D01*
X1126639Y768397D01*
X1126665Y768435D01*
X1126699Y768466D01*
X1126737Y768534D01*
X1126782Y768597D01*
X1126796Y768641D01*
X1126818Y768681D01*
X1126832Y768758D01*
X1126854Y768832D01*
X1126853Y768878D01*
X1126861Y768923D01*
X1126850Y769000D01*
X1126848Y769078D01*
X1126832Y769121D01*
X1126826Y769167D01*
X1126790Y769236D01*
X1126764Y769309D01*
X1126735Y769345D01*
X1126714Y769386D01*
X1126659Y769440D01*
X1126610Y769501D01*
X1126571Y769526D01*
X1126539Y769558D01*
X1126419Y769624D01*
X1126403Y769634D01*
X1126398Y769635D01*
X1126392Y769639D01*
X1124475Y770433D01*
X1121583Y773325D01*
X1120017Y777105D01*
X1120017Y797695D01*
X1121583Y801475D01*
X1124475Y804367D01*
X1128255Y805933D01*
X1132345Y805933D01*
X1136125Y804367D01*
X1139017Y801475D01*
X1140583Y797695D01*
X1140583Y778791D01*
X1140594Y778721D01*
X1140596Y778649D01*
X1140614Y778600D01*
X1140622Y778549D01*
X1140656Y778485D01*
X1140681Y778418D01*
X1140713Y778377D01*
X1140738Y778331D01*
X1140789Y778282D01*
X1140834Y778226D01*
X1140878Y778198D01*
X1140916Y778162D01*
X1140981Y778132D01*
X1141041Y778093D01*
X1141092Y778080D01*
X1141139Y778058D01*
X1141210Y778050D01*
X1141280Y778033D01*
X1141332Y778037D01*
X1141383Y778031D01*
X1141454Y778046D01*
X1141525Y778052D01*
X1141573Y778072D01*
X1141624Y778083D01*
X1141685Y778120D01*
X1141751Y778148D01*
X1141807Y778193D01*
X1141835Y778210D01*
X1141850Y778227D01*
X1141882Y778253D01*
X1145194Y781565D01*
X1145247Y781639D01*
X1145307Y781708D01*
X1145319Y781739D01*
X1145338Y781765D01*
X1145365Y781852D01*
X1145399Y781937D01*
X1145403Y781978D01*
X1145410Y782000D01*
X1145409Y782032D01*
X1145417Y782103D01*
X1145417Y797695D01*
X1146983Y801475D01*
X1149875Y804367D01*
X1153655Y805933D01*
X1157745Y805933D01*
X1161525Y804367D01*
X1164417Y801475D01*
X1165983Y797695D01*
X1165983Y777105D01*
X1164417Y773325D01*
X1161525Y770433D01*
X1157745Y768867D01*
X1153655Y768867D01*
X1149875Y770433D01*
X1147178Y773130D01*
X1147162Y773142D01*
X1147149Y773158D01*
X1147062Y773214D01*
X1146978Y773274D01*
X1146959Y773280D01*
X1146942Y773291D01*
X1146842Y773316D01*
X1146743Y773346D01*
X1146723Y773346D01*
X1146704Y773351D01*
X1146601Y773343D01*
X1146497Y773340D01*
X1146478Y773333D01*
X1146458Y773331D01*
X1146364Y773291D01*
X1146266Y773255D01*
X1146250Y773243D01*
X1146232Y773235D01*
X1146101Y773130D01*
X1139059Y766088D01*
X1138991Y765993D01*
X1138921Y765900D01*
X1138919Y765894D01*
X1138916Y765889D01*
X1138881Y765777D01*
X1138845Y765666D01*
X1138845Y765659D01*
X1138843Y765653D01*
X1138846Y765537D01*
X1138847Y765420D01*
X1138849Y765413D01*
X1138850Y765408D01*
X1138856Y765390D01*
X1138894Y765259D01*
X1139000Y765002D01*
X1139000Y762173D01*
X1137917Y759558D01*
X1135917Y757558D01*
X1133302Y756475D01*
X1130473Y756475D01*
G37*
%LPD*%
%LPC*%
G36*
X122150Y789837D02*
X122150Y789837D01*
X114482Y793013D01*
X108613Y798882D01*
X105437Y806550D01*
X105437Y814850D01*
X108613Y822518D01*
X114482Y828387D01*
X122150Y831563D01*
X130450Y831563D01*
X138118Y828387D01*
X143987Y822518D01*
X147163Y814850D01*
X147163Y806550D01*
X143987Y798882D01*
X138118Y793013D01*
X130450Y789837D01*
X122150Y789837D01*
G37*
%LPD*%
G36*
X156773Y893902D02*
X156773Y893902D01*
X156845Y893904D01*
X156894Y893922D01*
X156945Y893930D01*
X157009Y893964D01*
X157076Y893988D01*
X157117Y894021D01*
X157163Y894045D01*
X157212Y894097D01*
X157268Y894142D01*
X157296Y894186D01*
X157332Y894223D01*
X157362Y894288D01*
X157401Y894349D01*
X157414Y894399D01*
X157436Y894446D01*
X157444Y894518D01*
X157461Y894587D01*
X157457Y894639D01*
X157463Y894691D01*
X157448Y894761D01*
X157442Y894832D01*
X157422Y894880D01*
X157411Y894931D01*
X157374Y894993D01*
X157346Y895059D01*
X157301Y895115D01*
X157284Y895142D01*
X157267Y895158D01*
X157241Y895190D01*
X154939Y897491D01*
X154939Y900177D01*
X164338Y900177D01*
X164358Y900180D01*
X164377Y900178D01*
X164479Y900200D01*
X164581Y900217D01*
X164598Y900226D01*
X164618Y900230D01*
X164707Y900283D01*
X164798Y900332D01*
X164812Y900346D01*
X164829Y900356D01*
X164896Y900435D01*
X164967Y900510D01*
X164976Y900528D01*
X164989Y900543D01*
X165027Y900639D01*
X165071Y900733D01*
X165073Y900753D01*
X165081Y900771D01*
X165099Y900938D01*
X165099Y901701D01*
X165101Y901701D01*
X165101Y900938D01*
X165104Y900918D01*
X165102Y900899D01*
X165124Y900797D01*
X165141Y900695D01*
X165150Y900678D01*
X165154Y900658D01*
X165207Y900569D01*
X165256Y900478D01*
X165270Y900464D01*
X165280Y900447D01*
X165359Y900380D01*
X165434Y900309D01*
X165452Y900300D01*
X165467Y900287D01*
X165563Y900248D01*
X165657Y900205D01*
X165677Y900203D01*
X165695Y900195D01*
X165862Y900177D01*
X175261Y900177D01*
X175261Y897491D01*
X172959Y895190D01*
X172917Y895132D01*
X172868Y895080D01*
X172846Y895032D01*
X172816Y894990D01*
X172795Y894922D01*
X172764Y894856D01*
X172759Y894805D01*
X172743Y894755D01*
X172745Y894683D01*
X172737Y894612D01*
X172748Y894561D01*
X172750Y894509D01*
X172774Y894442D01*
X172789Y894372D01*
X172816Y894327D01*
X172834Y894278D01*
X172879Y894222D01*
X172916Y894161D01*
X172955Y894127D01*
X172988Y894086D01*
X173048Y894047D01*
X173103Y894001D01*
X173151Y893981D01*
X173195Y893953D01*
X173264Y893936D01*
X173331Y893909D01*
X173402Y893901D01*
X173433Y893893D01*
X173457Y893895D01*
X173497Y893890D01*
X182821Y893890D01*
X182892Y893902D01*
X182963Y893904D01*
X183012Y893922D01*
X183064Y893930D01*
X183127Y893964D01*
X183194Y893988D01*
X183235Y894021D01*
X183281Y894045D01*
X183330Y894097D01*
X183386Y894142D01*
X183415Y894186D01*
X183450Y894223D01*
X183481Y894288D01*
X183519Y894349D01*
X183532Y894399D01*
X183554Y894446D01*
X183562Y894518D01*
X183579Y894587D01*
X183575Y894639D01*
X183581Y894691D01*
X183566Y894761D01*
X183560Y894832D01*
X183540Y894880D01*
X183529Y894931D01*
X183492Y894993D01*
X183464Y895059D01*
X183419Y895115D01*
X183403Y895142D01*
X183385Y895158D01*
X183359Y895190D01*
X180847Y897702D01*
X180847Y905698D01*
X186534Y911385D01*
X186576Y911443D01*
X186625Y911495D01*
X186647Y911543D01*
X186678Y911585D01*
X186699Y911653D01*
X186729Y911719D01*
X186735Y911770D01*
X186750Y911820D01*
X186748Y911892D01*
X186756Y911963D01*
X186745Y912014D01*
X186744Y912066D01*
X186719Y912133D01*
X186704Y912203D01*
X186677Y912248D01*
X186659Y912297D01*
X186614Y912353D01*
X186578Y912414D01*
X186538Y912448D01*
X186506Y912489D01*
X186445Y912528D01*
X186391Y912574D01*
X186342Y912594D01*
X186299Y912622D01*
X186229Y912639D01*
X186163Y912666D01*
X186091Y912674D01*
X186060Y912682D01*
X186037Y912680D01*
X185996Y912685D01*
X174844Y912685D01*
X170128Y917401D01*
X170112Y917412D01*
X170100Y917428D01*
X170013Y917484D01*
X169929Y917544D01*
X169910Y917550D01*
X169893Y917561D01*
X169792Y917586D01*
X169694Y917617D01*
X169674Y917616D01*
X169654Y917621D01*
X169551Y917613D01*
X169448Y917610D01*
X169429Y917603D01*
X169409Y917602D01*
X169314Y917562D01*
X169217Y917526D01*
X169201Y917513D01*
X169183Y917506D01*
X169110Y917447D01*
X161102Y917447D01*
X155447Y923102D01*
X155447Y931098D01*
X157959Y933610D01*
X158001Y933668D01*
X158050Y933720D01*
X158072Y933768D01*
X158103Y933810D01*
X158124Y933878D01*
X158154Y933944D01*
X158160Y933995D01*
X158175Y934045D01*
X158173Y934117D01*
X158181Y934188D01*
X158170Y934239D01*
X158169Y934291D01*
X158144Y934358D01*
X158129Y934428D01*
X158102Y934473D01*
X158084Y934522D01*
X158039Y934578D01*
X158003Y934639D01*
X157963Y934673D01*
X157931Y934714D01*
X157870Y934753D01*
X157816Y934799D01*
X157767Y934819D01*
X157724Y934847D01*
X157654Y934864D01*
X157588Y934891D01*
X157516Y934899D01*
X157485Y934907D01*
X157462Y934905D01*
X157421Y934910D01*
X147379Y934910D01*
X147308Y934898D01*
X147237Y934896D01*
X147188Y934878D01*
X147136Y934870D01*
X147073Y934836D01*
X147006Y934812D01*
X146965Y934779D01*
X146919Y934755D01*
X146870Y934703D01*
X146814Y934658D01*
X146785Y934614D01*
X146750Y934577D01*
X146719Y934512D01*
X146681Y934451D01*
X146668Y934401D01*
X146646Y934354D01*
X146638Y934282D01*
X146621Y934213D01*
X146625Y934161D01*
X146619Y934109D01*
X146634Y934039D01*
X146640Y933968D01*
X146660Y933920D01*
X146671Y933869D01*
X146708Y933807D01*
X146736Y933741D01*
X146781Y933685D01*
X146797Y933658D01*
X146815Y933642D01*
X146841Y933610D01*
X149353Y931098D01*
X149353Y923102D01*
X143698Y917447D01*
X135702Y917447D01*
X133190Y919959D01*
X133132Y920001D01*
X133080Y920050D01*
X133032Y920072D01*
X132990Y920103D01*
X132922Y920124D01*
X132856Y920154D01*
X132805Y920160D01*
X132755Y920175D01*
X132683Y920173D01*
X132612Y920181D01*
X132561Y920170D01*
X132509Y920169D01*
X132442Y920144D01*
X132372Y920129D01*
X132327Y920102D01*
X132278Y920084D01*
X132222Y920039D01*
X132161Y920003D01*
X132127Y919963D01*
X132086Y919931D01*
X132047Y919870D01*
X132001Y919816D01*
X131981Y919767D01*
X131953Y919724D01*
X131936Y919654D01*
X131909Y919588D01*
X131901Y919516D01*
X131893Y919485D01*
X131895Y919462D01*
X131890Y919421D01*
X131890Y909379D01*
X131902Y909308D01*
X131904Y909237D01*
X131922Y909188D01*
X131930Y909136D01*
X131964Y909073D01*
X131988Y909006D01*
X132021Y908965D01*
X132045Y908919D01*
X132097Y908870D01*
X132142Y908814D01*
X132186Y908785D01*
X132223Y908750D01*
X132288Y908719D01*
X132349Y908681D01*
X132399Y908668D01*
X132446Y908646D01*
X132518Y908638D01*
X132587Y908621D01*
X132639Y908625D01*
X132691Y908619D01*
X132761Y908634D01*
X132832Y908640D01*
X132880Y908660D01*
X132931Y908671D01*
X132993Y908708D01*
X133059Y908736D01*
X133115Y908781D01*
X133142Y908797D01*
X133158Y908815D01*
X133190Y908841D01*
X135702Y911353D01*
X143698Y911353D01*
X149353Y905698D01*
X149353Y897690D01*
X149316Y897633D01*
X149256Y897548D01*
X149250Y897529D01*
X149239Y897513D01*
X149214Y897412D01*
X149183Y897313D01*
X149184Y897293D01*
X149179Y897274D01*
X149187Y897171D01*
X149190Y897068D01*
X149196Y897049D01*
X149198Y897029D01*
X149238Y896934D01*
X149274Y896837D01*
X149287Y896821D01*
X149294Y896803D01*
X149399Y896672D01*
X151958Y894113D01*
X152032Y894060D01*
X152101Y894001D01*
X152131Y893988D01*
X152157Y893970D01*
X152244Y893943D01*
X152329Y893909D01*
X152370Y893904D01*
X152392Y893897D01*
X152425Y893898D01*
X152496Y893890D01*
X156703Y893890D01*
X156773Y893902D01*
G37*
%LPC*%
G36*
X479023Y905763D02*
X479023Y905763D01*
X473963Y910823D01*
X473963Y917977D01*
X479023Y923037D01*
X484993Y923037D01*
X485084Y923051D01*
X485174Y923059D01*
X485204Y923071D01*
X485236Y923076D01*
X485317Y923119D01*
X485401Y923155D01*
X485433Y923181D01*
X485454Y923192D01*
X485476Y923215D01*
X485532Y923260D01*
X499140Y936868D01*
X499193Y936942D01*
X499253Y937012D01*
X499265Y937042D01*
X499284Y937068D01*
X499311Y937155D01*
X499345Y937240D01*
X499349Y937281D01*
X499356Y937303D01*
X499355Y937335D01*
X499363Y937407D01*
X499363Y948122D01*
X500678Y951296D01*
X503108Y953726D01*
X506282Y955041D01*
X509718Y955041D01*
X512892Y953726D01*
X515322Y951296D01*
X516637Y948122D01*
X516637Y931478D01*
X515322Y928304D01*
X512892Y925874D01*
X509718Y924559D01*
X506282Y924559D01*
X503108Y925874D01*
X502093Y926889D01*
X502077Y926900D01*
X502065Y926916D01*
X501977Y926972D01*
X501893Y927032D01*
X501874Y927038D01*
X501858Y927049D01*
X501757Y927074D01*
X501658Y927105D01*
X501638Y927104D01*
X501619Y927109D01*
X501516Y927101D01*
X501412Y927098D01*
X501394Y927091D01*
X501374Y927090D01*
X501279Y927049D01*
X501181Y927014D01*
X501166Y927001D01*
X501148Y926993D01*
X501017Y926889D01*
X491460Y917332D01*
X491407Y917258D01*
X491347Y917188D01*
X491335Y917158D01*
X491316Y917132D01*
X491289Y917045D01*
X491255Y916960D01*
X491251Y916919D01*
X491244Y916897D01*
X491245Y916865D01*
X491237Y916793D01*
X491237Y910823D01*
X486177Y905763D01*
X479023Y905763D01*
G37*
%LPD*%
%LPC*%
G36*
X1255255Y768867D02*
X1255255Y768867D01*
X1251475Y770433D01*
X1248583Y773325D01*
X1247017Y777105D01*
X1247017Y797695D01*
X1248583Y801475D01*
X1251475Y804367D01*
X1255255Y805933D01*
X1259345Y805933D01*
X1263125Y804367D01*
X1266017Y801475D01*
X1267583Y797695D01*
X1267583Y777105D01*
X1266017Y773325D01*
X1263125Y770433D01*
X1259345Y768867D01*
X1255255Y768867D01*
G37*
%LPD*%
%LPC*%
G36*
X1356855Y768867D02*
X1356855Y768867D01*
X1353075Y770433D01*
X1350183Y773325D01*
X1348617Y777105D01*
X1348617Y797695D01*
X1350183Y801475D01*
X1353075Y804367D01*
X1356855Y805933D01*
X1360945Y805933D01*
X1364725Y804367D01*
X1367617Y801475D01*
X1369183Y797695D01*
X1369183Y777105D01*
X1367617Y773325D01*
X1364725Y770433D01*
X1360945Y768867D01*
X1356855Y768867D01*
G37*
%LPD*%
%LPC*%
G36*
X1331455Y768867D02*
X1331455Y768867D01*
X1327675Y770433D01*
X1324783Y773325D01*
X1323217Y777105D01*
X1323217Y797695D01*
X1324783Y801475D01*
X1327675Y804367D01*
X1331455Y805933D01*
X1335545Y805933D01*
X1339325Y804367D01*
X1342217Y801475D01*
X1343783Y797695D01*
X1343783Y777105D01*
X1342217Y773325D01*
X1339325Y770433D01*
X1335545Y768867D01*
X1331455Y768867D01*
G37*
%LPD*%
%LPC*%
G36*
X1179055Y768867D02*
X1179055Y768867D01*
X1175275Y770433D01*
X1172383Y773325D01*
X1170817Y777105D01*
X1170817Y797695D01*
X1172383Y801475D01*
X1175275Y804367D01*
X1179055Y805933D01*
X1183145Y805933D01*
X1186925Y804367D01*
X1189817Y801475D01*
X1191383Y797695D01*
X1191383Y777105D01*
X1189817Y773325D01*
X1186925Y770433D01*
X1183145Y768867D01*
X1179055Y768867D01*
G37*
%LPD*%
%LPC*%
G36*
X1255255Y921267D02*
X1255255Y921267D01*
X1251475Y922833D01*
X1248583Y925725D01*
X1247017Y929505D01*
X1247017Y950095D01*
X1248583Y953875D01*
X1251475Y956767D01*
X1255255Y958333D01*
X1259345Y958333D01*
X1263125Y956767D01*
X1266017Y953875D01*
X1267583Y950095D01*
X1267583Y929505D01*
X1266017Y925725D01*
X1263125Y922833D01*
X1259345Y921267D01*
X1255255Y921267D01*
G37*
%LPD*%
%LPC*%
G36*
X1077455Y921267D02*
X1077455Y921267D01*
X1073675Y922833D01*
X1070783Y925725D01*
X1069217Y929505D01*
X1069217Y950095D01*
X1070783Y953875D01*
X1073675Y956767D01*
X1077455Y958333D01*
X1081545Y958333D01*
X1085325Y956767D01*
X1088217Y953875D01*
X1089783Y950095D01*
X1089783Y929505D01*
X1088217Y925725D01*
X1085325Y922833D01*
X1081545Y921267D01*
X1077455Y921267D01*
G37*
%LPD*%
%LPC*%
G36*
X1331455Y921267D02*
X1331455Y921267D01*
X1327675Y922833D01*
X1324783Y925725D01*
X1323217Y929505D01*
X1323217Y950095D01*
X1324783Y953875D01*
X1327675Y956767D01*
X1331455Y958333D01*
X1335545Y958333D01*
X1339325Y956767D01*
X1342217Y953875D01*
X1343783Y950095D01*
X1343783Y929505D01*
X1342217Y925725D01*
X1339325Y922833D01*
X1335545Y921267D01*
X1331455Y921267D01*
G37*
%LPD*%
%LPC*%
G36*
X1179055Y921267D02*
X1179055Y921267D01*
X1175275Y922833D01*
X1172383Y925725D01*
X1170817Y929505D01*
X1170817Y950095D01*
X1172383Y953875D01*
X1175275Y956767D01*
X1179055Y958333D01*
X1183145Y958333D01*
X1186925Y956767D01*
X1189817Y953875D01*
X1191383Y950095D01*
X1191383Y929505D01*
X1189817Y925725D01*
X1186925Y922833D01*
X1183145Y921267D01*
X1179055Y921267D01*
G37*
%LPD*%
%LPC*%
G36*
X1280655Y921267D02*
X1280655Y921267D01*
X1276875Y922833D01*
X1273983Y925725D01*
X1272417Y929505D01*
X1272417Y950095D01*
X1273983Y953875D01*
X1276875Y956767D01*
X1280655Y958333D01*
X1284745Y958333D01*
X1288525Y956767D01*
X1291417Y953875D01*
X1292983Y950095D01*
X1292983Y929505D01*
X1291417Y925725D01*
X1288525Y922833D01*
X1284745Y921267D01*
X1280655Y921267D01*
G37*
%LPD*%
%LPC*%
G36*
X1306055Y921267D02*
X1306055Y921267D01*
X1302275Y922833D01*
X1299383Y925725D01*
X1297817Y929505D01*
X1297817Y950095D01*
X1299383Y953875D01*
X1302275Y956767D01*
X1306055Y958333D01*
X1310145Y958333D01*
X1313925Y956767D01*
X1316817Y953875D01*
X1318383Y950095D01*
X1318383Y929505D01*
X1316817Y925725D01*
X1313925Y922833D01*
X1310145Y921267D01*
X1306055Y921267D01*
G37*
%LPD*%
%LPC*%
G36*
X1356855Y921267D02*
X1356855Y921267D01*
X1353075Y922833D01*
X1350183Y925725D01*
X1348617Y929505D01*
X1348617Y950095D01*
X1350183Y953875D01*
X1353075Y956767D01*
X1356855Y958333D01*
X1360945Y958333D01*
X1364725Y956767D01*
X1367617Y953875D01*
X1369183Y950095D01*
X1369183Y929505D01*
X1367617Y925725D01*
X1364725Y922833D01*
X1360945Y921267D01*
X1356855Y921267D01*
G37*
%LPD*%
%LPC*%
G36*
X1014181Y923543D02*
X1014181Y923543D01*
X1010820Y924935D01*
X1008247Y927508D01*
X1006855Y930869D01*
X1006855Y948731D01*
X1008247Y952092D01*
X1010820Y954665D01*
X1014181Y956057D01*
X1017819Y956057D01*
X1021180Y954665D01*
X1023753Y952092D01*
X1025145Y948731D01*
X1025145Y930869D01*
X1023753Y927508D01*
X1021180Y924935D01*
X1017819Y923543D01*
X1014181Y923543D01*
G37*
%LPD*%
%LPC*%
G36*
X937981Y923543D02*
X937981Y923543D01*
X934620Y924935D01*
X932047Y927508D01*
X930655Y930869D01*
X930655Y948731D01*
X932047Y952092D01*
X934620Y954665D01*
X937981Y956057D01*
X941619Y956057D01*
X944980Y954665D01*
X947553Y952092D01*
X948945Y948731D01*
X948945Y930869D01*
X947553Y927508D01*
X944980Y924935D01*
X941619Y923543D01*
X937981Y923543D01*
G37*
%LPD*%
%LPC*%
G36*
X607882Y924559D02*
X607882Y924559D01*
X604708Y925874D01*
X602278Y928304D01*
X600963Y931478D01*
X600963Y948122D01*
X602278Y951296D01*
X604708Y953726D01*
X607882Y955041D01*
X611318Y955041D01*
X614492Y953726D01*
X616922Y951296D01*
X618237Y948122D01*
X618237Y931478D01*
X616922Y928304D01*
X614492Y925874D01*
X611318Y924559D01*
X607882Y924559D01*
G37*
%LPD*%
%LPC*%
G36*
X633282Y924559D02*
X633282Y924559D01*
X630108Y925874D01*
X627678Y928304D01*
X626363Y931478D01*
X626363Y948122D01*
X627678Y951296D01*
X630108Y953726D01*
X633282Y955041D01*
X636718Y955041D01*
X639892Y953726D01*
X642322Y951296D01*
X643637Y948122D01*
X643637Y931478D01*
X642322Y928304D01*
X639892Y925874D01*
X636718Y924559D01*
X633282Y924559D01*
G37*
%LPD*%
%LPC*%
G36*
X658682Y924559D02*
X658682Y924559D01*
X655508Y925874D01*
X653078Y928304D01*
X651763Y931478D01*
X651763Y948122D01*
X653078Y951296D01*
X655508Y953726D01*
X658682Y955041D01*
X662118Y955041D01*
X665292Y953726D01*
X667722Y951296D01*
X669037Y948122D01*
X669037Y931478D01*
X667722Y928304D01*
X665292Y925874D01*
X662118Y924559D01*
X658682Y924559D01*
G37*
%LPD*%
%LPC*%
G36*
X684082Y924559D02*
X684082Y924559D01*
X680908Y925874D01*
X678478Y928304D01*
X677163Y931478D01*
X677163Y948122D01*
X678478Y951296D01*
X680908Y953726D01*
X684082Y955041D01*
X687518Y955041D01*
X690692Y953726D01*
X693122Y951296D01*
X694437Y948122D01*
X694437Y931478D01*
X693122Y928304D01*
X690692Y925874D01*
X687518Y924559D01*
X684082Y924559D01*
G37*
%LPD*%
%LPC*%
G36*
X582482Y924559D02*
X582482Y924559D01*
X579308Y925874D01*
X576878Y928304D01*
X575563Y931478D01*
X575563Y948122D01*
X576878Y951296D01*
X579308Y953726D01*
X582482Y955041D01*
X585918Y955041D01*
X589092Y953726D01*
X591522Y951296D01*
X592837Y948122D01*
X592837Y931478D01*
X591522Y928304D01*
X589092Y925874D01*
X585918Y924559D01*
X582482Y924559D01*
G37*
%LPD*%
%LPC*%
G36*
X557082Y924559D02*
X557082Y924559D01*
X553908Y925874D01*
X551478Y928304D01*
X550163Y931478D01*
X550163Y948122D01*
X551478Y951296D01*
X553908Y953726D01*
X557082Y955041D01*
X560518Y955041D01*
X563692Y953726D01*
X566122Y951296D01*
X567437Y948122D01*
X567437Y931478D01*
X566122Y928304D01*
X563692Y925874D01*
X560518Y924559D01*
X557082Y924559D01*
G37*
%LPD*%
%LPC*%
G36*
X874582Y734059D02*
X874582Y734059D01*
X871408Y735374D01*
X868978Y737804D01*
X867663Y740978D01*
X867663Y757622D01*
X868978Y760796D01*
X871408Y763226D01*
X874582Y764541D01*
X878018Y764541D01*
X881192Y763226D01*
X883622Y760796D01*
X884937Y757622D01*
X884937Y740978D01*
X883622Y737804D01*
X881192Y735374D01*
X878018Y734059D01*
X874582Y734059D01*
G37*
%LPD*%
G36*
X104186Y742855D02*
X104186Y742855D01*
X104257Y742861D01*
X104305Y742881D01*
X104356Y742892D01*
X104418Y742929D01*
X104484Y742957D01*
X104540Y743002D01*
X104567Y743018D01*
X104583Y743036D01*
X104615Y743062D01*
X107413Y745860D01*
X111427Y747523D01*
X115773Y747523D01*
X118682Y746318D01*
X118796Y746291D01*
X118909Y746262D01*
X118916Y746263D01*
X118922Y746261D01*
X119038Y746272D01*
X119155Y746281D01*
X119160Y746284D01*
X119167Y746284D01*
X119274Y746332D01*
X119381Y746378D01*
X119387Y746382D01*
X119391Y746384D01*
X119405Y746397D01*
X119512Y746483D01*
X123474Y750445D01*
X125632Y752603D01*
X130394Y752603D01*
X130465Y752614D01*
X130536Y752616D01*
X130585Y752634D01*
X130637Y752642D01*
X130700Y752676D01*
X130767Y752701D01*
X130808Y752733D01*
X130854Y752758D01*
X130903Y752810D01*
X130959Y752854D01*
X130988Y752898D01*
X131023Y752936D01*
X131054Y753001D01*
X131092Y753061D01*
X131105Y753112D01*
X131127Y753159D01*
X131135Y753230D01*
X131153Y753300D01*
X131148Y753352D01*
X131154Y753403D01*
X131139Y753474D01*
X131133Y753545D01*
X131113Y753593D01*
X131102Y753644D01*
X131065Y753705D01*
X131037Y753771D01*
X130992Y753827D01*
X130976Y753855D01*
X130958Y753870D01*
X130932Y753902D01*
X130281Y754553D01*
X129224Y756009D01*
X128407Y757612D01*
X127851Y759323D01*
X127668Y760477D01*
X138238Y760477D01*
X138258Y760480D01*
X138277Y760478D01*
X138379Y760500D01*
X138481Y760517D01*
X138498Y760526D01*
X138518Y760530D01*
X138607Y760583D01*
X138698Y760632D01*
X138712Y760646D01*
X138729Y760656D01*
X138796Y760735D01*
X138867Y760810D01*
X138876Y760828D01*
X138889Y760843D01*
X138927Y760939D01*
X138971Y761033D01*
X138973Y761053D01*
X138981Y761071D01*
X138999Y761238D01*
X138999Y762762D01*
X138996Y762782D01*
X138998Y762801D01*
X138976Y762903D01*
X138959Y763005D01*
X138950Y763022D01*
X138946Y763042D01*
X138893Y763131D01*
X138844Y763222D01*
X138830Y763236D01*
X138820Y763253D01*
X138741Y763320D01*
X138666Y763391D01*
X138648Y763400D01*
X138633Y763413D01*
X138537Y763452D01*
X138443Y763495D01*
X138423Y763497D01*
X138405Y763505D01*
X138238Y763523D01*
X127668Y763523D01*
X127851Y764677D01*
X128407Y766388D01*
X129224Y767991D01*
X130281Y769447D01*
X131553Y770719D01*
X132777Y771608D01*
X132782Y771613D01*
X132789Y771617D01*
X132868Y771700D01*
X132950Y771782D01*
X132953Y771790D01*
X132959Y771795D01*
X133007Y771900D01*
X133058Y772003D01*
X133059Y772011D01*
X133062Y772019D01*
X133075Y772133D01*
X133090Y772247D01*
X133089Y772255D01*
X133089Y772263D01*
X133065Y772375D01*
X133043Y772489D01*
X133039Y772496D01*
X133037Y772503D01*
X132979Y772602D01*
X132921Y772702D01*
X132915Y772708D01*
X132911Y772714D01*
X132824Y772789D01*
X132738Y772866D01*
X132730Y772869D01*
X132724Y772874D01*
X132617Y772918D01*
X132511Y772963D01*
X132503Y772963D01*
X132496Y772966D01*
X132329Y772985D01*
X130271Y772985D01*
X130181Y772970D01*
X130090Y772963D01*
X130060Y772950D01*
X130028Y772945D01*
X129947Y772902D01*
X129864Y772867D01*
X129831Y772841D01*
X129811Y772830D01*
X129789Y772807D01*
X129733Y772762D01*
X123893Y766922D01*
X123824Y766827D01*
X123755Y766733D01*
X123753Y766727D01*
X123749Y766722D01*
X123715Y766610D01*
X123678Y766499D01*
X123679Y766493D01*
X123677Y766487D01*
X123680Y766370D01*
X123681Y766253D01*
X123683Y766246D01*
X123683Y766241D01*
X123689Y766224D01*
X123728Y766092D01*
X124523Y764173D01*
X124523Y759827D01*
X122860Y755813D01*
X119787Y752740D01*
X115773Y751077D01*
X111427Y751077D01*
X107413Y752740D01*
X104615Y755538D01*
X104557Y755580D01*
X104505Y755629D01*
X104457Y755651D01*
X104415Y755682D01*
X104347Y755703D01*
X104281Y755733D01*
X104230Y755739D01*
X104180Y755754D01*
X104108Y755752D01*
X104037Y755760D01*
X103986Y755749D01*
X103934Y755748D01*
X103867Y755723D01*
X103797Y755708D01*
X103752Y755681D01*
X103703Y755663D01*
X103647Y755618D01*
X103586Y755582D01*
X103552Y755542D01*
X103511Y755510D01*
X103472Y755449D01*
X103426Y755395D01*
X103406Y755346D01*
X103378Y755303D01*
X103361Y755233D01*
X103334Y755167D01*
X103326Y755095D01*
X103318Y755064D01*
X103320Y755041D01*
X103315Y755000D01*
X103315Y743600D01*
X103327Y743529D01*
X103329Y743458D01*
X103347Y743409D01*
X103355Y743357D01*
X103389Y743294D01*
X103413Y743227D01*
X103446Y743186D01*
X103470Y743140D01*
X103522Y743091D01*
X103567Y743035D01*
X103611Y743006D01*
X103648Y742971D01*
X103713Y742940D01*
X103774Y742902D01*
X103824Y742889D01*
X103871Y742867D01*
X103943Y742859D01*
X104012Y742842D01*
X104064Y742846D01*
X104116Y742840D01*
X104186Y742855D01*
G37*
%LPC*%
G36*
X910823Y740663D02*
X910823Y740663D01*
X905763Y745723D01*
X905763Y752877D01*
X910823Y757937D01*
X917977Y757937D01*
X923037Y752877D01*
X923037Y745723D01*
X917977Y740663D01*
X910823Y740663D01*
G37*
%LPD*%
%LPC*%
G36*
X1304523Y829563D02*
X1304523Y829563D01*
X1299463Y834623D01*
X1299463Y841777D01*
X1304523Y846837D01*
X1311677Y846837D01*
X1316737Y841777D01*
X1316737Y834623D01*
X1311677Y829563D01*
X1304523Y829563D01*
G37*
%LPD*%
%LPC*%
G36*
X1368023Y740663D02*
X1368023Y740663D01*
X1362963Y745723D01*
X1362963Y752877D01*
X1368023Y757937D01*
X1375177Y757937D01*
X1380237Y752877D01*
X1380237Y745723D01*
X1375177Y740663D01*
X1368023Y740663D01*
G37*
%LPD*%
%LPC*%
G36*
X936223Y740663D02*
X936223Y740663D01*
X931163Y745723D01*
X931163Y752877D01*
X936223Y757937D01*
X943377Y757937D01*
X948437Y752877D01*
X948437Y745723D01*
X943377Y740663D01*
X936223Y740663D01*
G37*
%LPD*%
%LPC*%
G36*
X1208023Y788923D02*
X1208023Y788923D01*
X1208023Y806334D01*
X1209027Y806175D01*
X1210642Y805650D01*
X1212155Y804879D01*
X1213530Y803881D01*
X1214731Y802680D01*
X1215729Y801305D01*
X1216500Y799792D01*
X1217025Y798177D01*
X1217291Y796499D01*
X1217291Y788923D01*
X1208023Y788923D01*
G37*
%LPD*%
%LPC*%
G36*
X1195709Y788923D02*
X1195709Y788923D01*
X1195709Y796499D01*
X1195975Y798177D01*
X1196500Y799792D01*
X1197271Y801305D01*
X1198269Y802680D01*
X1199470Y803881D01*
X1200845Y804879D01*
X1202358Y805650D01*
X1203973Y806175D01*
X1204977Y806334D01*
X1204977Y788923D01*
X1195709Y788923D01*
G37*
%LPD*%
%LPC*%
G36*
X1203973Y921025D02*
X1203973Y921025D01*
X1202358Y921550D01*
X1200845Y922321D01*
X1199470Y923319D01*
X1198269Y924520D01*
X1197271Y925895D01*
X1196500Y927408D01*
X1195975Y929023D01*
X1195709Y930701D01*
X1195709Y938277D01*
X1204977Y938277D01*
X1204977Y920866D01*
X1203973Y921025D01*
G37*
%LPD*%
%LPC*%
G36*
X915923Y941323D02*
X915923Y941323D01*
X915923Y956444D01*
X916660Y956327D01*
X918105Y955858D01*
X919459Y955168D01*
X920688Y954275D01*
X921763Y953200D01*
X922656Y951971D01*
X923346Y950617D01*
X923815Y949172D01*
X924053Y947672D01*
X924053Y941323D01*
X915923Y941323D01*
G37*
%LPD*%
%LPC*%
G36*
X839723Y941323D02*
X839723Y941323D01*
X839723Y956444D01*
X840460Y956327D01*
X841905Y955858D01*
X843259Y955168D01*
X844488Y954275D01*
X845563Y953200D01*
X846456Y951971D01*
X847146Y950617D01*
X847615Y949172D01*
X847853Y947672D01*
X847853Y941323D01*
X839723Y941323D01*
G37*
%LPD*%
%LPC*%
G36*
X992123Y941323D02*
X992123Y941323D01*
X992123Y956444D01*
X992860Y956327D01*
X994305Y955858D01*
X995659Y955168D01*
X996888Y954275D01*
X997963Y953200D01*
X998856Y951971D01*
X999546Y950617D01*
X1000015Y949172D01*
X1000253Y947672D01*
X1000253Y941323D01*
X992123Y941323D01*
G37*
%LPD*%
%LPC*%
G36*
X992123Y938277D02*
X992123Y938277D01*
X1000253Y938277D01*
X1000253Y931928D01*
X1000015Y930428D01*
X999546Y928983D01*
X998856Y927629D01*
X997963Y926400D01*
X996888Y925325D01*
X995659Y924432D01*
X994305Y923742D01*
X992860Y923273D01*
X992123Y923156D01*
X992123Y938277D01*
G37*
%LPD*%
%LPC*%
G36*
X915923Y938277D02*
X915923Y938277D01*
X924053Y938277D01*
X924053Y931928D01*
X923815Y930428D01*
X923346Y928983D01*
X922656Y927629D01*
X921763Y926400D01*
X920688Y925325D01*
X919459Y924432D01*
X918105Y923742D01*
X916660Y923273D01*
X915923Y923156D01*
X915923Y938277D01*
G37*
%LPD*%
%LPC*%
G36*
X839723Y938277D02*
X839723Y938277D01*
X847853Y938277D01*
X847853Y931928D01*
X847615Y930428D01*
X847146Y928983D01*
X846456Y927629D01*
X845563Y926400D01*
X844488Y925325D01*
X843259Y924432D01*
X841905Y923742D01*
X840460Y923273D01*
X839723Y923156D01*
X839723Y938277D01*
G37*
%LPD*%
%LPC*%
G36*
X828547Y941323D02*
X828547Y941323D01*
X828547Y947672D01*
X828785Y949172D01*
X829254Y950617D01*
X829944Y951971D01*
X830837Y953200D01*
X831912Y954275D01*
X833141Y955168D01*
X834495Y955858D01*
X835940Y956327D01*
X836677Y956444D01*
X836677Y941323D01*
X828547Y941323D01*
G37*
%LPD*%
%LPC*%
G36*
X904747Y941323D02*
X904747Y941323D01*
X904747Y947672D01*
X904985Y949172D01*
X905454Y950617D01*
X906144Y951971D01*
X907037Y953200D01*
X908112Y954275D01*
X909341Y955168D01*
X910695Y955858D01*
X912140Y956327D01*
X912877Y956444D01*
X912877Y941323D01*
X904747Y941323D01*
G37*
%LPD*%
%LPC*%
G36*
X980947Y941323D02*
X980947Y941323D01*
X980947Y947672D01*
X981185Y949172D01*
X981654Y950617D01*
X982344Y951971D01*
X983237Y953200D01*
X984312Y954275D01*
X985541Y955168D01*
X986895Y955858D01*
X988340Y956327D01*
X989077Y956444D01*
X989077Y941323D01*
X980947Y941323D01*
G37*
%LPD*%
%LPC*%
G36*
X835940Y923273D02*
X835940Y923273D01*
X834495Y923742D01*
X833141Y924432D01*
X831912Y925325D01*
X830837Y926400D01*
X829944Y927629D01*
X829254Y928983D01*
X828785Y930428D01*
X828547Y931928D01*
X828547Y938277D01*
X836677Y938277D01*
X836677Y923156D01*
X835940Y923273D01*
G37*
%LPD*%
%LPC*%
G36*
X988340Y923273D02*
X988340Y923273D01*
X986895Y923742D01*
X985541Y924432D01*
X984312Y925325D01*
X983237Y926400D01*
X982344Y927629D01*
X981654Y928983D01*
X981185Y930428D01*
X980947Y931928D01*
X980947Y938277D01*
X989077Y938277D01*
X989077Y923156D01*
X988340Y923273D01*
G37*
%LPD*%
%LPC*%
G36*
X912140Y923273D02*
X912140Y923273D01*
X910695Y923742D01*
X909341Y924432D01*
X908112Y925325D01*
X907037Y926400D01*
X906144Y927629D01*
X905454Y928983D01*
X904985Y930428D01*
X904747Y931928D01*
X904747Y938277D01*
X912877Y938277D01*
X912877Y923156D01*
X912140Y923273D01*
G37*
%LPD*%
%LPC*%
G36*
X534923Y941323D02*
X534923Y941323D01*
X534923Y955425D01*
X536067Y955197D01*
X537732Y954508D01*
X539230Y953507D01*
X540503Y952234D01*
X541504Y950736D01*
X542193Y949071D01*
X542545Y947305D01*
X542545Y941323D01*
X534923Y941323D01*
G37*
%LPD*%
%LPC*%
G36*
X954023Y788923D02*
X954023Y788923D01*
X954023Y803025D01*
X955167Y802797D01*
X956832Y802108D01*
X958330Y801107D01*
X959603Y799834D01*
X960604Y798336D01*
X961293Y796671D01*
X961645Y794905D01*
X961645Y788923D01*
X954023Y788923D01*
G37*
%LPD*%
%LPC*%
G36*
X534923Y938277D02*
X534923Y938277D01*
X542545Y938277D01*
X542545Y932295D01*
X542193Y930529D01*
X541504Y928864D01*
X540503Y927366D01*
X539230Y926093D01*
X537732Y925092D01*
X536067Y924403D01*
X534923Y924175D01*
X534923Y938277D01*
G37*
%LPD*%
%LPC*%
G36*
X954023Y785877D02*
X954023Y785877D01*
X961645Y785877D01*
X961645Y779895D01*
X961293Y778129D01*
X960604Y776464D01*
X959603Y774966D01*
X958330Y773693D01*
X956832Y772692D01*
X955167Y772003D01*
X954023Y771775D01*
X954023Y785877D01*
G37*
%LPD*%
%LPC*%
G36*
X943355Y788923D02*
X943355Y788923D01*
X943355Y794905D01*
X943707Y796671D01*
X944396Y798336D01*
X945397Y799834D01*
X946670Y801107D01*
X948168Y802108D01*
X949833Y802797D01*
X950977Y803025D01*
X950977Y788923D01*
X943355Y788923D01*
G37*
%LPD*%
%LPC*%
G36*
X524255Y941323D02*
X524255Y941323D01*
X524255Y947305D01*
X524607Y949071D01*
X525296Y950736D01*
X526297Y952234D01*
X527570Y953507D01*
X529068Y954508D01*
X530733Y955197D01*
X531877Y955425D01*
X531877Y941323D01*
X524255Y941323D01*
G37*
%LPD*%
%LPC*%
G36*
X530733Y924403D02*
X530733Y924403D01*
X529068Y925092D01*
X527570Y926093D01*
X526297Y927366D01*
X525296Y928864D01*
X524607Y930529D01*
X524255Y932295D01*
X524255Y938277D01*
X531877Y938277D01*
X531877Y924175D01*
X530733Y924403D01*
G37*
%LPD*%
%LPC*%
G36*
X949833Y772003D02*
X949833Y772003D01*
X948168Y772692D01*
X946670Y773693D01*
X945397Y774966D01*
X944396Y776464D01*
X943707Y778129D01*
X943355Y779895D01*
X943355Y785877D01*
X950977Y785877D01*
X950977Y771775D01*
X949833Y772003D01*
G37*
%LPD*%
%LPC*%
G36*
X166623Y903223D02*
X166623Y903223D01*
X166623Y911861D01*
X169309Y911861D01*
X175261Y905909D01*
X175261Y903223D01*
X166623Y903223D01*
G37*
%LPD*%
%LPC*%
G36*
X154939Y903223D02*
X154939Y903223D01*
X154939Y905909D01*
X160891Y911861D01*
X163577Y911861D01*
X163577Y903223D01*
X154939Y903223D01*
G37*
%LPD*%
%LPC*%
G36*
X1284223Y890523D02*
X1284223Y890523D01*
X1284223Y898145D01*
X1286488Y898145D01*
X1291845Y892788D01*
X1291845Y890523D01*
X1284223Y890523D01*
G37*
%LPD*%
%LPC*%
G36*
X484123Y877823D02*
X484123Y877823D01*
X484123Y885445D01*
X486388Y885445D01*
X491745Y880088D01*
X491745Y877823D01*
X484123Y877823D01*
G37*
%LPD*%
%LPC*%
G36*
X1284223Y839723D02*
X1284223Y839723D01*
X1284223Y847345D01*
X1286488Y847345D01*
X1291845Y841988D01*
X1291845Y839723D01*
X1284223Y839723D01*
G37*
%LPD*%
%LPC*%
G36*
X484123Y941323D02*
X484123Y941323D01*
X484123Y948945D01*
X486388Y948945D01*
X491745Y943588D01*
X491745Y941323D01*
X484123Y941323D01*
G37*
%LPD*%
%LPC*%
G36*
X473455Y941323D02*
X473455Y941323D01*
X473455Y943588D01*
X478812Y948945D01*
X481077Y948945D01*
X481077Y941323D01*
X473455Y941323D01*
G37*
%LPD*%
%LPC*%
G36*
X1273555Y839723D02*
X1273555Y839723D01*
X1273555Y841988D01*
X1278912Y847345D01*
X1281177Y847345D01*
X1281177Y839723D01*
X1273555Y839723D01*
G37*
%LPD*%
%LPC*%
G36*
X484123Y930655D02*
X484123Y930655D01*
X484123Y938277D01*
X491745Y938277D01*
X491745Y936012D01*
X486388Y930655D01*
X484123Y930655D01*
G37*
%LPD*%
%LPC*%
G36*
X1273555Y890523D02*
X1273555Y890523D01*
X1273555Y892788D01*
X1278912Y898145D01*
X1281177Y898145D01*
X1281177Y890523D01*
X1273555Y890523D01*
G37*
%LPD*%
%LPC*%
G36*
X1284223Y829055D02*
X1284223Y829055D01*
X1284223Y836677D01*
X1291845Y836677D01*
X1291845Y834412D01*
X1286488Y829055D01*
X1284223Y829055D01*
G37*
%LPD*%
%LPC*%
G36*
X674623Y829055D02*
X674623Y829055D01*
X674623Y836677D01*
X682245Y836677D01*
X682245Y834412D01*
X676888Y829055D01*
X674623Y829055D01*
G37*
%LPD*%
%LPC*%
G36*
X1284223Y879855D02*
X1284223Y879855D01*
X1284223Y887477D01*
X1291845Y887477D01*
X1291845Y885212D01*
X1286488Y879855D01*
X1284223Y879855D01*
G37*
%LPD*%
%LPC*%
G36*
X1208023Y740155D02*
X1208023Y740155D01*
X1208023Y747777D01*
X1215645Y747777D01*
X1215645Y745512D01*
X1210288Y740155D01*
X1208023Y740155D01*
G37*
%LPD*%
%LPC*%
G36*
X478812Y930655D02*
X478812Y930655D01*
X473455Y936012D01*
X473455Y938277D01*
X481077Y938277D01*
X481077Y930655D01*
X478812Y930655D01*
G37*
%LPD*%
%LPC*%
G36*
X1278912Y879855D02*
X1278912Y879855D01*
X1273555Y885212D01*
X1273555Y887477D01*
X1281177Y887477D01*
X1281177Y879855D01*
X1278912Y879855D01*
G37*
%LPD*%
%LPC*%
G36*
X1278912Y829055D02*
X1278912Y829055D01*
X1273555Y834412D01*
X1273555Y836677D01*
X1281177Y836677D01*
X1281177Y829055D01*
X1278912Y829055D01*
G37*
%LPD*%
%LPC*%
G36*
X952499Y787399D02*
X952499Y787399D01*
X952499Y787401D01*
X952501Y787401D01*
X952501Y787399D01*
X952499Y787399D01*
G37*
%LPD*%
%LPC*%
G36*
X990599Y939799D02*
X990599Y939799D01*
X990599Y939801D01*
X990601Y939801D01*
X990601Y939799D01*
X990599Y939799D01*
G37*
%LPD*%
%LPC*%
G36*
X1282699Y888999D02*
X1282699Y888999D01*
X1282699Y889001D01*
X1282701Y889001D01*
X1282701Y888999D01*
X1282699Y888999D01*
G37*
%LPD*%
%LPC*%
G36*
X1282699Y838199D02*
X1282699Y838199D01*
X1282699Y838201D01*
X1282701Y838201D01*
X1282701Y838199D01*
X1282699Y838199D01*
G37*
%LPD*%
%LPC*%
G36*
X838199Y939799D02*
X838199Y939799D01*
X838199Y939801D01*
X838201Y939801D01*
X838201Y939799D01*
X838199Y939799D01*
G37*
%LPD*%
%LPC*%
G36*
X533399Y939799D02*
X533399Y939799D01*
X533399Y939801D01*
X533401Y939801D01*
X533401Y939799D01*
X533399Y939799D01*
G37*
%LPD*%
%LPC*%
G36*
X914399Y939799D02*
X914399Y939799D01*
X914399Y939801D01*
X914401Y939801D01*
X914401Y939799D01*
X914399Y939799D01*
G37*
%LPD*%
%LPC*%
G36*
X482599Y939799D02*
X482599Y939799D01*
X482599Y939801D01*
X482601Y939801D01*
X482601Y939799D01*
X482599Y939799D01*
G37*
%LPD*%
D10*
X33380Y40872D03*
X58780Y40872D03*
X84180Y40872D03*
X109580Y40872D03*
X134980Y40872D03*
X160380Y40872D03*
X185780Y40872D03*
X211180Y40872D03*
X236580Y40872D03*
X261980Y40872D03*
X287380Y40872D03*
X312780Y40872D03*
X338180Y40872D03*
X363580Y40872D03*
X388980Y40872D03*
X414380Y40872D03*
X439780Y40872D03*
X465180Y40872D03*
X490580Y40872D03*
X515980Y40872D03*
X541380Y40872D03*
X566780Y40872D03*
X592180Y40872D03*
X617580Y40872D03*
X642980Y40872D03*
X668380Y40872D03*
X693780Y40872D03*
X719180Y40872D03*
X744580Y40872D03*
X769980Y40872D03*
X795380Y40872D03*
X820780Y40872D03*
X846180Y40872D03*
X871580Y40872D03*
X896980Y40872D03*
X922380Y40872D03*
X947780Y40872D03*
X973180Y40872D03*
X998580Y40872D03*
X1023980Y40872D03*
X1049380Y40872D03*
X1074780Y40872D03*
X1100180Y40872D03*
X1125580Y40872D03*
X1150980Y40872D03*
X1176380Y40872D03*
X1201780Y40872D03*
X1227180Y40872D03*
X1252580Y40872D03*
X1277980Y40872D03*
D11*
X762000Y183896D02*
X762000Y197104D01*
X787400Y197104D02*
X787400Y183896D01*
X812800Y183896D02*
X812800Y197104D01*
X838200Y197104D02*
X838200Y183896D01*
X863600Y183896D02*
X863600Y197104D01*
X889000Y197104D02*
X889000Y183896D01*
X914400Y183896D02*
X914400Y197104D01*
X939800Y197104D02*
X939800Y183896D01*
X965200Y183896D02*
X965200Y197104D01*
X990600Y197104D02*
X990600Y183896D01*
X1016000Y183896D02*
X1016000Y197104D01*
X1041400Y197104D02*
X1041400Y183896D01*
X1041400Y260096D02*
X1041400Y273304D01*
X1016000Y273304D02*
X1016000Y260096D01*
X990600Y260096D02*
X990600Y273304D01*
X965200Y273304D02*
X965200Y260096D01*
X939800Y260096D02*
X939800Y273304D01*
X914400Y273304D02*
X914400Y260096D01*
X889000Y260096D02*
X889000Y273304D01*
X863600Y273304D02*
X863600Y260096D01*
X838200Y260096D02*
X838200Y273304D01*
X812800Y273304D02*
X812800Y260096D01*
X787400Y260096D02*
X787400Y273304D01*
X762000Y273304D02*
X762000Y260096D01*
D12*
X876300Y114300D03*
D13*
X939800Y932688D02*
X939800Y946912D01*
X914400Y946912D02*
X914400Y932688D01*
X1016000Y932688D02*
X1016000Y946912D01*
X990600Y946912D02*
X990600Y932688D01*
D14*
X914400Y889000D03*
X990600Y889000D03*
X939800Y863600D03*
X1016000Y863600D03*
D12*
X723900Y114300D03*
X1003300Y114300D03*
X698500Y114300D03*
X749300Y114300D03*
X673100Y114300D03*
X774700Y114300D03*
D11*
X501904Y533400D02*
X488696Y533400D01*
X488696Y508000D02*
X501904Y508000D01*
X501904Y381000D02*
X488696Y381000D01*
X564896Y381000D02*
X578104Y381000D01*
X501904Y482600D02*
X488696Y482600D01*
X488696Y457200D02*
X501904Y457200D01*
X501904Y406400D02*
X488696Y406400D01*
X488696Y431800D02*
X501904Y431800D01*
X564896Y406400D02*
X578104Y406400D01*
X578104Y431800D02*
X564896Y431800D01*
X564896Y457200D02*
X578104Y457200D01*
X578104Y482600D02*
X564896Y482600D01*
X564896Y508000D02*
X578104Y508000D01*
X578104Y533400D02*
X564896Y533400D01*
X698500Y666496D02*
X698500Y679704D01*
X723900Y679704D02*
X723900Y666496D01*
X850900Y666496D02*
X850900Y679704D01*
X876300Y679704D02*
X876300Y666496D01*
X749300Y666496D02*
X749300Y679704D01*
X774700Y679704D02*
X774700Y666496D01*
X825500Y666496D02*
X825500Y679704D01*
X800100Y679704D02*
X800100Y666496D01*
X876300Y742696D02*
X876300Y755904D01*
X850900Y755904D02*
X850900Y742696D01*
X825500Y742696D02*
X825500Y755904D01*
X800100Y755904D02*
X800100Y742696D01*
X774700Y742696D02*
X774700Y755904D01*
X749300Y755904D02*
X749300Y742696D01*
X723900Y742696D02*
X723900Y755904D01*
X698500Y755904D02*
X698500Y742696D01*
D15*
X939800Y673100D03*
X939800Y749300D03*
X914400Y673100D03*
X914400Y749300D03*
D11*
X673100Y540004D02*
X673100Y526796D01*
X698500Y526796D02*
X698500Y540004D01*
X825500Y540004D02*
X825500Y526796D01*
X850900Y526796D02*
X850900Y540004D01*
X723900Y540004D02*
X723900Y526796D01*
X749300Y526796D02*
X749300Y540004D01*
X800100Y540004D02*
X800100Y526796D01*
X774700Y526796D02*
X774700Y540004D01*
X876300Y540004D02*
X876300Y526796D01*
X901700Y526796D02*
X901700Y540004D01*
X901700Y602996D02*
X901700Y616204D01*
X876300Y616204D02*
X876300Y602996D01*
X850900Y602996D02*
X850900Y616204D01*
X825500Y616204D02*
X825500Y602996D01*
X800100Y602996D02*
X800100Y616204D01*
X774700Y616204D02*
X774700Y602996D01*
X749300Y602996D02*
X749300Y616204D01*
X723900Y616204D02*
X723900Y602996D01*
X698500Y602996D02*
X698500Y616204D01*
X673100Y616204D02*
X673100Y602996D01*
D16*
X139000Y279400D03*
D17*
X113600Y279400D03*
X139000Y304800D03*
X113600Y304800D03*
X139000Y330200D03*
X113600Y330200D03*
X139000Y355600D03*
X113600Y355600D03*
X139000Y381000D03*
X113600Y381000D03*
X139000Y406400D03*
X113600Y406400D03*
X139000Y431800D03*
X113600Y431800D03*
X139000Y457200D03*
X113600Y457200D03*
X139000Y482600D03*
X113600Y482600D03*
X139000Y508000D03*
X113600Y508000D03*
X139000Y533400D03*
X113600Y533400D03*
X139000Y558800D03*
X113600Y558800D03*
X139000Y584200D03*
X113600Y584200D03*
X139000Y609600D03*
X113600Y609600D03*
X139000Y635000D03*
X113600Y635000D03*
X139000Y660400D03*
X113600Y660400D03*
X139000Y685800D03*
X113600Y685800D03*
X139000Y711200D03*
X113600Y711200D03*
X139000Y736600D03*
X113600Y736600D03*
X139000Y762000D03*
X113600Y762000D03*
D18*
X356300Y230700D03*
X126300Y230700D03*
X126300Y810700D03*
X356300Y810700D03*
D19*
X1384300Y596900D03*
D20*
X1358900Y596900D03*
D11*
X673100Y387604D02*
X673100Y374396D01*
X698500Y374396D02*
X698500Y387604D01*
X825500Y387604D02*
X825500Y374396D01*
X850900Y374396D02*
X850900Y387604D01*
X723900Y387604D02*
X723900Y374396D01*
X749300Y374396D02*
X749300Y387604D01*
X800100Y387604D02*
X800100Y374396D01*
X774700Y374396D02*
X774700Y387604D01*
X876300Y387604D02*
X876300Y374396D01*
X901700Y374396D02*
X901700Y387604D01*
X901700Y450596D02*
X901700Y463804D01*
X876300Y463804D02*
X876300Y450596D01*
X850900Y450596D02*
X850900Y463804D01*
X825500Y463804D02*
X825500Y450596D01*
X800100Y450596D02*
X800100Y463804D01*
X774700Y463804D02*
X774700Y450596D01*
X749300Y450596D02*
X749300Y463804D01*
X723900Y463804D02*
X723900Y450596D01*
X698500Y450596D02*
X698500Y463804D01*
X673100Y463804D02*
X673100Y450596D01*
D16*
X344660Y280550D03*
D17*
X370060Y280550D03*
X344660Y305950D03*
X370060Y305950D03*
X344660Y331350D03*
X370060Y331350D03*
X344660Y356750D03*
X370060Y356750D03*
X344660Y382150D03*
X370060Y382150D03*
X344660Y407550D03*
X370060Y407550D03*
X344660Y432950D03*
X370060Y432950D03*
X344660Y458350D03*
X370060Y458350D03*
X344660Y483750D03*
X370060Y483750D03*
X344660Y509150D03*
X370060Y509150D03*
X344660Y534550D03*
X370060Y534550D03*
X344660Y559950D03*
X370060Y559950D03*
X344660Y585350D03*
X370060Y585350D03*
X344660Y610750D03*
X370060Y610750D03*
X344660Y636150D03*
X370060Y636150D03*
X344660Y661550D03*
X370060Y661550D03*
X344660Y686950D03*
X370060Y686950D03*
X344660Y712350D03*
X370060Y712350D03*
X344660Y737750D03*
X370060Y737750D03*
X344660Y763150D03*
X370060Y763150D03*
D14*
X1422400Y152400D03*
X1447800Y152400D03*
D21*
X647700Y609600D03*
X647700Y584200D03*
X647700Y457200D03*
X647700Y431800D03*
D22*
X1308100Y889000D03*
X1282700Y889000D03*
D21*
X736600Y266700D03*
X736600Y241300D03*
X1092200Y266700D03*
X1092200Y241300D03*
D23*
X1358900Y931550D02*
X1358900Y948050D01*
X1333500Y948050D02*
X1333500Y931550D01*
X1308100Y931550D02*
X1308100Y948050D01*
X1282700Y948050D02*
X1282700Y931550D01*
X1257300Y931550D02*
X1257300Y948050D01*
X1231900Y948050D02*
X1231900Y931550D01*
X1206500Y931550D02*
X1206500Y948050D01*
X1181100Y948050D02*
X1181100Y931550D01*
X1155700Y931550D02*
X1155700Y948050D01*
X1130300Y948050D02*
X1130300Y931550D01*
X1104900Y931550D02*
X1104900Y948050D01*
X1079500Y948050D02*
X1079500Y931550D01*
X1079500Y795650D02*
X1079500Y779150D01*
X1104900Y779150D02*
X1104900Y795650D01*
X1130300Y795650D02*
X1130300Y779150D01*
X1155700Y779150D02*
X1155700Y795650D01*
X1181100Y795650D02*
X1181100Y779150D01*
X1206500Y779150D02*
X1206500Y795650D01*
X1231900Y795650D02*
X1231900Y779150D01*
X1257300Y779150D02*
X1257300Y795650D01*
X1282700Y795650D02*
X1282700Y779150D01*
X1308100Y779150D02*
X1308100Y795650D01*
X1333500Y795650D02*
X1333500Y779150D01*
X1358900Y779150D02*
X1358900Y795650D01*
D14*
X1295400Y749300D03*
X1371600Y749300D03*
D22*
X1231900Y749300D03*
X1206500Y749300D03*
D24*
X1202182Y698500D02*
X1185418Y698500D01*
X1312418Y698500D02*
X1329182Y698500D01*
D21*
X1092200Y457200D03*
X1092200Y431800D03*
D12*
X254000Y431800D03*
X266700Y457200D03*
D11*
X457200Y197104D02*
X457200Y183896D01*
X482600Y183896D02*
X482600Y197104D01*
X609600Y197104D02*
X609600Y183896D01*
X635000Y183896D02*
X635000Y197104D01*
X508000Y197104D02*
X508000Y183896D01*
X533400Y183896D02*
X533400Y197104D01*
X584200Y197104D02*
X584200Y183896D01*
X558800Y183896D02*
X558800Y197104D01*
X660400Y197104D02*
X660400Y183896D01*
X685800Y183896D02*
X685800Y197104D01*
X685800Y260096D02*
X685800Y273304D01*
X660400Y273304D02*
X660400Y260096D01*
X635000Y260096D02*
X635000Y273304D01*
X609600Y273304D02*
X609600Y260096D01*
X584200Y260096D02*
X584200Y273304D01*
X558800Y273304D02*
X558800Y260096D01*
X533400Y260096D02*
X533400Y273304D01*
X508000Y273304D02*
X508000Y260096D01*
X482600Y260096D02*
X482600Y273304D01*
X457200Y273304D02*
X457200Y260096D01*
D21*
X431800Y266700D03*
X431800Y241300D03*
D11*
X508000Y856996D02*
X508000Y870204D01*
X533400Y870204D02*
X533400Y856996D01*
X660400Y856996D02*
X660400Y870204D01*
X685800Y870204D02*
X685800Y856996D01*
X558800Y856996D02*
X558800Y870204D01*
X584200Y870204D02*
X584200Y856996D01*
X635000Y856996D02*
X635000Y870204D01*
X609600Y870204D02*
X609600Y856996D01*
X685800Y933196D02*
X685800Y946404D01*
X660400Y946404D02*
X660400Y933196D01*
X635000Y933196D02*
X635000Y946404D01*
X609600Y946404D02*
X609600Y933196D01*
X584200Y933196D02*
X584200Y946404D01*
X558800Y946404D02*
X558800Y933196D01*
X533400Y933196D02*
X533400Y946404D01*
X508000Y946404D02*
X508000Y933196D01*
D14*
X520700Y838200D03*
X546100Y838200D03*
X584200Y838200D03*
X609600Y838200D03*
D15*
X482600Y850900D03*
X482600Y876300D03*
D22*
X673100Y838200D03*
X647700Y838200D03*
D15*
X482600Y914400D03*
X482600Y939800D03*
D25*
X279400Y901700D03*
X304800Y901700D03*
X279400Y927100D03*
X304800Y927100D03*
X342900Y901700D03*
X368300Y901700D03*
X342900Y927100D03*
X368300Y927100D03*
X406400Y901700D03*
X431800Y901700D03*
X406400Y927100D03*
X431800Y927100D03*
D12*
X114300Y901700D03*
X139700Y901700D03*
X165100Y901700D03*
X190500Y901700D03*
X215900Y901700D03*
X114300Y927100D03*
X139700Y927100D03*
X165100Y927100D03*
X190500Y927100D03*
X215900Y927100D03*
D11*
X952500Y794004D02*
X952500Y780796D01*
X927100Y780796D02*
X927100Y794004D01*
X901700Y794004D02*
X901700Y780796D01*
X876300Y780796D02*
X876300Y794004D01*
X850900Y794004D02*
X850900Y780796D01*
X825500Y780796D02*
X825500Y794004D01*
X800100Y794004D02*
X800100Y780796D01*
X774700Y780796D02*
X774700Y794004D01*
X749300Y794004D02*
X749300Y780796D01*
X723900Y780796D02*
X723900Y794004D01*
X698500Y794004D02*
X698500Y780796D01*
D24*
X1223518Y546100D02*
X1240282Y546100D01*
X1240282Y571500D02*
X1223518Y571500D01*
X1223518Y596900D02*
X1240282Y596900D01*
D21*
X1270000Y609600D03*
X1270000Y558800D03*
D15*
X1295400Y508000D03*
X1295400Y558800D03*
D11*
X1117600Y197104D02*
X1117600Y183896D01*
X1143000Y183896D02*
X1143000Y197104D01*
X1168400Y197104D02*
X1168400Y183896D01*
X1193800Y183896D02*
X1193800Y197104D01*
X1219200Y197104D02*
X1219200Y183896D01*
X1244600Y183896D02*
X1244600Y197104D01*
X1270000Y197104D02*
X1270000Y183896D01*
X1295400Y183896D02*
X1295400Y197104D01*
X1320800Y197104D02*
X1320800Y183896D01*
X1346200Y183896D02*
X1346200Y197104D01*
X1371600Y197104D02*
X1371600Y183896D01*
X1397000Y183896D02*
X1397000Y197104D01*
X1397000Y260096D02*
X1397000Y273304D01*
X1371600Y273304D02*
X1371600Y260096D01*
X1346200Y260096D02*
X1346200Y273304D01*
X1320800Y273304D02*
X1320800Y260096D01*
X1295400Y260096D02*
X1295400Y273304D01*
X1270000Y273304D02*
X1270000Y260096D01*
X1244600Y260096D02*
X1244600Y273304D01*
X1219200Y273304D02*
X1219200Y260096D01*
X1193800Y260096D02*
X1193800Y273304D01*
X1168400Y273304D02*
X1168400Y260096D01*
X1143000Y260096D02*
X1143000Y273304D01*
X1117600Y273304D02*
X1117600Y260096D01*
X1117600Y374396D02*
X1117600Y387604D01*
X1143000Y387604D02*
X1143000Y374396D01*
X1270000Y374396D02*
X1270000Y387604D01*
X1295400Y387604D02*
X1295400Y374396D01*
X1168400Y374396D02*
X1168400Y387604D01*
X1193800Y387604D02*
X1193800Y374396D01*
X1244600Y374396D02*
X1244600Y387604D01*
X1219200Y387604D02*
X1219200Y374396D01*
X1320800Y374396D02*
X1320800Y387604D01*
X1346200Y387604D02*
X1346200Y374396D01*
X1346200Y450596D02*
X1346200Y463804D01*
X1320800Y463804D02*
X1320800Y450596D01*
X1295400Y450596D02*
X1295400Y463804D01*
X1270000Y463804D02*
X1270000Y450596D01*
X1244600Y450596D02*
X1244600Y463804D01*
X1219200Y463804D02*
X1219200Y450596D01*
X1193800Y450596D02*
X1193800Y463804D01*
X1168400Y463804D02*
X1168400Y450596D01*
X1143000Y450596D02*
X1143000Y463804D01*
X1117600Y463804D02*
X1117600Y450596D01*
D26*
X1622900Y238125D03*
X1622900Y250825D03*
X1622900Y263525D03*
X1622900Y276225D03*
X1622900Y288925D03*
X1622900Y301625D03*
X1622900Y314325D03*
X1622900Y327025D03*
X1622900Y339725D03*
X1622900Y352425D03*
X1622900Y365125D03*
X1622900Y377825D03*
X1622900Y390525D03*
X1622900Y403225D03*
X1622900Y415925D03*
X1622900Y428625D03*
X1622900Y441325D03*
X1622900Y454025D03*
X1622900Y466725D03*
X1622900Y479425D03*
X1622900Y492125D03*
X1622900Y504825D03*
X1622900Y517525D03*
X1622900Y530225D03*
X1622900Y542925D03*
X1622900Y244475D03*
X1622900Y257175D03*
X1622900Y269875D03*
X1622900Y282575D03*
X1622900Y295275D03*
X1622900Y307975D03*
X1622900Y320675D03*
X1622900Y333375D03*
X1622900Y346075D03*
X1622900Y358775D03*
X1622900Y371475D03*
X1622900Y384175D03*
X1622900Y396875D03*
X1622900Y409575D03*
X1622900Y422275D03*
X1622900Y434975D03*
X1622900Y447675D03*
X1622900Y460375D03*
X1622900Y473075D03*
X1622900Y485775D03*
X1622900Y498475D03*
X1622900Y511175D03*
X1622900Y523875D03*
X1622900Y536575D03*
X1622900Y549275D03*
D27*
X1726250Y147638D03*
X1726500Y639763D03*
D15*
X1460500Y584200D03*
X1460500Y660400D03*
X1435100Y533400D03*
X1435100Y609600D03*
D21*
X1384300Y457200D03*
X1384300Y381000D03*
D28*
X1498600Y622300D03*
X1498600Y596900D03*
X1498600Y571500D03*
X1498600Y546100D03*
X1498600Y520700D03*
X1498600Y495300D03*
X1524000Y622300D03*
X1524000Y596900D03*
X1524000Y571500D03*
X1524000Y546100D03*
X1524000Y520700D03*
X1524000Y495300D03*
X1498600Y469900D03*
X1524000Y469900D03*
X1498600Y444500D03*
X1498600Y419100D03*
X1498600Y393700D03*
X1498600Y368300D03*
X1498600Y342900D03*
X1498600Y317500D03*
X1524000Y444500D03*
X1524000Y419100D03*
X1524000Y393700D03*
X1524000Y368300D03*
X1524000Y342900D03*
X1524000Y317500D03*
X1498600Y292100D03*
X1524000Y292100D03*
X1498600Y266700D03*
X1498600Y241300D03*
X1498600Y215900D03*
X1498600Y190500D03*
X1498600Y165100D03*
X1498600Y139700D03*
X1524000Y266700D03*
X1524000Y241300D03*
X1524000Y215900D03*
X1524000Y190500D03*
X1524000Y165100D03*
X1524000Y139700D03*
D13*
X1562100Y691388D02*
X1562100Y705612D01*
X1536700Y705612D02*
X1536700Y691388D01*
D22*
X571500Y558800D03*
X546100Y558800D03*
D29*
X1828800Y637540D03*
X1828800Y149860D03*
D13*
X762000Y932688D02*
X762000Y946912D01*
X787400Y946912D02*
X787400Y932688D01*
X812800Y932688D02*
X812800Y946912D01*
X838200Y946912D02*
X838200Y932688D01*
D11*
X1651000Y705104D02*
X1651000Y691896D01*
X1676400Y691896D02*
X1676400Y705104D01*
X1701800Y705104D02*
X1701800Y691896D01*
X1727200Y691896D02*
X1727200Y705104D01*
X1752600Y705104D02*
X1752600Y691896D01*
X1778000Y691896D02*
X1778000Y705104D01*
X1803400Y705104D02*
X1803400Y691896D01*
X1828800Y691896D02*
X1828800Y705104D01*
X1854200Y705104D02*
X1854200Y691896D01*
D22*
X1308100Y838200D03*
X1282700Y838200D03*
D30*
X34925Y82550D02*
X34925Y41275D01*
X46038Y82550D02*
X50800Y82550D01*
X46038Y82550D02*
X34925Y82550D01*
X50800Y82550D02*
X58738Y74613D01*
X58738Y41275D01*
X34925Y41275D02*
X33380Y40872D01*
X58738Y41275D02*
X58780Y40872D01*
X46038Y82550D02*
X46038Y85725D01*
X139000Y381000D02*
X344488Y381000D01*
X344660Y382150D01*
X533400Y939800D02*
X515938Y957263D01*
X500063Y957263D01*
X482600Y939800D01*
X344488Y584200D02*
X139000Y584200D01*
X344488Y584200D02*
X344660Y585350D01*
X344488Y762000D02*
X139000Y762000D01*
X344488Y762000D02*
X344660Y763150D01*
X896938Y431800D02*
X1071563Y431800D01*
X1092200Y431800D01*
X1346200Y381000D02*
X1384300Y381000D01*
X1093788Y242888D02*
X1092200Y241300D01*
X1093788Y242888D02*
X1243013Y242888D01*
X1258888Y258763D01*
X1258888Y312738D01*
X1276350Y312738D01*
X1344613Y381000D01*
X1346200Y381000D01*
X1071563Y428625D02*
X1071563Y431800D01*
X1228725Y82550D02*
X1228725Y41275D01*
X1239838Y82550D02*
X1244600Y82550D01*
X1239838Y82550D02*
X1228725Y82550D01*
X1244600Y82550D02*
X1252538Y74613D01*
X1252538Y41275D01*
X1228725Y41275D02*
X1227180Y40872D01*
X1252538Y41275D02*
X1252580Y40872D01*
X1277938Y41275D02*
X1277938Y82550D01*
X1244600Y82550D01*
X1277938Y41275D02*
X1277980Y40872D01*
X1239838Y82550D02*
X1239838Y85725D01*
X1624013Y403225D02*
X1624013Y409575D01*
X1624013Y403225D02*
X1622900Y403225D01*
X1622900Y409575D02*
X1624013Y409575D01*
X1624013Y411163D02*
X1624013Y415925D01*
X1622900Y415925D01*
X1624013Y411163D02*
X1622900Y409575D01*
X1622900Y428625D02*
X1643063Y428625D01*
X1644650Y427038D01*
X1644650Y415925D01*
X1622900Y415925D01*
X1622900Y441325D02*
X1643063Y441325D01*
X1644650Y439738D01*
X1644650Y428625D01*
X1643063Y428625D01*
X1622900Y327025D02*
X1603375Y327025D01*
X1600200Y330200D01*
X1600200Y339725D01*
X1622900Y339725D01*
X1622900Y352425D02*
X1603375Y352425D01*
X1600200Y349250D01*
X1600200Y339725D01*
X1603375Y365125D02*
X1622900Y365125D01*
X1603375Y365125D02*
X1600200Y361950D01*
X1600200Y352425D01*
X1603375Y352425D01*
X1603375Y377825D02*
X1622900Y377825D01*
X1603375Y377825D02*
X1600200Y374650D01*
X1600200Y368300D02*
X1600200Y365125D01*
X1600200Y368300D02*
X1600200Y374650D01*
X1600200Y365125D02*
X1603375Y365125D01*
X1603375Y403225D02*
X1622900Y403225D01*
X1603375Y403225D02*
X1600200Y400050D01*
X1600200Y377825D01*
X1603375Y377825D01*
X1511300Y152400D02*
X1447800Y152400D01*
X1511300Y152400D02*
X1524000Y139700D01*
X1554163Y238125D02*
X1622900Y238125D01*
X1600200Y368300D02*
X1524000Y368300D01*
X1338263Y141288D02*
X1279525Y82550D01*
X1338263Y141288D02*
X1435100Y141288D01*
X1446213Y152400D01*
X1279525Y82550D02*
X1277938Y82550D01*
X1446213Y152400D02*
X1447800Y152400D01*
X1385888Y381000D02*
X1398588Y393700D01*
X1498600Y393700D01*
X1385888Y381000D02*
X1384300Y381000D01*
X508000Y190500D02*
X482600Y190500D01*
X482600Y241300D02*
X431800Y241300D01*
X508000Y190500D02*
X533400Y190500D01*
X558800Y190500D01*
X374650Y327025D02*
X371475Y330200D01*
X374650Y327025D02*
X492125Y327025D01*
X371475Y330200D02*
X370060Y331350D01*
X668338Y207963D02*
X685800Y190500D01*
X668338Y207963D02*
X577850Y207963D01*
X560388Y190500D01*
X558800Y190500D01*
X571500Y584200D02*
X647700Y584200D01*
X838200Y939800D02*
X914400Y939800D01*
X915988Y939800D02*
X935038Y920750D01*
X971550Y920750D01*
X990600Y939800D01*
X915988Y939800D02*
X914400Y939800D01*
X1422400Y596900D02*
X1435100Y609600D01*
X1422400Y596900D02*
X1384300Y596900D01*
X1511300Y609600D02*
X1524000Y622300D01*
X1511300Y609600D02*
X1435100Y609600D01*
X1295400Y558800D02*
X1270000Y558800D01*
X1244600Y558800D02*
X1231900Y571500D01*
X1244600Y558800D02*
X1270000Y558800D01*
X1616075Y555625D02*
X1622425Y549275D01*
X1616075Y555625D02*
X1531938Y555625D01*
X1528763Y558800D01*
X1341438Y558800D02*
X1295400Y558800D01*
X1341438Y558800D02*
X1528763Y558800D01*
X1622425Y549275D02*
X1622900Y549275D01*
X1382713Y596900D02*
X1363663Y577850D01*
X1358900Y577850D01*
X1341438Y560388D01*
X1382713Y596900D02*
X1384300Y596900D01*
X1341438Y560388D02*
X1341438Y558800D01*
X1038225Y877888D02*
X984250Y931863D01*
X1038225Y877888D02*
X1146175Y877888D01*
X1206500Y938213D01*
X1206500Y939800D01*
X990600Y939800D02*
X984250Y931863D01*
X695325Y815975D02*
X673100Y838200D01*
X695325Y815975D02*
X968375Y815975D01*
X982663Y801688D01*
X982663Y787400D01*
X952500Y787400D01*
X496888Y382588D02*
X495300Y381000D01*
X496888Y382588D02*
X534988Y382588D01*
X571500Y903288D02*
X534988Y939800D01*
X571500Y903288D02*
X642938Y903288D01*
X534988Y939800D02*
X533400Y939800D01*
D31*
X46038Y85725D03*
X896938Y431800D03*
X1071563Y428625D03*
X1239838Y85725D03*
X1554163Y238125D03*
X482600Y241300D03*
X492125Y327025D03*
X571500Y584200D03*
X534988Y382588D03*
X642938Y903288D03*
D32*
X681038Y146050D02*
X676275Y141288D01*
X549275Y141288D01*
X544513Y136525D01*
X400050Y136525D01*
D31*
X681038Y146050D03*
X400050Y136525D03*
D32*
X787400Y190500D02*
X804863Y207963D01*
X976313Y207963D02*
X1444625Y207963D01*
X976313Y207963D02*
X804863Y207963D01*
X1444625Y207963D02*
X1462088Y190500D01*
X1498600Y190500D01*
X1597025Y479425D02*
X1622900Y479425D01*
X390525Y87313D02*
X390525Y41275D01*
X390525Y87313D02*
X398463Y87313D01*
X436563Y344488D02*
X549275Y344488D01*
X557213Y469900D02*
X558800Y471488D01*
X639763Y471488D01*
X650875Y482600D01*
X893763Y482600D01*
X923925Y468313D02*
X950913Y441325D01*
X971550Y441325D01*
X390525Y41275D02*
X388980Y40872D01*
D31*
X1597025Y479425D03*
X398463Y87313D03*
X436563Y344488D03*
X549275Y344488D03*
X557213Y469900D03*
X893763Y482600D03*
X923925Y468313D03*
X971550Y441325D03*
X976313Y207963D03*
D32*
X1498600Y215900D02*
X1501775Y219075D01*
X1511300Y219075D01*
X1520825Y228600D01*
X1631950Y228600D01*
X1671638Y436563D02*
X1641475Y466725D01*
X1622900Y466725D01*
X796131Y173831D02*
X792163Y169863D01*
X796131Y173831D02*
X812800Y190500D01*
X792163Y169863D02*
X419100Y169863D01*
X1054100Y163513D02*
X1433513Y163513D01*
X1054100Y163513D02*
X1044575Y153988D01*
X855663Y153988D01*
X836613Y173038D01*
X796925Y173038D01*
X796131Y173831D01*
D31*
X1631950Y228600D03*
X1671638Y436563D03*
X419100Y169863D03*
X1433513Y163513D03*
D32*
X855663Y173038D02*
X838200Y190500D01*
X1001713Y173038D02*
X1490663Y173038D01*
X1001713Y173038D02*
X855663Y173038D01*
X1490663Y173038D02*
X1497013Y179388D01*
X1512888Y179388D01*
X1524000Y190500D01*
X1622900Y454025D02*
X1641475Y454025D01*
X1687513Y407988D01*
X1682750Y233363D02*
X1660525Y211138D01*
X1544638Y211138D01*
X1524000Y190500D01*
X415925Y87313D02*
X415925Y41275D01*
X415925Y87313D02*
X423863Y87313D01*
X427038Y117475D02*
X422275Y122238D01*
X309563Y122238D01*
X304800Y117475D01*
X415925Y788988D02*
X425450Y798513D01*
X657225Y798513D01*
X668338Y809625D01*
X960438Y809625D01*
X973138Y796925D01*
X415925Y41275D02*
X414380Y40872D01*
D31*
X1687513Y407988D03*
X1682750Y233363D03*
X423863Y87313D03*
X427038Y117475D03*
X304800Y117475D03*
X415925Y788988D03*
X973138Y796925D03*
X1001713Y173038D03*
D32*
X1041400Y163513D02*
X869950Y163513D01*
X1035050Y692150D02*
X1012825Y714375D01*
X573088Y714375D01*
X487363Y611188D02*
X474663Y598488D01*
X333375Y598488D01*
X317500Y112713D02*
X319088Y111125D01*
X420688Y111125D01*
X423863Y107950D01*
X446088Y107950D01*
D31*
X869950Y163513D03*
X1041400Y163513D03*
X1035050Y692150D03*
X573088Y714375D03*
X487363Y611188D03*
X333375Y598488D03*
X317500Y112713D03*
X446088Y107950D03*
D32*
X925513Y328613D02*
X962025Y328613D01*
X962025Y665163D02*
X917575Y709613D01*
X619125Y709613D01*
X614363Y704850D01*
X528638Y328613D02*
X515938Y315913D01*
X395288Y315913D01*
X387350Y96838D02*
X379413Y88900D01*
X387350Y96838D02*
X427038Y96838D01*
X439738Y84138D01*
X439738Y41275D01*
X439780Y40872D01*
D31*
X925513Y328613D03*
X962025Y328613D03*
X962025Y665163D03*
X614363Y704850D03*
X528638Y328613D03*
X395288Y315913D03*
X379413Y88900D03*
D32*
X830263Y325438D02*
X833438Y328613D01*
X830263Y325438D02*
X755650Y325438D01*
X736600Y344488D01*
X657225Y344488D01*
X652463Y339725D01*
X630238Y373063D02*
X614363Y388938D01*
X611188Y388938D01*
X608013Y392113D01*
X479425Y392113D01*
D31*
X833438Y328613D03*
X652463Y339725D03*
X630238Y373063D03*
X479425Y392113D03*
D32*
X927100Y244475D02*
X935038Y236538D01*
X927100Y244475D02*
X747713Y244475D01*
X739775Y252413D01*
X692150Y252413D01*
X676275Y236538D01*
X660400Y236538D01*
X615950Y117475D02*
X620713Y112713D01*
X615950Y117475D02*
X512763Y117475D01*
X500063Y104775D01*
X477838Y85725D02*
X466725Y74613D01*
X466725Y41275D01*
X465180Y40872D01*
D31*
X935038Y236538D03*
X660400Y236538D03*
X620713Y112713D03*
X500063Y104775D03*
X477838Y85725D03*
D32*
X830263Y165100D02*
X839788Y155575D01*
X830263Y165100D02*
X547688Y165100D01*
X528638Y146050D01*
D31*
X839788Y155575D03*
X528638Y146050D03*
D32*
X933450Y496888D02*
X942975Y487363D01*
X933450Y496888D02*
X527050Y496888D01*
X504825Y519113D01*
X428625Y519113D01*
X404813Y236538D02*
X382588Y214313D01*
X374650Y101600D02*
X439738Y101600D01*
X446088Y95250D01*
X481013Y95250D01*
X490538Y85725D01*
X490538Y41275D01*
X490580Y40872D01*
D31*
X942975Y487363D03*
X428625Y519113D03*
X404813Y236538D03*
X382588Y214313D03*
X374650Y101600D03*
D32*
X798513Y217488D02*
X884238Y217488D01*
X685800Y104775D02*
X682625Y101600D01*
X649288Y101600D01*
X646113Y98425D01*
X611188Y98425D01*
X601663Y107950D01*
X531813Y107950D01*
D31*
X884238Y217488D03*
X798513Y217488D03*
X685800Y104775D03*
X531813Y107950D03*
D32*
X871538Y249238D02*
X889000Y266700D01*
X871538Y249238D02*
X755650Y249238D01*
X747713Y257175D01*
X741363Y320675D02*
X744538Y323850D01*
X741363Y320675D02*
X581025Y320675D01*
X576263Y315913D01*
X557213Y211138D02*
X508000Y211138D01*
X490538Y112713D02*
X490538Y93663D01*
X495300Y93663D01*
X515938Y73025D01*
X515938Y41275D01*
X515980Y40872D01*
D31*
X747713Y257175D03*
X744538Y323850D03*
X576263Y315913D03*
X557213Y211138D03*
X508000Y211138D03*
X490538Y112713D03*
D32*
X847725Y146050D02*
X849313Y147638D01*
X847725Y146050D02*
X693738Y146050D01*
X684213Y155575D01*
X592138Y155575D01*
X582613Y146050D01*
X541338Y146050D01*
D31*
X849313Y147638D03*
X541338Y146050D03*
D32*
X742950Y160338D02*
X747713Y155575D01*
X742950Y160338D02*
X584200Y160338D01*
X579438Y155575D01*
X569913Y98425D02*
X552450Y80963D01*
X549275Y80963D01*
X542925Y74613D01*
X542925Y41275D01*
X541380Y40872D01*
D31*
X747713Y155575D03*
X579438Y155575D03*
X569913Y98425D03*
D32*
X919163Y131763D02*
X922338Y134938D01*
X919163Y131763D02*
X588963Y131763D01*
D31*
X922338Y134938D03*
X588963Y131763D03*
D32*
X955675Y477838D02*
X992188Y441325D01*
X955675Y477838D02*
X901700Y477838D01*
X887413Y463550D01*
X887413Y423863D01*
X695325Y423863D01*
X688975Y417513D01*
X650875Y93663D02*
X652463Y92075D01*
X650875Y93663D02*
X608013Y93663D01*
X601663Y100013D01*
X593725Y100013D01*
X568325Y74613D01*
X568325Y41275D01*
X566780Y40872D01*
D31*
X992188Y441325D03*
X688975Y417513D03*
X652463Y92075D03*
D32*
X703263Y419100D02*
X1116013Y419100D01*
X703263Y419100D02*
X692150Y407988D01*
X685800Y407988D01*
X679450Y414338D01*
X679450Y442913D01*
X684213Y442913D01*
X698500Y457200D01*
X1165225Y873125D02*
X1231900Y939800D01*
X1165225Y873125D02*
X1158875Y873125D01*
X303213Y420688D02*
X298450Y415925D01*
X303213Y420688D02*
X385763Y420688D01*
X427038Y461963D01*
X436563Y582613D02*
X447675Y593725D01*
X642938Y593725D01*
X644525Y595313D01*
X666750Y595313D01*
X682625Y579438D01*
X693738Y579438D01*
D31*
X1116013Y419100D03*
X1158875Y873125D03*
X298450Y415925D03*
X427038Y461963D03*
X436563Y582613D03*
X693738Y579438D03*
D32*
X698500Y439738D02*
X688975Y430213D01*
X698500Y439738D02*
X706438Y439738D01*
X723900Y457200D01*
X1146175Y439738D02*
X1166813Y419100D01*
X1146175Y439738D02*
X1098550Y439738D01*
X1092200Y446088D01*
X1066800Y446088D02*
X1046163Y446088D01*
X1066800Y446088D02*
X1092200Y446088D01*
X1046163Y446088D02*
X985838Y506413D01*
X723900Y506413D01*
X1165225Y704850D02*
X1193800Y733425D01*
X1165225Y704850D02*
X1165225Y557213D01*
X1181100Y541338D01*
X1181100Y504825D01*
X1125538Y504825D01*
X1066800Y446088D01*
X185738Y204788D02*
X185738Y41275D01*
X185738Y204788D02*
X120650Y204788D01*
X90488Y234950D01*
X90488Y622300D01*
X338138Y622300D01*
X339725Y623888D01*
X398463Y623888D01*
X401638Y620713D01*
X595313Y620713D01*
X598488Y623888D01*
X614363Y563563D02*
X617538Y560388D01*
X722313Y560388D01*
X185738Y41275D02*
X185780Y40872D01*
D31*
X688975Y430213D03*
X1166813Y419100D03*
X723900Y506413D03*
X1193800Y733425D03*
X598488Y623888D03*
X614363Y563563D03*
X722313Y560388D03*
D32*
X639763Y309563D02*
X636588Y306388D01*
X639763Y309563D02*
X755650Y309563D01*
X1165225Y409575D02*
X1193800Y381000D01*
X1044575Y409575D02*
X760413Y409575D01*
X1044575Y409575D02*
X1165225Y409575D01*
X1103313Y887413D02*
X1155700Y939800D01*
X1103313Y887413D02*
X1044575Y887413D01*
X311150Y185738D02*
X303213Y177800D01*
X311150Y185738D02*
X392113Y185738D01*
X430213Y406400D02*
X441325Y417513D01*
X596900Y417513D01*
X615950Y398463D01*
D31*
X636588Y306388D03*
X755650Y309563D03*
X760413Y409575D03*
X1044575Y887413D03*
X1044575Y409575D03*
X303213Y177800D03*
X392113Y185738D03*
X430213Y406400D03*
X615950Y398463D03*
D32*
X609600Y363538D02*
X785813Y363538D01*
X1201738Y363538D02*
X1219200Y381000D01*
X1054100Y363538D02*
X785813Y363538D01*
X1054100Y363538D02*
X1201738Y363538D01*
X1104900Y914400D02*
X1130300Y939800D01*
X1104900Y914400D02*
X1069975Y914400D01*
X1054100Y368300D02*
X1054100Y363538D01*
X212725Y85725D02*
X212725Y41275D01*
X212725Y85725D02*
X223838Y85725D01*
X298450Y160338D02*
X501650Y160338D01*
X538163Y230188D02*
X557213Y249238D01*
X592138Y249238D01*
X609600Y266700D01*
X212725Y41275D02*
X211180Y40872D01*
D31*
X609600Y363538D03*
X785813Y363538D03*
X1069975Y914400D03*
X1054100Y368300D03*
X223838Y85725D03*
X298450Y160338D03*
X501650Y160338D03*
X538163Y230188D03*
D32*
X585788Y344488D02*
X590550Y349250D01*
X641350Y349250D01*
X646113Y354013D01*
X774700Y354013D01*
X779463Y349250D01*
X806450Y349250D01*
X811213Y344488D01*
X1208088Y344488D02*
X1213644Y350044D01*
X1244600Y381000D01*
X1208088Y344488D02*
X811213Y344488D01*
X1208088Y355600D02*
X1213644Y350044D01*
X447675Y127000D02*
X277813Y127000D01*
X447675Y127000D02*
X452438Y131763D01*
X552450Y131763D01*
D31*
X585788Y344488D03*
X811213Y344488D03*
X1208088Y355600D03*
X277813Y127000D03*
X552450Y131763D03*
D32*
X565150Y334963D02*
X635000Y334963D01*
X649288Y349250D01*
X771525Y349250D01*
X776288Y344488D01*
X798513Y344488D01*
X808038Y334963D01*
X819150Y334963D01*
X1227138Y338138D02*
X1270000Y381000D01*
X1227138Y338138D02*
X822325Y338138D01*
X819150Y334963D01*
X915988Y560388D02*
X1063625Y708025D01*
X915988Y560388D02*
X852488Y560388D01*
X825500Y533400D01*
X238125Y85725D02*
X238125Y41275D01*
X238125Y85725D02*
X249238Y85725D01*
X303213Y139700D02*
X314325Y150813D01*
X514350Y150813D01*
X238125Y41275D02*
X236580Y40872D01*
D31*
X565150Y334963D03*
X819150Y334963D03*
X1063625Y708025D03*
X249238Y85725D03*
X303213Y139700D03*
X514350Y150813D03*
D32*
X498475Y231775D02*
X533400Y266700D01*
X498475Y231775D02*
X436563Y231775D01*
X434975Y230188D01*
X423863Y230188D01*
X400050Y254000D01*
X369888Y254000D01*
X1295400Y381000D02*
X1306513Y392113D01*
X1306513Y414338D01*
X1198563Y414338D01*
X1166813Y534988D02*
X1154113Y547688D01*
X1025525Y547688D02*
X915988Y547688D01*
X1025525Y547688D02*
X1154113Y547688D01*
X915988Y547688D02*
X908050Y555625D01*
X873125Y555625D01*
X850900Y533400D01*
X1079500Y595313D02*
X1079500Y723900D01*
X1079500Y787400D01*
X1079500Y595313D02*
X1073150Y595313D01*
X1025525Y547688D01*
X538163Y368300D02*
X536575Y369888D01*
X479425Y369888D01*
X442913Y406400D01*
X442913Y630238D02*
X501650Y630238D01*
X595313Y723900D02*
X1079500Y723900D01*
D31*
X369888Y254000D03*
X1198563Y414338D03*
X1166813Y534988D03*
X538163Y368300D03*
X442913Y406400D03*
X442913Y630238D03*
X501650Y630238D03*
X595313Y723900D03*
D32*
X500063Y222250D02*
X485775Y207963D01*
X388938Y207963D01*
X385763Y204788D01*
X300038Y204788D01*
X263525Y168275D01*
X263525Y41275D01*
X261980Y40872D01*
X1258888Y319088D02*
X1320800Y381000D01*
X1258888Y319088D02*
X871538Y319088D01*
X1104900Y552450D02*
X1104900Y787400D01*
X1104900Y552450D02*
X1162050Y552450D01*
X1176338Y538163D01*
X1176338Y525463D01*
X930275Y525463D01*
X904875Y550863D01*
X893763Y550863D01*
X876300Y533400D01*
X623888Y306388D02*
X509588Y306388D01*
X623888Y306388D02*
X633413Y315913D01*
X720725Y315913D01*
X722313Y314325D01*
X747713Y314325D01*
X752475Y319088D01*
X871538Y319088D01*
D31*
X500063Y222250D03*
X871538Y319088D03*
X509588Y306388D03*
D32*
X1193800Y698500D02*
X1270000Y622300D01*
X1498600Y622300D01*
X1603375Y434975D02*
X1622900Y434975D01*
X1603375Y434975D02*
X1547813Y379413D01*
X1468438Y379413D01*
X660400Y125413D02*
X642938Y107950D01*
X660400Y125413D02*
X1239838Y125413D01*
D31*
X1468438Y379413D03*
X642938Y107950D03*
X1239838Y125413D03*
D30*
X673100Y457200D02*
X647700Y457200D01*
X571500Y508000D02*
X571500Y533400D01*
X495300Y533400D01*
X631825Y508000D02*
X633413Y506413D01*
X631825Y508000D02*
X571500Y508000D01*
X85725Y82550D02*
X85725Y41275D01*
X96838Y82550D02*
X101600Y82550D01*
X96838Y82550D02*
X85725Y82550D01*
X101600Y82550D02*
X109538Y74613D01*
X109538Y41275D01*
X85725Y41275D02*
X84180Y40872D01*
X109538Y41275D02*
X109580Y40872D01*
X96838Y82550D02*
X96838Y85725D01*
X431800Y266700D02*
X457200Y266700D01*
X736600Y266700D02*
X762000Y266700D01*
X482600Y290513D02*
X458788Y266700D01*
X482600Y290513D02*
X715963Y290513D01*
X719138Y293688D01*
X458788Y266700D02*
X457200Y266700D01*
X227013Y258763D02*
X182563Y214313D01*
X227013Y258763D02*
X360363Y258763D01*
X368300Y266700D01*
X431800Y266700D01*
X673100Y401638D02*
X673100Y457200D01*
X673100Y401638D02*
X725488Y401638D01*
X1201738Y87313D02*
X1201738Y41275D01*
X1201780Y40872D01*
X1295400Y508000D02*
X1257300Y546100D01*
X1231900Y546100D01*
X1117600Y266700D02*
X1092200Y266700D01*
X1092200Y457200D02*
X1117600Y457200D01*
X1158875Y474663D02*
X1230313Y546100D01*
X1158875Y474663D02*
X1136650Y474663D01*
X1119188Y457200D01*
X1230313Y546100D02*
X1231900Y546100D01*
X1119188Y457200D02*
X1117600Y457200D01*
X1016000Y863600D02*
X990600Y889000D01*
X1016000Y863600D02*
X1282700Y863600D01*
X1308100Y889000D01*
X1622900Y371475D02*
X1643063Y371475D01*
X1644650Y373063D01*
X1644650Y390525D01*
X1622900Y390525D01*
X1624013Y392113D02*
X1624013Y396875D01*
X1622900Y396875D01*
X1624013Y392113D02*
X1622900Y390525D01*
X1647825Y473075D02*
X1649413Y473075D01*
X1647825Y473075D02*
X1622900Y473075D01*
X1649413Y473075D02*
X1697038Y425450D01*
X1697038Y392113D01*
X1644650Y392113D01*
X1644650Y390525D01*
X1460500Y660400D02*
X1498600Y698500D01*
X1536700Y698500D01*
X1631950Y679450D02*
X1651000Y698500D01*
X1631950Y679450D02*
X1557338Y679450D01*
X1538288Y698500D01*
X1536700Y698500D01*
X1647825Y477838D02*
X1647825Y473075D01*
X977900Y900113D02*
X904875Y900113D01*
X977900Y900113D02*
X989013Y889000D01*
X990600Y889000D01*
X727075Y401638D02*
X728663Y400050D01*
X1081088Y400050D01*
X727075Y401638D02*
X725488Y401638D01*
D31*
X633413Y506413D03*
X96838Y85725D03*
X719138Y293688D03*
X182563Y214313D03*
X725488Y401638D03*
X1201738Y87313D03*
X1647825Y477838D03*
X904875Y900113D03*
X1081088Y400050D03*
D32*
X1112838Y230188D02*
X1116013Y227013D01*
X1112838Y230188D02*
X974725Y230188D01*
X969963Y234950D01*
X946150Y234950D01*
X938213Y227013D01*
X615950Y227013D01*
X598488Y90488D02*
X606425Y82550D01*
X633413Y82550D01*
X642938Y73025D01*
X642938Y41275D01*
X642980Y40872D01*
D31*
X1116013Y227013D03*
X615950Y227013D03*
X598488Y90488D03*
D32*
X1157288Y82550D02*
X1162050Y87313D01*
X1157288Y82550D02*
X1058863Y82550D01*
X1050925Y74613D01*
X1050925Y41275D01*
X1049380Y40872D01*
D31*
X1162050Y87313D03*
D32*
X1155700Y93663D02*
X1177925Y115888D01*
X1155700Y93663D02*
X730250Y93663D01*
X727075Y96838D01*
X717550Y96838D01*
X695325Y74613D01*
X695325Y41275D01*
X693780Y40872D01*
D31*
X1177925Y115888D03*
D32*
X974725Y217488D02*
X966788Y225425D01*
X974725Y217488D02*
X1203325Y217488D01*
D31*
X966788Y225425D03*
X1203325Y217488D03*
D32*
X812800Y309563D02*
X809625Y306388D01*
X812800Y309563D02*
X1177925Y309563D01*
D31*
X809625Y306388D03*
X1177925Y309563D03*
D32*
X1022350Y288925D02*
X1017588Y293688D01*
X1022350Y288925D02*
X1243013Y288925D01*
D31*
X1017588Y293688D03*
X1243013Y288925D03*
D32*
X1011238Y241300D02*
X1003300Y249238D01*
X955675Y249238D01*
D31*
X1011238Y241300D03*
X955675Y249238D03*
D32*
X723900Y87313D02*
X723900Y41275D01*
X720725Y41275D01*
X719180Y40872D01*
D31*
X723900Y87313D03*
D32*
X608013Y217488D02*
X604838Y220663D01*
X515938Y220663D01*
X939800Y673100D02*
X922338Y690563D01*
X684213Y690563D01*
X661988Y668338D01*
X552450Y668338D01*
D31*
X608013Y217488D03*
X515938Y220663D03*
X552450Y668338D03*
D32*
X490538Y487363D02*
X495300Y482600D01*
X490538Y487363D02*
X417513Y487363D01*
X371475Y533400D01*
X370060Y534550D01*
X127000Y546100D02*
X114300Y533400D01*
X127000Y546100D02*
X338138Y546100D01*
X339725Y547688D01*
X357188Y547688D01*
X369888Y534988D01*
X114300Y533400D02*
X113600Y533400D01*
X369888Y534988D02*
X370060Y534550D01*
X495300Y457200D02*
X506413Y446088D01*
X598488Y446088D01*
X615950Y515938D02*
X614363Y517525D01*
X615950Y515938D02*
X885825Y515938D01*
X1143000Y266700D02*
X1125538Y249238D01*
X1098550Y249238D01*
X1092200Y255588D01*
X1065213Y255588D01*
X1063625Y466725D02*
X1014413Y515938D01*
X885825Y515938D01*
D31*
X598488Y446088D03*
X614363Y517525D03*
X885825Y515938D03*
X1065213Y255588D03*
X1063625Y466725D03*
D32*
X896938Y655638D02*
X914400Y673100D01*
X896938Y655638D02*
X719138Y655638D01*
X715963Y658813D01*
X704850Y658813D01*
X701675Y655638D01*
X617538Y655638D01*
X614363Y658813D01*
D31*
X614363Y658813D03*
D32*
X568325Y460375D02*
X571500Y457200D01*
X568325Y460375D02*
X512763Y460375D01*
X501650Y471488D01*
X382588Y471488D01*
X371475Y482600D01*
X370060Y483750D01*
X127000Y495300D02*
X114300Y482600D01*
X127000Y495300D02*
X338138Y495300D01*
X339725Y496888D01*
X357188Y496888D01*
X369888Y484188D01*
X114300Y482600D02*
X113600Y482600D01*
X369888Y484188D02*
X370060Y483750D01*
X344488Y355600D02*
X139000Y355600D01*
X344488Y355600D02*
X344660Y356750D01*
X400050Y344488D02*
X409575Y334963D01*
X487363Y334963D01*
X490538Y338138D01*
X542925Y338138D01*
X555625Y325438D01*
X684213Y325438D01*
X693738Y334963D01*
D31*
X400050Y344488D03*
X693738Y334963D03*
D32*
X344488Y635000D02*
X139000Y635000D01*
X344488Y635000D02*
X344660Y636150D01*
X346075Y636588D02*
X354013Y644525D01*
X360363Y644525D01*
X365125Y649288D01*
X712788Y649288D01*
X346075Y636588D02*
X344660Y636150D01*
D31*
X712788Y649288D03*
D32*
X344488Y660400D02*
X139000Y660400D01*
X344488Y660400D02*
X344660Y661550D01*
X396875Y639763D02*
X401638Y644525D01*
X704850Y644525D01*
X709613Y639763D01*
X738188Y639763D01*
D31*
X396875Y639763D03*
X738188Y639763D03*
D32*
X127000Y571500D02*
X114300Y584200D01*
X127000Y571500D02*
X338138Y571500D01*
X339725Y573088D01*
X350838Y573088D01*
X361950Y584200D01*
X369888Y584200D01*
X114300Y584200D02*
X113600Y584200D01*
X369888Y584200D02*
X370060Y585350D01*
X404813Y630238D02*
X414338Y639763D01*
X701675Y639763D01*
X711200Y630238D01*
X763588Y630238D01*
D31*
X404813Y630238D03*
X763588Y630238D03*
D32*
X112713Y558800D02*
X100013Y546100D01*
X100013Y520700D01*
X338138Y520700D01*
X339725Y522288D01*
X355600Y522288D01*
X113600Y558800D02*
X112713Y558800D01*
X371475Y558800D02*
X382588Y547688D01*
X666750Y547688D01*
X669925Y550863D01*
X788988Y550863D01*
X371475Y558800D02*
X370060Y559950D01*
D31*
X355600Y522288D03*
X788988Y550863D03*
D32*
X344488Y533400D02*
X139000Y533400D01*
X344488Y533400D02*
X344660Y534550D01*
X444500Y695325D02*
X442913Y696913D01*
X444500Y695325D02*
X809625Y695325D01*
X814388Y700088D01*
D31*
X442913Y696913D03*
X814388Y700088D03*
D32*
X344488Y508000D02*
X139000Y508000D01*
X344488Y508000D02*
X344660Y509150D01*
X419100Y687388D02*
X439738Y708025D01*
X554038Y708025D01*
X579438Y733425D01*
X693738Y733425D01*
X695325Y731838D01*
X833438Y731838D01*
X850900Y749300D01*
D31*
X419100Y687388D03*
D32*
X344488Y558800D02*
X139000Y558800D01*
X344488Y558800D02*
X344660Y559950D01*
X346075Y560388D02*
X358775Y573088D01*
X687388Y573088D01*
X690563Y569913D01*
X715963Y569913D01*
X720725Y574675D01*
X865188Y574675D01*
X346075Y560388D02*
X344660Y559950D01*
D31*
X865188Y574675D03*
D32*
X658813Y677863D02*
X396875Y677863D01*
X374650Y700088D01*
X357188Y700088D01*
X346075Y711200D01*
X344660Y712350D01*
X344488Y711200D02*
X139000Y711200D01*
X344488Y711200D02*
X344660Y712350D01*
D31*
X658813Y677863D03*
D32*
X344488Y685800D02*
X139000Y685800D01*
X344488Y685800D02*
X344660Y686950D01*
X909638Y804863D02*
X927100Y787400D01*
X909638Y804863D02*
X671513Y804863D01*
X646113Y779463D01*
X361950Y779463D01*
X360363Y781050D01*
X114300Y781050D01*
X100013Y766763D01*
X100013Y698500D01*
X125413Y698500D01*
X138113Y685800D01*
X139000Y685800D01*
X114300Y660400D02*
X127000Y647700D01*
X338138Y647700D01*
X339725Y649288D01*
X357188Y649288D01*
X368300Y660400D01*
X369888Y660400D01*
X114300Y660400D02*
X113600Y660400D01*
X369888Y660400D02*
X370060Y661550D01*
X884238Y769938D02*
X901700Y787400D01*
X884238Y769938D02*
X442913Y769938D01*
D31*
X442913Y769938D03*
D32*
X571500Y431800D02*
X581025Y422275D01*
X598488Y422275D02*
X631825Y422275D01*
X598488Y422275D02*
X581025Y422275D01*
X631825Y422275D02*
X673100Y381000D01*
X1166813Y303213D02*
X1171575Y298450D01*
X1166813Y303213D02*
X917575Y303213D01*
X914400Y300038D01*
X903288Y328613D02*
X863600Y328613D01*
X850900Y436563D02*
X836613Y450850D01*
X836613Y474663D01*
X650875Y474663D01*
X598488Y422275D01*
D31*
X1171575Y298450D03*
X914400Y300038D03*
X903288Y328613D03*
X863600Y328613D03*
X850900Y436563D03*
D30*
X128588Y265113D02*
X114300Y279400D01*
X128588Y265113D02*
X355600Y265113D01*
X369888Y279400D01*
X114300Y279400D02*
X113600Y279400D01*
X369888Y279400D02*
X370060Y280550D01*
X839788Y887413D02*
X787400Y939800D01*
X839788Y887413D02*
X900113Y887413D01*
X955675Y831850D01*
X1265238Y831850D01*
X1295400Y801688D01*
X1295400Y760413D01*
X1300163Y760413D01*
X1368425Y692150D01*
X377825Y287338D02*
X371475Y280988D01*
X377825Y287338D02*
X446088Y287338D01*
X452438Y866775D02*
X479425Y893763D01*
X739775Y893763D01*
X785813Y939800D01*
X371475Y280988D02*
X370060Y280550D01*
X785813Y939800D02*
X787400Y939800D01*
D31*
X1368425Y692150D03*
X446088Y287338D03*
X452438Y866775D03*
D32*
X782638Y354013D02*
X922338Y354013D01*
X782638Y354013D02*
X777875Y358775D01*
X617538Y358775D01*
X612775Y354013D01*
X407988Y354013D01*
X127000Y393700D02*
X114300Y406400D01*
X127000Y393700D02*
X338138Y393700D01*
X339725Y395288D01*
X358775Y395288D01*
X369888Y406400D01*
X114300Y406400D02*
X113600Y406400D01*
X369888Y406400D02*
X370060Y407550D01*
D31*
X922338Y354013D03*
X407988Y354013D03*
D32*
X561975Y492125D02*
X571500Y482600D01*
X561975Y492125D02*
X506413Y492125D01*
X501650Y496888D01*
X479425Y496888D01*
X474663Y738188D02*
X371475Y738188D01*
X370060Y737750D01*
X127000Y749300D02*
X114300Y736600D01*
X127000Y749300D02*
X338138Y749300D01*
X339725Y750888D01*
X357188Y750888D01*
X369888Y738188D01*
X114300Y736600D02*
X113600Y736600D01*
X369888Y738188D02*
X370060Y737750D01*
D31*
X479425Y496888D03*
X474663Y738188D03*
D32*
X604838Y382588D02*
X581025Y358775D01*
X415925Y358775D01*
X411163Y363538D01*
X377825Y363538D01*
X371475Y357188D01*
X370060Y356750D01*
X127000Y342900D02*
X114300Y355600D01*
X127000Y342900D02*
X338138Y342900D01*
X339725Y344488D01*
X358775Y344488D01*
X369888Y355600D01*
X114300Y355600D02*
X113600Y355600D01*
X369888Y355600D02*
X370060Y356750D01*
D31*
X604838Y382588D03*
D32*
X879475Y592138D02*
X900113Y571500D01*
X879475Y592138D02*
X690563Y592138D01*
X673100Y609600D01*
X647700Y609600D01*
D31*
X900113Y571500D03*
D32*
X150813Y468313D02*
X139700Y457200D01*
X150813Y468313D02*
X334963Y468313D01*
X344488Y458788D01*
X139700Y457200D02*
X139000Y457200D01*
X344488Y458788D02*
X344660Y458350D01*
X484188Y746125D02*
X469900Y760413D01*
X373063Y760413D01*
X371475Y762000D01*
X370060Y763150D01*
X128588Y776288D02*
X114300Y762000D01*
X128588Y776288D02*
X357188Y776288D01*
X369888Y763588D01*
X114300Y762000D02*
X113600Y762000D01*
X369888Y763588D02*
X370060Y763150D01*
D31*
X484188Y746125D03*
D32*
X1231900Y749300D02*
X1295400Y749300D01*
X277813Y446088D02*
X266700Y457200D01*
X277813Y446088D02*
X358775Y446088D01*
X369888Y457200D01*
X370060Y458350D01*
X127000Y444500D02*
X114300Y457200D01*
X127000Y444500D02*
X255588Y444500D01*
X266700Y455613D01*
X114300Y457200D02*
X113600Y457200D01*
X266700Y457200D02*
X266700Y455613D01*
X254000Y431800D02*
X344488Y431800D01*
X344660Y432950D01*
X254000Y431800D02*
X139000Y431800D01*
X1227138Y284163D02*
X1244600Y266700D01*
X1227138Y284163D02*
X500063Y284163D01*
X482600Y266700D01*
X661988Y217488D02*
X665163Y214313D01*
X785813Y214313D01*
X1131888Y763588D02*
X1155700Y787400D01*
D31*
X661988Y217488D03*
X785813Y214313D03*
X1131888Y763588D03*
D32*
X630238Y122238D02*
X455613Y122238D01*
X428625Y179388D02*
X412750Y195263D01*
X303213Y195263D01*
X307975Y793750D02*
X371475Y857250D01*
X474663Y857250D01*
X482600Y865188D01*
X488950Y865188D01*
X504825Y881063D01*
X898525Y881063D01*
X957263Y822325D01*
X1095375Y822325D01*
D31*
X630238Y122238D03*
X455613Y122238D03*
X428625Y179388D03*
X303213Y195263D03*
X307975Y793750D03*
X1095375Y822325D03*
D32*
X1157288Y714375D02*
X1209675Y766763D01*
X1211263Y766763D01*
X1231900Y787400D01*
D31*
X1157288Y714375D03*
D32*
X279400Y927100D02*
X268288Y938213D01*
X125413Y938213D01*
X114300Y927100D01*
X293688Y890588D02*
X304800Y901700D01*
X293688Y890588D02*
X150813Y890588D01*
X139700Y901700D01*
X368300Y901700D02*
X377825Y911225D01*
X400050Y911225D01*
X401638Y912813D01*
X411163Y912813D01*
X417513Y906463D01*
X417513Y895350D01*
X415925Y895350D01*
X401638Y881063D01*
X211138Y881063D01*
D31*
X211138Y881063D03*
D32*
X322263Y947738D02*
X342900Y927100D01*
X322263Y947738D02*
X211138Y947738D01*
D31*
X211138Y947738D03*
D32*
X401638Y871538D02*
X431800Y901700D01*
X401638Y871538D02*
X153988Y871538D01*
X128588Y896938D01*
X128588Y927100D01*
X139700Y927100D01*
X584200Y863600D02*
X584200Y838200D01*
X609600Y838200D02*
X609600Y863600D01*
X487363Y846138D02*
X482600Y850900D01*
X487363Y846138D02*
X514350Y846138D01*
X531813Y863600D01*
X533400Y863600D01*
X519113Y900113D02*
X528638Y909638D01*
X519113Y900113D02*
X446088Y900113D01*
X407988Y862013D01*
X319088Y862013D01*
D31*
X528638Y909638D03*
X319088Y862013D03*
D32*
X646113Y849313D02*
X660400Y863600D01*
X646113Y849313D02*
X641350Y849313D01*
X619125Y827088D01*
X433388Y827088D01*
X354013Y890588D02*
X342900Y901700D01*
X354013Y890588D02*
X395288Y890588D01*
X406400Y901700D01*
D31*
X433388Y827088D03*
D32*
X671513Y849313D02*
X685800Y863600D01*
X671513Y849313D02*
X669925Y849313D01*
X658813Y838200D01*
X658813Y808038D01*
X442913Y808038D01*
X368300Y927100D02*
X379413Y938213D01*
X420688Y938213D01*
X431800Y927100D01*
D31*
X442913Y808038D03*
D32*
X395288Y915988D02*
X406400Y927100D01*
X395288Y915988D02*
X176213Y915988D01*
X165100Y927100D01*
X468313Y461963D02*
X388938Y382588D01*
X371475Y382588D01*
X370060Y382150D01*
X127000Y368300D02*
X114300Y381000D01*
X127000Y368300D02*
X338138Y368300D01*
X339725Y369888D01*
X358775Y369888D01*
X369888Y381000D01*
X114300Y381000D02*
X113600Y381000D01*
X369888Y381000D02*
X370060Y382150D01*
D31*
X468313Y461963D03*
D32*
X623888Y738188D02*
X646113Y760413D01*
X623888Y738188D02*
X488950Y738188D01*
X463550Y712788D01*
X371475Y712788D01*
X370060Y712350D01*
X127000Y723900D02*
X114300Y711200D01*
X127000Y723900D02*
X338138Y723900D01*
X339725Y725488D01*
X357188Y725488D01*
X369888Y712788D01*
X114300Y711200D02*
X113600Y711200D01*
X369888Y712788D02*
X370060Y712350D01*
D31*
X646113Y760413D03*
D32*
X344488Y406400D02*
X139000Y406400D01*
X344488Y406400D02*
X344660Y407550D01*
D30*
X482600Y914400D02*
X508000Y939800D01*
X893763Y300038D02*
X890588Y296863D01*
X746125Y296863D01*
X739775Y303213D01*
X647700Y303213D01*
X641350Y296863D01*
X458788Y296863D02*
X387350Y296863D01*
X458788Y296863D02*
X641350Y296863D01*
X344488Y279400D02*
X139000Y279400D01*
X344488Y279400D02*
X344660Y280550D01*
X458788Y296863D02*
X458788Y298450D01*
D31*
X893763Y300038D03*
X387350Y296863D03*
X458788Y298450D03*
D30*
X1257300Y596900D02*
X1270000Y609600D01*
X1257300Y596900D02*
X1231900Y596900D01*
D32*
X1346200Y342900D02*
X1270000Y266700D01*
X1346200Y342900D02*
X1498600Y342900D01*
X1622900Y358775D02*
X1647825Y358775D01*
X1585913Y358775D02*
X1581150Y354013D01*
X1509713Y354013D01*
X1498600Y342900D01*
D31*
X1647825Y358775D03*
X1585913Y358775D03*
D32*
X1374775Y212725D02*
X1320800Y266700D01*
X1374775Y212725D02*
X1447800Y212725D01*
X1460500Y200025D01*
X1471613Y200025D01*
X1622900Y314325D02*
X1692275Y314325D01*
D31*
X1471613Y200025D03*
X1692275Y314325D03*
D32*
X1384300Y228600D02*
X1346200Y266700D01*
X1384300Y228600D02*
X1508125Y228600D01*
X1574800Y320675D02*
X1622900Y320675D01*
X1549400Y166688D02*
X1547813Y165100D01*
X1524000Y165100D01*
D31*
X1508125Y228600D03*
X1574800Y320675D03*
X1549400Y166688D03*
D32*
X1198563Y401638D02*
X1143000Y457200D01*
X1198563Y401638D02*
X1295400Y401638D01*
D31*
X1295400Y401638D03*
D32*
X1346200Y317500D02*
X1295400Y266700D01*
X1346200Y317500D02*
X1498600Y317500D01*
X1622900Y346075D02*
X1647825Y346075D01*
X1585913Y346075D02*
X1568450Y328613D01*
X1509713Y328613D01*
X1498600Y317500D01*
D31*
X1647825Y346075D03*
X1585913Y346075D03*
D32*
X1206500Y419100D02*
X1168400Y457200D01*
X1206500Y419100D02*
X1498600Y419100D01*
X1560513Y492125D02*
X1622900Y492125D01*
X1544638Y441325D02*
X1533525Y430213D01*
X1509713Y430213D01*
X1498600Y419100D01*
D31*
X1560513Y492125D03*
X1544638Y441325D03*
D32*
X1211263Y439738D02*
X1193800Y457200D01*
X1211263Y439738D02*
X1493838Y439738D01*
X1498600Y444500D01*
X1566863Y504825D02*
X1622900Y504825D01*
X1566863Y504825D02*
X1563688Y501650D01*
X1533525Y501650D01*
X1528763Y506413D01*
X1487488Y506413D01*
D31*
X1487488Y506413D03*
D32*
X1236663Y474663D02*
X1219200Y457200D01*
X1236663Y474663D02*
X1493838Y474663D01*
X1498600Y469900D01*
X1566863Y517525D02*
X1622900Y517525D01*
X1566863Y517525D02*
X1563688Y520700D01*
X1557338Y520700D01*
X1547813Y511175D01*
X1539875Y492125D02*
X1528763Y481013D01*
X1508125Y481013D01*
X1498600Y471488D01*
X1498600Y469900D01*
D31*
X1547813Y511175D03*
X1539875Y492125D03*
D32*
X1498600Y495300D02*
X1282700Y495300D01*
X1530350Y250825D02*
X1622900Y250825D01*
X1530350Y250825D02*
X1525588Y255588D01*
X1428750Y255588D01*
X1390650Y293688D01*
X1362075Y293688D01*
D31*
X1282700Y495300D03*
X1362075Y293688D03*
D32*
X1319213Y506413D02*
X1474788Y506413D01*
X1489075Y520700D01*
X1498600Y520700D01*
X1584325Y263525D02*
X1622900Y263525D01*
X1584325Y263525D02*
X1581150Y260350D01*
X1544638Y388938D02*
X1525588Y407988D01*
X1512888Y407988D01*
D31*
X1319213Y506413D03*
X1581150Y260350D03*
X1544638Y388938D03*
X1512888Y407988D03*
D32*
X1384300Y546100D02*
X1354138Y515938D01*
X1384300Y546100D02*
X1498600Y546100D01*
X1622900Y276225D02*
X1641475Y276225D01*
X1657350Y260350D01*
X1657350Y215900D01*
X1539875Y215900D01*
X1528763Y204788D01*
X1482725Y204788D01*
X1468438Y219075D01*
X1454150Y219075D01*
D31*
X1354138Y515938D03*
X1454150Y219075D03*
D32*
X1363663Y568325D02*
X1366838Y571500D01*
X1498600Y571500D01*
X1536700Y288925D02*
X1622900Y288925D01*
X1536700Y288925D02*
X1528763Y280988D01*
X1473200Y280988D01*
X1455738Y298450D01*
X1384300Y298450D01*
X1374775Y307975D01*
D31*
X1363663Y568325D03*
X1374775Y307975D03*
D32*
X1384300Y457200D02*
X1346200Y457200D01*
X1497013Y598488D02*
X1498600Y596900D01*
X1497013Y598488D02*
X1460500Y598488D01*
X1530350Y301625D02*
X1622900Y301625D01*
X1530350Y301625D02*
X1525588Y306388D01*
X1441450Y306388D01*
X1439863Y307975D01*
D31*
X1460500Y598488D03*
X1439863Y307975D03*
D32*
X1651000Y487363D02*
X1681163Y457200D01*
X1651000Y487363D02*
X1643063Y487363D01*
X1641475Y485775D01*
X1622900Y485775D01*
D31*
X1681163Y457200D03*
D32*
X1462088Y582613D02*
X1460500Y584200D01*
X1462088Y582613D02*
X1552575Y582613D01*
X1563688Y571500D01*
X1585913Y571500D01*
X1587500Y450850D02*
X1590675Y447675D01*
X1622900Y447675D01*
D31*
X1585913Y571500D03*
X1587500Y450850D03*
D32*
X1466850Y368300D02*
X1450975Y384175D01*
X1466850Y368300D02*
X1498600Y368300D01*
X1530350Y460375D02*
X1622900Y460375D01*
X1530350Y460375D02*
X1528763Y458788D01*
X1450975Y458788D01*
D31*
X1450975Y384175D03*
X1450975Y458788D03*
D32*
X1460500Y409575D02*
X1465263Y404813D01*
X1503363Y404813D01*
X1514475Y393700D01*
X1524000Y393700D01*
D31*
X1460500Y409575D03*
D32*
X1609725Y617538D02*
X1641475Y649288D01*
X1609725Y617538D02*
X1544638Y617538D01*
X1532731Y605631D02*
X1524000Y596900D01*
X1532731Y605631D02*
X1544638Y617538D01*
X1560513Y511175D02*
X1622900Y511175D01*
X1544638Y593725D02*
X1532731Y605631D01*
D31*
X1641475Y649288D03*
X1560513Y511175D03*
X1544638Y593725D03*
D32*
X1644650Y523875D02*
X1647825Y527050D01*
X1644650Y523875D02*
X1622900Y523875D01*
X1533525Y561975D02*
X1524000Y571500D01*
X1533525Y561975D02*
X1644650Y561975D01*
X1666875Y539750D01*
X1666875Y527050D01*
X1647825Y527050D01*
D31*
X1647825Y527050D03*
D32*
X1657350Y536575D02*
X1622900Y536575D01*
X1533525Y536575D02*
X1524000Y546100D01*
X1533525Y536575D02*
X1622900Y536575D01*
D31*
X1657350Y536575D03*
D32*
X1722438Y668338D02*
X1752600Y698500D01*
X1722438Y668338D02*
X1554163Y668338D01*
X1622900Y257175D02*
X1647825Y257175D01*
D31*
X1554163Y668338D03*
X1647825Y257175D03*
D32*
X1738313Y658813D02*
X1778000Y698500D01*
X1738313Y658813D02*
X1566863Y658813D01*
X1558925Y269875D02*
X1622900Y269875D01*
D31*
X1566863Y658813D03*
X1558925Y269875D03*
D32*
X1803400Y698500D02*
X1820863Y715963D01*
X1831975Y715963D01*
X1839913Y708025D01*
X1839913Y657225D01*
X1804988Y657225D01*
X1760538Y612775D01*
X1760538Y282575D01*
X1622900Y282575D01*
X1554163Y469900D02*
X1524000Y469900D01*
X1584325Y282575D02*
X1581150Y279400D01*
X1584325Y282575D02*
X1622900Y282575D01*
D31*
X1554163Y469900D03*
X1581150Y279400D03*
D32*
X1755775Y625475D02*
X1828800Y698500D01*
X1755775Y612775D02*
X1755775Y295275D01*
X1755775Y612775D02*
X1755775Y625475D01*
X1755775Y295275D02*
X1622900Y295275D01*
X1524000Y444500D02*
X1530350Y450850D01*
X1565275Y450850D01*
X1566863Y581025D02*
X1598613Y612775D01*
X1755775Y612775D01*
D31*
X1565275Y450850D03*
X1566863Y581025D03*
D32*
X1576388Y442913D02*
X1552575Y419100D01*
X1524000Y419100D01*
X1600200Y307975D02*
X1622900Y307975D01*
X1600200Y307975D02*
X1597025Y311150D01*
D31*
X1576388Y442913D03*
X1597025Y311150D03*
M02*
