M48
;GenerationSoftware,Autodesk,EAGLE,9.6.1*%
;CreationDate,2023-12-07T02:02:36Z*%
FMAT,2
ICI,OFF
METRIC,TZ,000.000
T11C0.610
T10C0.813
T9C0.914
T8C1.000
T7C1.016
T6C1.100
T5C1.118
T4C1.700
T3C2.200
T2C2.750
T1C3.302
%
G90
M71
T1
X108204Y57150
T2
X12630Y81070
X12630Y23070
X35630Y23070
X35630Y81070
T3
X165100Y19290
X165100Y59450
T4
X168100Y59450
X168100Y19290
T5
X132080Y69850
X123190Y59690
X123190Y57150
X123190Y54610
X119380Y69850
T6
X110490Y78740
X107950Y93980
X135890Y78740
X133350Y78740
X130810Y78740
X128270Y78740
X125730Y78740
X123190Y78740
X120650Y78740
X118110Y78740
X115570Y78740
X113030Y78740
X107950Y78740
X110490Y93980
X113030Y93980
X115570Y93980
X118110Y93980
X120650Y93980
X123190Y93980
X125730Y93980
X128270Y93980
X130810Y93980
X133350Y93980
X135890Y93980
T7
X149860Y36830
X149860Y39370
X149860Y41910
X149860Y44450
X152400Y46990
X149860Y46990
X152400Y49530
X152400Y52070
X152400Y54610
X152400Y57150
X77470Y11430
X152400Y62230
X149860Y49530
X149860Y52070
X149860Y54610
X149860Y57150
X149860Y59690
X149860Y62230
X149860Y21590
X149860Y19050
X149860Y16510
X21590Y92710
X19050Y92710
X16510Y92710
X13970Y92710
X11430Y92710
X21590Y90170
X19050Y90170
X16510Y90170
X13970Y90170
X11430Y90170
X152400Y13970
X26670Y45720
X25400Y43180
X152400Y16510
X152400Y19050
X152400Y21590
X152400Y24130
X152400Y26670
X72390Y11430
X100330Y11430
X87630Y11430
X152400Y36830
X152400Y34290
X152400Y31750
X149860Y29210
X152400Y59690
X69850Y11430
X74930Y11430
X149860Y13970
X67310Y11430
X152400Y29210
X149860Y26670
X149860Y24130
X152400Y39370
X152400Y41910
X152400Y44450
X149860Y31750
X149860Y34290
T8
X13900Y27940
X37006Y43295
X37006Y28055
X34466Y61075
X37006Y58535
X34466Y58535
X37006Y55995
X34466Y55995
X37006Y53455
X34466Y53455
X37006Y50915
X34466Y50915
X37006Y48375
X34466Y48375
X37006Y45835
X34466Y45835
X34466Y43295
X37006Y40755
X34466Y40755
X37006Y38215
X34466Y38215
X37006Y35675
X34466Y35675
X37006Y33135
X34466Y33135
X37006Y30595
X34466Y30595
X34466Y28055
X11360Y76200
X13900Y76200
X11360Y73660
X13900Y73660
X11360Y71120
X13900Y71120
X11360Y68580
X13900Y68580
X11360Y66040
X13900Y66040
X11360Y63500
X13900Y63500
X11360Y60960
X13900Y60960
X11360Y58420
X13900Y58420
X11360Y55880
X13900Y55880
X11360Y53340
X13900Y53340
X11360Y50800
X13900Y50800
X11360Y48260
X13900Y48260
X11360Y45720
X13900Y45720
X11360Y43180
X13900Y43180
X37006Y61075
X11360Y40640
X13900Y40640
X11360Y38100
X13900Y38100
X11360Y35560
X13900Y35560
X11360Y33020
X13900Y33020
X11360Y30480
X13900Y30480
X11360Y27940
X37006Y76315
X34466Y76315
X37006Y73775
X34466Y73775
X37006Y71235
X34466Y71235
X37006Y68695
X34466Y68695
X37006Y66155
X34466Y66155
X37006Y63615
X34466Y63615
T9
X30480Y90170
X27940Y90170
X101600Y93980
X91440Y93980
X93980Y93980
X156210Y69850
X153670Y69850
X76200Y93980
X78740Y93980
X81280Y93980
X83820Y93980
X43180Y92710
X40640Y92710
X43180Y90170
X40640Y90170
X99060Y93980
X34290Y92710
X36830Y90170
X34290Y90170
X30480Y92710
X27940Y92710
X36830Y92710
T10
X54610Y83820
X58420Y83820
X60960Y83820
X48260Y85090
X48260Y87630
X67310Y83820
X64770Y83820
X48260Y91440
X48260Y93980
X95250Y78740
X92710Y78740
X90170Y78740
X87630Y78740
X85090Y78740
X82550Y78740
X80010Y78740
X77470Y78740
X74930Y78740
X72390Y78740
X69850Y78740
X127000Y60960
X127000Y55880
X129540Y50800
X129540Y55880
X111760Y19050
X114300Y19050
X116840Y19050
X119380Y19050
X121920Y19050
X124460Y19050
X127000Y19050
X129540Y19050
X132080Y19050
X134620Y19050
X137160Y19050
X139700Y19050
X139700Y26670
X137160Y26670
X134620Y26670
X132080Y26670
X129540Y26670
X127000Y26670
X124460Y26670
X119380Y26670
X116840Y26670
X114300Y26670
X111760Y26670
X111760Y38100
X114300Y38100
X127000Y38100
X129540Y38100
X116840Y38100
X119380Y38100
X124460Y38100
X121920Y38100
X132080Y38100
X134620Y38100
X134620Y45720
X132080Y45720
X129540Y45720
X127000Y45720
X124460Y45720
X121920Y45720
X119380Y45720
X116840Y45720
X114300Y45720
X111760Y45720
X146050Y58420
X146050Y66040
X143510Y53340
X143510Y60960
X138430Y45720
X138430Y38100
X57150Y55880
X54610Y55880
X165100Y69850
X167640Y69850
X170180Y69850
X172720Y69850
X175260Y69850
X177800Y69850
X180340Y69850
X182880Y69850
X185420Y69850
X130810Y83820
X128270Y83820
X90170Y60960
X76200Y19050
X78740Y19050
X81280Y19050
X83820Y19050
X86360Y19050
X88900Y19050
X91440Y19050
X93980Y19050
X96520Y19050
X99060Y19050
X101600Y19050
X104140Y19050
X104140Y26670
X101600Y26670
X99060Y26670
X96520Y26670
X93980Y26670
X91440Y26670
X88900Y26670
X86360Y26670
X83820Y26670
X81280Y26670
X78740Y26670
X76200Y26670
X91440Y88900
X99060Y88900
X93980Y86360
X101600Y86360
X49530Y53340
X49530Y50800
X49530Y38100
X57150Y38100
X49530Y48260
X49530Y45720
X49530Y40640
X49530Y43180
X57150Y40640
X57150Y43180
X57150Y45720
X57150Y48260
X57150Y50800
X57150Y53340
X69850Y67310
X72390Y67310
X85090Y67310
X87630Y67310
X74930Y67310
X77470Y67310
X82550Y67310
X80010Y67310
X87630Y74930
X85090Y74930
X82550Y74930
X80010Y74930
X77470Y74930
X74930Y74930
X72390Y74930
X69850Y74930
X93980Y67310
X93980Y74930
X91440Y67310
X91440Y74930
X67310Y53340
X69850Y53340
X82550Y53340
X85090Y53340
X72390Y53340
X74930Y53340
X80010Y53340
X77470Y53340
X87630Y53340
X90170Y53340
X121920Y26670
X87630Y60960
X85090Y60960
X82550Y60960
X80010Y60960
X77470Y60960
X74930Y60960
X72390Y60960
X69850Y60960
X67310Y60960
X138430Y59690
X135890Y59690
X67310Y38100
X69850Y38100
X82550Y38100
X85090Y38100
X72390Y38100
X74930Y38100
X80010Y38100
X77470Y38100
X87630Y38100
X90170Y38100
X90170Y45720
X87630Y45720
X85090Y45720
X82550Y45720
X80010Y45720
X77470Y45720
X74930Y45720
X72390Y45720
X69850Y45720
X67310Y45720
X142240Y15240
X144780Y15240
X64770Y60960
X64770Y58420
X64770Y45720
X64770Y43180
X130810Y88900
X128270Y88900
X73660Y26670
X73660Y24130
X109220Y26670
X109220Y24130
X129540Y74930
X137160Y74930
X123190Y74930
X120650Y74930
X109220Y45720
X109220Y43180
X45720Y19050
X48260Y19050
X60960Y19050
X63500Y19050
X50800Y19050
X53340Y19050
X58420Y19050
X55880Y19050
X66040Y19050
X68580Y19050
X68580Y26670
X66040Y26670
X63500Y26670
X60960Y26670
X58420Y26670
X55880Y26670
X53340Y26670
X50800Y26670
X48260Y26670
X45720Y26670
X43180Y26670
X43180Y24130
X50800Y86360
X53340Y86360
X66040Y86360
X68580Y86360
X55880Y86360
X58420Y86360
X63500Y86360
X60960Y86360
X68580Y93980
X66040Y93980
X63500Y93980
X60960Y93980
X58420Y93980
X55880Y93980
X53340Y93980
X50800Y93980
X52070Y83820
T11
X4604Y8573
X89694Y43180
X107156Y42863
X123984Y8573
X155416Y23812
X48260Y24130
X49212Y32702
X57150Y58420
X53499Y38259
X64294Y90329
X68104Y14605
X40005Y13652
X159703Y47942
X39846Y8731
X43656Y34449
X54927Y34449
X55721Y46990
X89376Y48260
X92392Y46831
X97155Y44132
X97631Y20796
X163195Y22860
X167164Y43656
X41910Y16986
X143351Y16351
X168751Y40799
X168275Y23336
X42386Y8731
X42704Y11747
X30480Y11747
X41593Y78899
X97314Y79693
X100171Y17304
X86995Y16351
X104140Y16351
X103505Y69215
X57309Y71438
X48736Y61119
X33338Y59849
X31750Y11271
X44609Y10795
X92551Y32861
X96202Y32861
X96202Y66516
X61436Y70485
X52864Y32861
X39529Y31591
X37941Y8890
X83344Y32861
X65246Y33973
X63024Y37306
X47942Y39211
X93504Y23654
X66040Y23654
X62071Y11271
X50006Y10478
X47784Y8573
X83979Y15557
X52864Y14605
X94297Y48736
X42863Y51911
X40481Y23654
X38259Y21431
X37465Y10160
X88424Y21749
X79851Y21749
X68580Y10478
X53181Y10795
X74771Y25717
X74454Y32385
X57626Y31591
X55721Y21114
X50800Y21114
X49054Y11271
X84931Y14764
X54134Y14605
X74771Y15557
X57944Y15557
X56991Y9843
X92234Y13494
X58896Y13176
X99219Y44132
X68898Y41751
X65246Y9208
X111601Y41910
X115887Y87313
X165735Y53657
X164783Y52705
X154464Y59372
X156051Y51117
X164148Y64929
X146050Y40958
X145098Y45879
X145098Y38418
X158750Y45085
X158591Y57150
X168116Y45720
X143986Y30797
X146050Y59849
X147161Y20003
X158591Y35878
X164783Y35878
X45879Y29845
X38735Y29686
X89376Y30004
X64611Y76041
X46831Y46196
X44291Y80804
X43339Y82709
X31909Y86201
X52864Y90964
X21114Y94774
X159703Y31115
X21114Y88106
X115729Y71438
X109537Y82233
X30797Y79375
X30321Y19526
X42863Y17939
X45561Y12224
X63024Y12224
X101759Y29369
X117792Y30956
X80963Y30639
X120332Y21749
X96679Y22542
X117792Y11589
X116205Y8731
X59849Y9049
X61595Y22701
X111601Y22701
X108109Y40005
X90487Y90011
X164783Y47784
X120174Y8731
X72549Y40164
X18256Y21431
X71914Y29369
X9684Y8573
X63341Y50641
X123984Y12541
X64294Y10795
X146844Y37941
X113189Y76359
X78581Y21431
X66199Y21749
X48419Y74613
X90011Y57150
X60484Y38259
X47466Y73819
X47942Y49689
X40799Y35401
X92234Y35401
X45244Y86678
X50959Y30639
X87154Y31909
X50006Y22225
X44609Y28734
X136843Y69215
X85090Y43656
X86360Y32861
X90329Y32861
X91440Y30004
X117157Y29845
X137478Y30797
X136366Y56832
X145415Y21907
X135414Y51594
X151289Y40799
X154464Y38894
X158115Y26035
X131921Y50641
X136208Y29369
X128270Y49530
X153988Y49212
X154781Y51117
X44291Y76994
X65881Y67786
X86519Y57467
X41910Y68739
X69374Y57944
X81439Y70009
X44291Y69691
X78899Y55086
X35560Y52229
X76359Y63024
X40481Y63024
X73819Y63976
X39688Y63976
X71279Y64929
X69374Y33496
X40005Y34449
X61436Y65881
X106362Y46672
X106521Y25559
X88582Y51594
X61436Y51752
X59849Y44609
X55245Y66834
X51594Y22066
X60801Y21749
X148749Y50641
X154464Y44132
X156051Y49212
X158591Y34608
X72390Y8731
X95567Y24924
X164783Y34608
X129540Y40164
X101124Y24130
X124301Y28892
X59531Y72390
X50165Y63024
X44291Y63024
X44291Y40640
X53816Y36830
X116681Y53499
X119856Y41434
X36989Y25400
X51435Y15081
X30321Y13970
X24924Y8573
X106362Y70803
X81915Y33496
X56515Y33496
X55245Y13176
X27781Y12700
X120809Y35560
X81121Y34449
X58579Y34449
X53816Y23019
X50165Y16034
X29845Y16034
X22384Y8573
X105410Y36830
X106997Y91440
X78581Y36354
X60960Y36354
X61595Y39846
X43021Y40640
X39211Y18574
X30321Y17780
X104457Y40958
X104457Y88741
X76041Y40958
X75565Y30956
X63659Y30639
X72231Y56039
X61436Y56356
X59849Y62389
X119380Y73343
X72390Y50641
X116681Y41910
X154940Y16669
X157480Y32067
X68898Y43021
X43656Y58261
X42704Y46196
X29845Y41593
X150813Y22860
X169228Y31432
X157639Y44291
X156686Y58102
X156528Y45085
X158115Y27940
X155416Y46990
X155893Y26987
X156686Y65881
X164783Y25717
X155416Y66834
M30