M48
;GenerationSoftware,Autodesk,EAGLE,9.6.1*%
;CreationDate,2023-12-13T06:13:46Z*%
FMAT,2
ICI,OFF
METRIC,TZ,000.000
T4C0.610
T3C0.813
T2C0.914
T1C1.016
%
G90
M71
T1
X135890Y77470
X133350Y77470
X130810Y77470
X128270Y77470
X138430Y74930
X135890Y74930
X133350Y74930
X130810Y74930
X128270Y74930
X85090Y77470
X82550Y77470
X80010Y77470
X90170Y74930
X87630Y74930
X85090Y74930
X82550Y74930
X80010Y74930
X90170Y77470
X87630Y77470
X43180Y52070
X138430Y77470
X35560Y52070
X33020Y52070
X68580Y11430
X176530Y21590
X173990Y21590
X176530Y19050
X173990Y19050
X171450Y21590
X168910Y21590
X166370Y21590
X163830Y21590
X161290Y21590
X158750Y21590
X171450Y19050
X168910Y19050
X166370Y19050
X163830Y19050
X161290Y19050
X158750Y19050
T2
X121920Y77470
X119380Y77470
X121920Y74930
X119380Y74930
X115570Y77470
X113030Y77470
X115570Y74930
X113030Y74930
X109220Y77470
X106680Y77470
X109220Y74930
X106680Y74930
X130810Y64770
X130810Y62230
X130810Y59690
X138430Y64770
X138430Y62230
X138430Y59690
X73660Y77470
X71120Y77470
X73660Y74930
X71120Y74930
X67310Y77470
X64770Y77470
X67310Y74930
X64770Y74930
X60960Y77470
X58420Y77470
X60960Y74930
X58420Y74930
X119380Y16510
X116840Y16510
X119380Y19050
X116840Y19050
X119380Y21590
X116840Y21590
X100330Y77470
X97790Y77470
X147320Y77470
X144780Y77470
X87630Y63500
X87630Y66040
X80010Y63500
X80010Y66040
X80010Y60960
X13970Y62230
X13970Y64770
X13970Y67310
X87630Y60960
X96520Y44450
X99060Y46990
X96520Y46990
X156210Y33020
X156210Y30480
X158750Y30480
X158750Y33020
X161290Y30480
X161290Y33020
X163830Y30480
X163830Y33020
X168910Y33020
X168910Y30480
X171450Y30480
X171450Y33020
X173990Y30480
X173990Y33020
X176530Y30480
X176530Y33020
X147320Y34290
X144780Y34290
X147320Y36830
X144780Y36830
X147320Y39370
X144780Y39370
X147320Y41910
X144780Y41910
X147320Y44450
X144780Y44450
X147320Y46990
X144780Y46990
X99060Y34290
X96520Y34290
X99060Y36830
X96520Y36830
X99060Y39370
X96520Y39370
X99060Y41910
X96520Y41910
X99060Y44450
T3
X156210Y48260
X156210Y43180
X156210Y45720
X163830Y38100
X163830Y40640
X163830Y43180
X163830Y45720
X163830Y48260
X163830Y50800
X163830Y53340
X163830Y55880
X12700Y48260
X12700Y45720
X54610Y48260
X54610Y45720
X17780Y73660
X17780Y71120
X12700Y22860
X12700Y20320
X43180Y22860
X43180Y20320
X80010Y22860
X80010Y20320
X102870Y48260
X102870Y45720
X161290Y58420
X176530Y58420
X173990Y58420
X176530Y77470
X173990Y77470
X160020Y77470
X157480Y77470
X128270Y15240
X130810Y15240
X143510Y15240
X146050Y15240
X133350Y15240
X135890Y15240
X140970Y15240
X138430Y15240
X148590Y15240
X151130Y15240
X151130Y22860
X148590Y22860
X146050Y22860
X143510Y22860
X140970Y22860
X138430Y22860
X135890Y22860
X133350Y22860
X130810Y22860
X128270Y22860
X156210Y15240
X158750Y15240
X161290Y15240
X163830Y15240
X166370Y15240
X168910Y15240
X171450Y15240
X173990Y15240
X176530Y15240
X125730Y22860
X125730Y20320
X45720Y15240
X48260Y15240
X50800Y15240
X53340Y15240
X55880Y15240
X58420Y15240
X60960Y15240
X63500Y15240
X66040Y15240
X68580Y15240
X71120Y15240
X73660Y15240
X73660Y22860
X71120Y22860
X68580Y22860
X66040Y22860
X63500Y22860
X60960Y22860
X58420Y22860
X72390Y55880
X55880Y22860
X53340Y22860
X50800Y22860
X48260Y22860
X45720Y22860
X163830Y58420
X102870Y73660
X95250Y73660
X146050Y73660
X146050Y66040
X15240Y33020
X17780Y33020
X20320Y33020
X22860Y33020
X25400Y33020
X27940Y33020
X30480Y33020
X33020Y33020
X35560Y33020
X38100Y33020
X40640Y33020
X43180Y33020
X45720Y33020
X48260Y33020
X48260Y48260
X45720Y48260
X43180Y48260
X40640Y48260
X38100Y48260
X35560Y48260
X33020Y48260
X30480Y48260
X27940Y48260
X25400Y48260
X22860Y48260
X20320Y48260
X17780Y48260
X15240Y48260
X20320Y58420
X22860Y58420
X25400Y58420
X27940Y58420
X30480Y58420
X33020Y58420
X35560Y58420
X38100Y58420
X40640Y58420
X43180Y58420
X45720Y58420
X48260Y58420
X48260Y73660
X45720Y73660
X43180Y73660
X40640Y73660
X38100Y73660
X35560Y73660
X33020Y73660
X30480Y73660
X27940Y73660
X25400Y73660
X22860Y73660
X20320Y73660
X45720Y54610
X53340Y54610
X57150Y33020
X59690Y33020
X62230Y33020
X64770Y33020
X67310Y33020
X69850Y33020
X72390Y33020
X74930Y33020
X77470Y33020
X80010Y33020
X82550Y33020
X85090Y33020
X87630Y33020
X90170Y33020
X90170Y48260
X87630Y48260
X85090Y48260
X82550Y48260
X80010Y48260
X77470Y48260
X74930Y48260
X72390Y48260
X69850Y48260
X67310Y48260
X64770Y48260
X62230Y48260
X59690Y48260
X57150Y48260
X87630Y55880
X80010Y55880
X58420Y59690
X60960Y59690
X73660Y59690
X76200Y59690
X63500Y59690
X66040Y59690
X71120Y59690
X68580Y59690
X76200Y67310
X73660Y67310
X71120Y67310
X68580Y67310
X66040Y67310
X63500Y67310
X60960Y67310
X58420Y67310
X59690Y55880
X62230Y55880
X66040Y55880
X68580Y55880
X54610Y62230
X54610Y64770
X74930Y55880
X176530Y38100
X59690Y69850
X62230Y69850
X105410Y33020
X107950Y33020
X110490Y33020
X113030Y33020
X115570Y33020
X118110Y33020
X120650Y33020
X123190Y33020
X125730Y33020
X128270Y33020
X130810Y33020
X133350Y33020
X135890Y33020
X138430Y33020
X138430Y48260
X135890Y48260
X133350Y48260
X130810Y48260
X128270Y48260
X125730Y48260
X123190Y48260
X120650Y48260
X118110Y48260
X115570Y48260
X113030Y48260
X110490Y48260
X107950Y48260
X105410Y48260
X129540Y54610
X137160Y54610
X106680Y58420
X109220Y58420
X121920Y58420
X124460Y58420
X111760Y58420
X114300Y58420
X119380Y58420
X116840Y58420
X124460Y66040
X121920Y66040
X119380Y66040
X116840Y66040
X114300Y66040
X111760Y66040
X109220Y66040
X106680Y66040
X107950Y55880
X110490Y55880
X114300Y55880
X116840Y55880
X102870Y60960
X102870Y63500
X123190Y55880
X120650Y55880
X107950Y68580
X110490Y68580
X82550Y15240
X85090Y15240
X87630Y15240
X90170Y15240
X92710Y15240
X95250Y15240
X97790Y15240
X100330Y15240
X102870Y15240
X105410Y15240
X107950Y15240
X110490Y15240
X110490Y22860
X107950Y22860
X105410Y22860
X102870Y22860
X100330Y22860
X97790Y22860
X95250Y22860
X92710Y22860
X90170Y22860
X87630Y22860
X85090Y22860
X82550Y22860
X15240Y15240
X17780Y15240
X30480Y15240
X33020Y15240
X20320Y15240
X22860Y15240
X27940Y15240
X25400Y15240
X35560Y15240
X38100Y15240
X38100Y22860
X35560Y22860
X33020Y22860
X30480Y22860
X27940Y22860
X25400Y22860
X22860Y22860
X20320Y22860
X17780Y22860
X15240Y22860
X168910Y64770
X176530Y64770
X176530Y72390
X168910Y72390
X168910Y55880
X168910Y53340
X168910Y40640
X168910Y38100
X168910Y50800
X168910Y48260
X168910Y43180
X168910Y45720
X176530Y40640
X176530Y43180
X176530Y45720
X176530Y48260
X176530Y50800
X176530Y53340
X176530Y55880
X152400Y64770
X160020Y64770
X160020Y72390
X152400Y72390
X156210Y55880
X156210Y53340
X156210Y40640
X156210Y38100
X156210Y50800
T4
X75248Y19685
X53816Y58896
X51752Y58420
X54134Y33814
X4604Y8573
X133191Y56515
X123984Y8573
X62389Y72390
X39370Y13017
X85566Y29845
X132874Y27464
X11589Y17304
X10795Y45244
X84614Y38576
X18256Y42386
X46672Y71279
X52705Y18891
X40323Y13970
X40323Y8731
X54927Y18891
X49689Y19844
X46831Y11747
X45561Y10478
X57467Y18891
X47307Y21114
X43180Y8731
X44767Y16986
X47784Y10478
X47784Y8573
X48736Y12700
X62706Y25559
X41593Y26511
X41275Y11589
X59531Y11112
X50959Y10636
X49847Y17939
X49689Y9208
X56991Y10636
X53499Y9684
X54451Y8731
X52229Y10636
X55404Y10636
X62071Y11112
X112077Y12541
X20796Y26352
X35084Y28257
X56674Y51276
X36989Y50959
X105251Y50959
X95885Y51911
X88582Y44609
X62706Y44609
X55245Y56197
X35878Y61119
X61754Y43656
X131921Y36671
X108426Y38894
X106839Y13652
X29369Y54769
X29369Y31432
X91916Y33814
X91122Y38894
X58261Y39370
X111442Y28416
X134779Y26829
X16828Y21114
X17780Y50324
X58102Y36671
X16669Y36671
X94297Y28892
X92869Y38894
X59372Y40323
X137001Y25876
X118745Y29845
X36036Y35719
X64611Y35719
X138748Y27146
X32861Y30162
X28416Y30480
X67310Y30480
X88741Y29845
X87471Y26511
X123031Y12065
X36195Y26352
X38418Y28416
X39211Y56832
X64611Y54451
X115887Y37941
X77311Y28257
X45402Y28416
X99854Y71914
X99219Y30321
X73660Y29210
X78740Y13494
X117634Y8731
X111442Y19368
X93504Y10160
X113824Y10954
X88582Y8731
X89852Y10001
X114776Y12065
X91440Y9208
X96361Y19209
X78105Y65087
X78899Y76359
X76041Y52229
X85566Y27464
X96361Y26511
X66358Y53975
X29051Y61595
X70961Y57150
X81121Y53022
X67310Y51435
X128746Y40799
X81439Y51752
X95250Y48577
X72549Y26352
X74613Y63659
X77788Y53975
X141288Y47466
X22860Y18256
X36671Y19209
X65405Y37624
X78105Y35719
X153511Y43974
X146368Y43021
X57309Y63182
X150336Y42069
X28575Y8731
X33814Y26352
X28575Y26352
X26352Y11430
X13811Y14605
X15716Y30162
X97472Y40799
X44609Y42386
X154464Y56832
X81280Y75883
X34608Y61595
X103822Y64611
X109696Y52705
X62547Y63659
X140335Y60642
X90170Y41275
X116046Y11906
X83820Y9525
X103664Y8573
X100806Y12065
X101759Y13017
X94139Y13017
X82550Y9525
X102711Y50959
X122714Y10001
X9684Y8573
X43180Y25559
X80010Y50959
X75406Y18415
X75406Y21749
X117951Y20638
X71438Y29527
X43339Y42386
X72390Y42704
X21749Y34766
X98266Y32702
X19209Y44609
X86995Y45561
X24447Y13494
X24606Y8731
X28257Y11430
X80169Y27305
X48736Y26829
X25241Y19685
X23336Y20161
X146050Y17621
X162401Y24606
X23812Y9684
X26352Y27305
X33814Y27781
X158909Y25559
X152241Y26511
X22384Y8573
X22066Y19209
X40005Y22701
X19844Y8573
X122872Y62547
X126841Y18098
X133826Y26035
X94297Y25559
X97314Y25559
X62230Y21431
X50641Y47466
X96044Y8573
X101282Y53816
X46831Y53022
X90011Y11589
X39053Y26352
X140176Y30797
X72390Y37624
X78899Y16034
M30