M48
;GenerationSoftware,Autodesk,EAGLE,9.6.1*%
;CreationDate,2023-11-17T00:31:54Z*%
FMAT,2
ICI,OFF
METRIC,TZ,000.000
T7C0.610
T6C0.813
T5C0.914
T4C1.016
T3C1.118
T2C1.200
T1C1.300
%
G90
M71
T1
X16430Y54650
X16430Y62150
X16430Y59650
X11430Y57150
X16430Y27900
X16430Y22940
X16430Y25440
X16430Y32940
X16430Y30440
X11430Y27940
X16430Y57110
X16430Y52150
T2
X11430Y52150
X11430Y32940
X8930Y32940
X8930Y22940
X11430Y22940
X11430Y62150
X8930Y62150
X8930Y52150
T3
X127000Y57150
X139700Y57150
X142240Y31750
X142240Y44450
T4
X100330Y11430
X72390Y11430
X87630Y11430
X88900Y30480
X114300Y16510
X46990Y49530
X77470Y11430
X110490Y66040
X38100Y31750
X67310Y11430
X74930Y11430
X69850Y11430
T5
X133350Y24130
X133350Y21590
X11430Y39370
X130810Y21590
X128270Y24130
X128270Y21590
X43180Y72390
X11430Y36830
X49530Y72390
X52070Y72390
X40640Y72390
X133350Y33020
X130810Y33020
X128270Y33020
X130810Y24130
T6
X38100Y48260
X30480Y43180
X30480Y40640
X38100Y43180
X38100Y40640
X38100Y54610
X38100Y52070
X34290Y50800
X34290Y58420
X38100Y60960
X38100Y58420
X40640Y48260
X40640Y45720
X27940Y45720
X27940Y53340
X27940Y43180
X27940Y40640
X25400Y59690
X25400Y57150
X21590Y46990
X21590Y54610
X99060Y19050
X101600Y19050
X104140Y19050
X106680Y19050
X109220Y19050
X111760Y19050
X114300Y19050
X116840Y19050
X119380Y19050
X121920Y19050
X121920Y26670
X119380Y26670
X116840Y26670
X114300Y26670
X111760Y26670
X109220Y26670
X106680Y26670
X104140Y26670
X101600Y26670
X99060Y26670
X63500Y19050
X68580Y19050
X71120Y19050
X73660Y19050
X76200Y19050
X78740Y19050
X81280Y19050
X83820Y19050
X86360Y19050
X88900Y19050
X91440Y19050
X91440Y26670
X88900Y26670
X86360Y26670
X83820Y26670
X81280Y26670
X78740Y26670
X76200Y26670
X73660Y26670
X71120Y26670
X68580Y26670
X66040Y26670
X63500Y26670
X86360Y55880
X86360Y53340
X43180Y68580
X50800Y68580
X53340Y68580
X60960Y68580
X66040Y19050
X95250Y26670
X95250Y24130
X43180Y34290
X43180Y36830
X55880Y44450
X53340Y44450
X105410Y60960
X105410Y58420
X105410Y55880
X105410Y53340
X105410Y50800
X105410Y48260
X105410Y45720
X105410Y43180
X105410Y40640
X105410Y38100
X105410Y35560
X115570Y35560
X115570Y38100
X115570Y40640
X115570Y43180
X115570Y45720
X115570Y48260
X115570Y50800
X115570Y53340
X115570Y55880
X115570Y58420
X115570Y60960
X13970Y43205
X13970Y48235
X11430Y45720
X20320Y36830
X20320Y39370
X20320Y72390
X22860Y72390
X13970Y67335
X13970Y72365
X11430Y69850
X120650Y35560
X120650Y43180
X105410Y66040
X107950Y66040
X101600Y52070
X101600Y49530
X95250Y40640
X93980Y38735
X92710Y40640
X120650Y63500
X120650Y71120
X97790Y44450
X90170Y44450
X90170Y35560
X97790Y35560
X95250Y53340
X93980Y51435
X92710Y53340
X104140Y71120
X111760Y71120
X97790Y57150
X90170Y57150
X90170Y48260
X97790Y48260
X35560Y72390
X35560Y64770
X121666Y58420
X119634Y58420
X48260Y41910
X48260Y39370
X48260Y26670
X48260Y24130
X48260Y36830
X48260Y34290
X48260Y29210
X48260Y31750
X48260Y21590
X48260Y19050
X55880Y19050
X55880Y21590
X55880Y24130
X55880Y26670
X55880Y29210
X55880Y31750
X55880Y34290
X55880Y36830
X55880Y39370
X55880Y41910
X101600Y68580
X101600Y60960
X30480Y27940
X30480Y25400
X38100Y25400
X38100Y27940
X30480Y22860
X30480Y20320
X38100Y22860
X38100Y20320
X40640Y26670
X40640Y24130
X35560Y31750
X33020Y31750
X35560Y16510
X33020Y16510
X24130Y21590
X24130Y24130
X16510Y15240
X24130Y15240
X17780Y19050
X15240Y19050
X54610Y60960
X54610Y53340
X48260Y58420
X48260Y55880
X60960Y57150
X60960Y59690
X53340Y49530
X50800Y49530
X68580Y68580
X68580Y66040
X68580Y63500
X68580Y60960
X68580Y58420
X68580Y55880
X68580Y53340
X68580Y50800
X68580Y48260
X68580Y45720
X68580Y43180
X68580Y40640
X68580Y38100
X68580Y35560
X83820Y35560
X83820Y38100
X83820Y40640
X83820Y43180
X83820Y45720
X83820Y48260
X83820Y50800
X83820Y53340
X83820Y55880
X83820Y58420
X83820Y60960
X83820Y63500
X83820Y66040
X83820Y68580
X88900Y69723
X88900Y64897
X95250Y71120
X95250Y68580
X95250Y63500
X95250Y66040
X133350Y43180
X133350Y48260
X133350Y40640
X133350Y50800
X142240Y24130
X142240Y21590
X128270Y46990
X128270Y41910
X138430Y49530
X138430Y41910
X60960Y26670
X60960Y24130
X64770Y53340
X64770Y50800
X24130Y45720
X24130Y38100
X35560Y36830
X33020Y36830
X30480Y48260
X30480Y45720
X38100Y45720
T7
X123984Y8573
X41910Y19526
X60960Y20479
X63341Y10478
X65405Y11906
X40323Y10001
X66358Y12859
X43021Y11906
X42704Y8573
X70803Y13811
X42228Y12859
X71914Y14764
X45720Y13335
X45244Y8573
X45720Y15240
X51117Y16192
X47784Y8573
X75565Y12859
X69215Y12859
X64452Y17304
X47942Y17621
X51752Y14287
X50324Y8573
X75724Y48577
X53181Y43021
X60007Y25241
X60007Y13811
X54451Y13811
X52864Y8573
X75724Y23336
X53181Y20955
X70326Y23336
X59055Y22860
X58896Y10478
X55721Y10478
X55404Y8573
X71120Y42863
X53022Y38576
X70168Y32067
X77946Y32067
X64770Y20479
X57944Y18256
X57944Y8573
X69850Y17621
X56674Y16669
X80169Y39529
X108585Y39529
X42386Y23177
X80645Y32067
X111601Y31909
X40481Y15557
X82074Y31432
X59372Y31115
X58579Y28257
X44291Y17939
X23177Y17939
X83344Y30956
X50324Y30321
X64611Y23971
X59055Y26987
X58102Y37783
X27781Y24130
X62547Y34290
X36671Y8731
X51276Y34766
X63500Y36830
X34290Y15399
X40640Y16986
X46196Y34290
X112395Y36989
X87789Y36989
X67628Y34131
X65723Y32226
X103664Y8573
X101441Y21431
X57944Y21431
X80645Y33496
X98425Y52546
X76676Y47784
X85090Y25241
X53181Y55562
X102552Y28416
X66516Y23971
X84138Y23336
X73184Y8573
X23177Y33973
X81280Y45879
X74295Y60484
X113506Y72549
X38894Y73819
X62071Y63659
X52229Y60007
X53975Y32861
X106997Y59531
X97949Y62071
X42704Y66993
X35719Y26829
X59372Y37783
X69533Y8731
X63659Y29210
X70168Y41751
X62071Y29210
X68263Y9049
X74136Y9366
X78899Y67628
X117634Y8731
X123666Y20638
X73184Y13811
X93345Y28575
X22066Y34925
X9684Y8573
X120174Y8731
X63500Y9049
X59531Y44767
M30