G04 EAGLE Gerber RS-274X export*
G75*
%MOMM*%
%FSLAX34Y34*%
%LPD*%
%INSoldermask Bottom*%
%IPPOS*%
%AMOC8*
5,1,8,0,0,1.08239X$1,22.5*%
G01*
%ADD10P,1.649562X8X292.500000*%
%ADD11P,1.951982X8X292.500000*%
%ADD12C,1.803400*%
%ADD13P,1.649562X8X202.500000*%
%ADD14C,1.524000*%
%ADD15P,1.649562X8X112.500000*%
%ADD16P,1.649562X8X22.500000*%
%ADD17C,2.082800*%
%ADD18C,1.524000*%
%ADD19C,1.625600*%
%ADD20C,2.387600*%
%ADD21C,1.403200*%
%ADD22P,1.869504X8X292.500000*%
%ADD23P,1.951982X8X112.500000*%
%ADD24C,1.879600*%
%ADD25P,1.869504X8X22.500000*%
%ADD26R,1.983200X7.823200*%
%ADD27P,1.759533X8X22.500000*%

G36*
X1308120Y-758D02*
X1308120Y-758D01*
X1308139Y-760D01*
X1308241Y-738D01*
X1308343Y-722D01*
X1308360Y-712D01*
X1308380Y-708D01*
X1308469Y-655D01*
X1308560Y-606D01*
X1308574Y-592D01*
X1308591Y-582D01*
X1308658Y-503D01*
X1308730Y-428D01*
X1308738Y-410D01*
X1308751Y-395D01*
X1308790Y-299D01*
X1308833Y-205D01*
X1308835Y-185D01*
X1308843Y-167D01*
X1308861Y0D01*
X1308861Y88900D01*
X1308858Y88920D01*
X1308860Y88939D01*
X1308838Y89041D01*
X1308822Y89143D01*
X1308812Y89160D01*
X1308808Y89180D01*
X1308755Y89269D01*
X1308706Y89360D01*
X1308692Y89374D01*
X1308682Y89391D01*
X1308603Y89458D01*
X1308528Y89530D01*
X1308510Y89538D01*
X1308495Y89551D01*
X1308399Y89590D01*
X1308305Y89633D01*
X1308285Y89635D01*
X1308267Y89643D01*
X1308100Y89661D01*
X0Y89661D01*
X-20Y89658D01*
X-39Y89660D01*
X-141Y89638D01*
X-243Y89622D01*
X-260Y89612D01*
X-280Y89608D01*
X-369Y89555D01*
X-460Y89506D01*
X-474Y89492D01*
X-491Y89482D01*
X-558Y89403D01*
X-630Y89328D01*
X-638Y89310D01*
X-651Y89295D01*
X-690Y89199D01*
X-733Y89105D01*
X-735Y89085D01*
X-743Y89067D01*
X-761Y88900D01*
X-761Y0D01*
X-758Y-20D01*
X-760Y-39D01*
X-738Y-141D01*
X-722Y-243D01*
X-712Y-260D01*
X-708Y-280D01*
X-655Y-369D01*
X-606Y-460D01*
X-592Y-474D01*
X-582Y-491D01*
X-503Y-558D01*
X-428Y-630D01*
X-410Y-638D01*
X-395Y-651D01*
X-299Y-690D01*
X-205Y-733D01*
X-185Y-735D01*
X-167Y-743D01*
X0Y-761D01*
X1308100Y-761D01*
X1308120Y-758D01*
G37*
D10*
X952500Y266700D03*
X952500Y241300D03*
D11*
X431800Y342900D03*
D12*
X431800Y368300D03*
D13*
X558800Y444500D03*
X533400Y444500D03*
D14*
X1047496Y609600D02*
X1060704Y609600D01*
X1060704Y584200D02*
X1047496Y584200D01*
X1047496Y558800D02*
X1060704Y558800D01*
X1060704Y533400D02*
X1047496Y533400D01*
X1047496Y508000D02*
X1060704Y508000D01*
X1060704Y482600D02*
X1047496Y482600D01*
X1047496Y457200D02*
X1060704Y457200D01*
X1060704Y431800D02*
X1047496Y431800D01*
X1047496Y406400D02*
X1060704Y406400D01*
X1060704Y381000D02*
X1047496Y381000D01*
X1047496Y355600D02*
X1060704Y355600D01*
X1149096Y355600D02*
X1162304Y355600D01*
X1162304Y381000D02*
X1149096Y381000D01*
X1149096Y406400D02*
X1162304Y406400D01*
X1162304Y431800D02*
X1149096Y431800D01*
X1149096Y457200D02*
X1162304Y457200D01*
X1162304Y482600D02*
X1149096Y482600D01*
X1149096Y508000D02*
X1162304Y508000D01*
X1162304Y533400D02*
X1149096Y533400D01*
X1149096Y558800D02*
X1162304Y558800D01*
X1162304Y584200D02*
X1149096Y584200D01*
X1149096Y609600D02*
X1162304Y609600D01*
D10*
X139700Y432054D03*
X139700Y482346D03*
X114300Y457200D03*
D15*
X203200Y368300D03*
X203200Y393700D03*
D16*
X203200Y723900D03*
X228600Y723900D03*
D10*
X139700Y673354D03*
X139700Y723646D03*
X114300Y698500D03*
D15*
X1206500Y355600D03*
X1206500Y431800D03*
D16*
X1054100Y660400D03*
X1079500Y660400D03*
D10*
X1016000Y520700D03*
X1016000Y495300D03*
D17*
X952500Y406400D03*
X939800Y387350D03*
X927100Y406400D03*
D15*
X1206500Y635000D03*
X1206500Y711200D03*
D13*
X977900Y444500D03*
X901700Y444500D03*
D16*
X901700Y355600D03*
X977900Y355600D03*
D17*
X952500Y533400D03*
X939800Y514350D03*
X927100Y533400D03*
D16*
X1041400Y711200D03*
X1117600Y711200D03*
D13*
X977900Y571500D03*
X901700Y571500D03*
D16*
X901700Y482600D03*
X977900Y482600D03*
D10*
X355600Y723900D03*
X355600Y647700D03*
D16*
X1216660Y584200D03*
D18*
X1196340Y584200D03*
D14*
X489204Y419100D02*
X475996Y419100D01*
X475996Y393700D02*
X489204Y393700D01*
X489204Y266700D02*
X475996Y266700D01*
X475996Y241300D02*
X489204Y241300D01*
X489204Y368300D02*
X475996Y368300D01*
X475996Y342900D02*
X489204Y342900D01*
X489204Y292100D02*
X475996Y292100D01*
X475996Y317500D02*
X489204Y317500D01*
X489204Y215900D02*
X475996Y215900D01*
X475996Y190500D02*
X489204Y190500D01*
X552196Y190500D02*
X565404Y190500D01*
X565404Y215900D02*
X552196Y215900D01*
X552196Y241300D02*
X565404Y241300D01*
X565404Y266700D02*
X552196Y266700D01*
X552196Y292100D02*
X565404Y292100D01*
X565404Y317500D02*
X552196Y317500D01*
X552196Y342900D02*
X565404Y342900D01*
X565404Y368300D02*
X552196Y368300D01*
X552196Y393700D02*
X565404Y393700D01*
X565404Y419100D02*
X552196Y419100D01*
D10*
X1016000Y685800D03*
X1016000Y609600D03*
D18*
X304800Y279400D03*
X304800Y254000D03*
X381000Y254000D03*
X381000Y279400D03*
X304800Y228600D03*
X304800Y203200D03*
X381000Y228600D03*
X381000Y203200D03*
D10*
X406400Y266700D03*
X406400Y241300D03*
D13*
X355600Y317500D03*
X330200Y317500D03*
X355600Y165100D03*
X330200Y165100D03*
D11*
X241300Y215900D03*
D12*
X241300Y241300D03*
D16*
X165100Y152400D03*
X241300Y152400D03*
D13*
X177800Y190500D03*
X152400Y190500D03*
D19*
X121412Y393700D02*
X107188Y393700D01*
X107188Y368300D02*
X121412Y368300D01*
D20*
X114300Y279400D03*
X164300Y304400D03*
X164300Y329400D03*
X164300Y254400D03*
X164300Y229400D03*
D21*
X114300Y329400D03*
X89300Y329400D03*
X89300Y229400D03*
X114300Y229400D03*
D20*
X164300Y279000D03*
D22*
X381000Y317500D03*
D10*
X546100Y609600D03*
X546100Y533400D03*
D23*
X482600Y584200D03*
D12*
X482600Y558800D03*
D11*
X609600Y571500D03*
D12*
X609600Y596900D03*
D13*
X533400Y495300D03*
X508000Y495300D03*
D14*
X679196Y685800D02*
X692404Y685800D01*
X692404Y660400D02*
X679196Y660400D01*
X679196Y635000D02*
X692404Y635000D01*
X692404Y609600D02*
X679196Y609600D01*
X679196Y584200D02*
X692404Y584200D01*
X692404Y558800D02*
X679196Y558800D01*
X679196Y533400D02*
X692404Y533400D01*
X692404Y508000D02*
X679196Y508000D01*
X679196Y482600D02*
X692404Y482600D01*
X692404Y457200D02*
X679196Y457200D01*
X679196Y431800D02*
X692404Y431800D01*
X692404Y406400D02*
X679196Y406400D01*
X679196Y381000D02*
X692404Y381000D01*
X692404Y355600D02*
X679196Y355600D01*
X831596Y355600D02*
X844804Y355600D01*
X844804Y381000D02*
X831596Y381000D01*
X831596Y406400D02*
X844804Y406400D01*
X844804Y431800D02*
X831596Y431800D01*
X831596Y457200D02*
X844804Y457200D01*
X844804Y482600D02*
X831596Y482600D01*
X831596Y508000D02*
X844804Y508000D01*
X844804Y533400D02*
X831596Y533400D01*
X831596Y558800D02*
X844804Y558800D01*
X844804Y584200D02*
X831596Y584200D01*
X831596Y609600D02*
X844804Y609600D01*
X844804Y635000D02*
X831596Y635000D01*
X831596Y660400D02*
X844804Y660400D01*
X844804Y685800D02*
X831596Y685800D01*
D18*
X889000Y697230D03*
X889000Y648970D03*
D10*
X952500Y711200D03*
X952500Y685800D03*
D15*
X952500Y635000D03*
X952500Y660400D03*
D20*
X114300Y571500D03*
X164300Y596500D03*
X164300Y621500D03*
X164300Y546500D03*
X164300Y521500D03*
D21*
X114300Y621500D03*
X89300Y621500D03*
X89300Y521500D03*
X114300Y521500D03*
D20*
X164300Y571100D03*
D24*
X1422400Y452882D02*
X1422400Y436118D01*
X1422400Y325882D02*
X1422400Y309118D01*
D14*
X1340104Y431800D02*
X1326896Y431800D01*
X1326896Y482600D02*
X1340104Y482600D01*
X1340104Y406400D02*
X1326896Y406400D01*
X1326896Y508000D02*
X1340104Y508000D01*
D23*
X1422400Y241300D03*
D12*
X1422400Y215900D03*
D10*
X1282700Y469900D03*
X1282700Y419100D03*
X1384300Y495300D03*
X1384300Y419100D03*
D25*
X1104900Y660400D03*
D24*
X1388618Y571500D02*
X1405382Y571500D01*
X1278382Y571500D02*
X1261618Y571500D01*
D10*
X609600Y266700D03*
X609600Y241300D03*
X647700Y533400D03*
X647700Y508000D03*
D22*
X469900Y495300D03*
D10*
X241300Y457200D03*
X241300Y381000D03*
D13*
X355600Y368300D03*
X330200Y368300D03*
D18*
X304800Y482600D03*
X304800Y457200D03*
X381000Y457200D03*
X381000Y482600D03*
X304800Y431800D03*
X304800Y406400D03*
X381000Y431800D03*
X381000Y406400D03*
D10*
X381000Y546100D03*
X381000Y520700D03*
D15*
X342900Y508000D03*
X342900Y584200D03*
D10*
X381000Y609600D03*
X381000Y584200D03*
X406400Y482600D03*
X406400Y457200D03*
D15*
X279400Y457200D03*
X279400Y533400D03*
D10*
X279400Y431800D03*
X279400Y406400D03*
D23*
X254000Y596900D03*
D12*
X254000Y571500D03*
D15*
X215900Y469900D03*
X215900Y546100D03*
D26*
X33380Y40872D03*
X58780Y40872D03*
X84180Y40872D03*
X109580Y40872D03*
X134980Y40872D03*
X160380Y40872D03*
X185780Y40872D03*
X211180Y40872D03*
X236580Y40872D03*
X261980Y40872D03*
X287380Y40872D03*
X312780Y40872D03*
X338180Y40872D03*
X363580Y40872D03*
X388980Y40872D03*
X414380Y40872D03*
X439780Y40872D03*
X465180Y40872D03*
X490580Y40872D03*
X515980Y40872D03*
X541380Y40872D03*
X566780Y40872D03*
X592180Y40872D03*
X617580Y40872D03*
X642980Y40872D03*
X668380Y40872D03*
X693780Y40872D03*
X719180Y40872D03*
X744580Y40872D03*
X769980Y40872D03*
X795380Y40872D03*
X820780Y40872D03*
X846180Y40872D03*
X871580Y40872D03*
X896980Y40872D03*
X922380Y40872D03*
X947780Y40872D03*
X973180Y40872D03*
X998580Y40872D03*
X1023980Y40872D03*
X1049380Y40872D03*
X1074780Y40872D03*
X1100180Y40872D03*
X1125580Y40872D03*
X1150980Y40872D03*
X1176380Y40872D03*
X1201780Y40872D03*
X1227180Y40872D03*
X1252580Y40872D03*
X1277980Y40872D03*
D14*
X990600Y183896D02*
X990600Y197104D01*
X1016000Y197104D02*
X1016000Y183896D01*
X1041400Y183896D02*
X1041400Y197104D01*
X1066800Y197104D02*
X1066800Y183896D01*
X1092200Y183896D02*
X1092200Y197104D01*
X1117600Y197104D02*
X1117600Y183896D01*
X1143000Y183896D02*
X1143000Y197104D01*
X1168400Y197104D02*
X1168400Y183896D01*
X1193800Y183896D02*
X1193800Y197104D01*
X1219200Y197104D02*
X1219200Y183896D01*
X1219200Y260096D02*
X1219200Y273304D01*
X1193800Y273304D02*
X1193800Y260096D01*
X1168400Y260096D02*
X1168400Y273304D01*
X1143000Y273304D02*
X1143000Y260096D01*
X1117600Y260096D02*
X1117600Y273304D01*
X1092200Y273304D02*
X1092200Y260096D01*
X1066800Y260096D02*
X1066800Y273304D01*
X1041400Y273304D02*
X1041400Y260096D01*
X1016000Y260096D02*
X1016000Y273304D01*
X990600Y273304D02*
X990600Y260096D01*
X635000Y197104D02*
X635000Y183896D01*
X660400Y183896D02*
X660400Y197104D01*
X685800Y197104D02*
X685800Y183896D01*
X711200Y183896D02*
X711200Y197104D01*
X736600Y197104D02*
X736600Y183896D01*
X762000Y183896D02*
X762000Y197104D01*
X787400Y197104D02*
X787400Y183896D01*
X812800Y183896D02*
X812800Y197104D01*
X838200Y197104D02*
X838200Y183896D01*
X863600Y183896D02*
X863600Y197104D01*
X889000Y197104D02*
X889000Y183896D01*
X914400Y183896D02*
X914400Y197104D01*
X914400Y260096D02*
X914400Y273304D01*
X889000Y273304D02*
X889000Y260096D01*
X863600Y260096D02*
X863600Y273304D01*
X838200Y273304D02*
X838200Y260096D01*
X812800Y260096D02*
X812800Y273304D01*
X787400Y273304D02*
X787400Y260096D01*
X762000Y260096D02*
X762000Y273304D01*
X736600Y273304D02*
X736600Y260096D01*
X711200Y260096D02*
X711200Y273304D01*
X685800Y273304D02*
X685800Y260096D01*
X660400Y260096D02*
X660400Y273304D01*
X635000Y273304D02*
X635000Y260096D01*
D27*
X1282700Y215900D03*
X1282700Y241300D03*
X1308100Y215900D03*
X1308100Y241300D03*
X1333500Y215900D03*
X1333500Y241300D03*
D19*
X1282700Y323088D02*
X1282700Y337312D01*
X1308100Y337312D02*
X1308100Y323088D01*
X1333500Y323088D02*
X1333500Y337312D01*
D25*
X1143000Y165100D03*
X889000Y304800D03*
X876300Y114300D03*
D10*
X863600Y558800D03*
X863600Y533400D03*
D19*
X431800Y716788D02*
X431800Y731012D01*
X406400Y731012D02*
X406400Y716788D01*
X520700Y716788D02*
X520700Y731012D01*
X495300Y731012D02*
X495300Y716788D01*
D16*
X431800Y685800D03*
X508000Y685800D03*
X533400Y685800D03*
X609600Y685800D03*
D25*
X723900Y114300D03*
X1003300Y114300D03*
X698500Y114300D03*
X749300Y114300D03*
X673100Y114300D03*
X774700Y114300D03*
M02*
